P2
128 128
255
1
1
2
3
2
2
0
1
4
5
5
2
4
14
24
26
11
5
6
2
1
2
2
2
2
2
6
4
3
3
2
3
1
1
1
2
1
0
2
2
0
1
0
0
0
0
0
0
2
1
1
1
1
3
0
1
1
0
1
1
2
2
1
2
2
2
1
1
1
1
0
0
0
0
0
3
4
4
7
1
13
18
12
7
2
4
3
1
1
2
1
2
0
0
0
1
1
2
0
1
24
28
10
1
29
59
31
6
6
2
0
2
0
1
1
1
1
0
2
0
3
0
1
4
3
18
24
30
1
1
3
3
2
2
0
1
4
6
5
1
5
14
24
25
12
4
7
3
1
2
2
2
1
2
6
4
4
3
1
3
1
1
0
1
1
1
1
2
0
1
0
0
1
1
0
1
1
1
1
1
1
2
0
1
0
1
1
1
1
2
1
2
1
2
1
1
1
1
0
1
1
0
0
3
4
4
6
1
12
18
12
8
2
4
3
0
1
2
0
2
0
0
0
0
1
2
0
1
22
29
11
1
25
59
36
4
6
2
1
1
0
0
1
1
1
0
1
0
2
1
1
4
2
10
19
36
0
0
2
2
0
1
0
0
4
7
5
1
5
14
23
24
11
3
6
2
1
0
1
1
0
2
5
5
4
2
0
3
2
0
0
0
0
1
1
2
1
0
0
0
1
1
0
1
0
0
0
0
0
2
0
1
0
1
0
1
0
1
0
1
1
2
0
0
0
1
0
1
1
0
0
3
3
4
6
2
11
17
12
7
2
3
2
0
0
2
0
1
0
0
0
0
0
2
0
1
19
28
11
2
20
53
35
3
6
2
1
1
0
0
1
1
0
0
1
0
2
1
0
3
0
4
13
15
0
0
2
2
0
1
0
0
4
7
5
1
5
14
23
24
11
3
6
2
1
0
1
1
0
2
5
5
4
2
0
3
2
0
0
0
0
1
1
2
1
0
0
0
1
1
0
1
0
0
0
0
0
2
0
1
0
1
0
1
0
1
0
1
1
2
0
0
0
1
0
1
1
0
0
3
3
4
6
2
11
17
12
7
2
3
2
0
0
2
0
1
0
0
0
0
0
2
0
1
19
28
11
2
20
53
35
3
6
2
1
1
0
0
1
1
0
0
1
0
2
1
0
3
0
4
13
15
0
0
2
2
0
1
0
0
4
7
5
1
5
14
23
24
11
3
6
2
1
0
1
1
0
2
5
5
4
2
0
3
2
0
0
0
0
1
1
2
1
0
0
0
1
1
0
1
0
0
0
0
0
2
0
1
0
1
0
1
0
1
0
1
1
2
0
0
0
1
0
1
1
0
0
3
3
4
6
2
11
17
12
7
2
3
2
0
0
2
0
1
0
0
0
0
0
2
0
1
19
28
11
2
20
53
35
3
6
2
1
1
0
0
1
1
0
0
1
0
2
1
0
3
0
4
13
15
0
0
2
2
0
1
0
0
4
7
5
1
5
14
23
24
11
3
6
2
1
0
1
1
0
2
5
5
4
2
0
3
2
0
0
0
0
1
1
2
1
0
0
0
1
1
0
1
0
0
0
0
0
2
0
1
0
1
0
1
0
1
0
1
1
2
0
0
0
1
0
1
1
0
0
3
3
4
6
2
11
17
12
7
2
3
2
0
0
2
0
1
0
0
0
0
0
2
0
1
19
28
11
2
20
53
35
3
6
2
1
1
0
0
1
1
0
0
1
0
2
1
0
3
0
4
13
15
1
1
1
3
2
3
6
7
8
5
7
7
8
16
24
25
13
5
8
3
0
0
0
2
1
2
6
6
5
3
1
3
3
2
1
2
2
1
1
2
2
2
2
1
2
2
1
2
0
1
3
4
6
6
3
3
2
4
2
3
2
2
1
2
1
2
0
1
1
1
1
2
2
1
0
3
5
5
8
5
8
22
24
19
11
3
3
4
4
4
2
3
3
2
1
1
1
1
0
2
20
39
38
36
22
50
70
55
46
26
4
6
3
0
0
1
1
1
2
6
26
38
40
41
37
41
43
36
1
1
1
1
2
4
7
4
1
4
4
1
0
11
21
24
13
5
7
3
1
0
1
1
1
4
4
5
4
2
2
3
1
0
1
1
0
2
1
1
0
0
0
1
1
0
1
4
1
3
4
3
2
2
4
2
1
1
2
2
2
1
1
1
0
2
1
0
0
1
0
0
0
1
1
1
3
3
4
4
5
3
11
14
14
10
6
3
2
2
0
0
1
1
1
0
1
1
1
3
3
3
2
20
46
35
11
12
60
75
27
6
7
4
1
0
4
5
5
38
64
43
12
3
4
4
4
3
1
1
2
2
3
4
3
1
3
5
3
1
1
12
22
25
13
5
6
3
2
2
2
1
1
4
5
4
4
2
2
3
2
1
1
0
1
2
2
2
1
1
1
1
0
1
0
3
2
4
3
2
1
0
2
2
2
3
2
3
4
2
1
2
0
2
1
0
0
1
1
0
0
0
1
1
2
4
3
4
5
1
12
14
13
10
7
5
2
1
1
1
1
0
0
0
0
0
0
1
2
2
3
4
34
47
24
3
30
74
60
8
9
7
3
3
5
6
38
62
45
7
6
5
3
1
1
4
1
2
2
2
4
2
0
1
4
5
1
1
2
11
21
25
13
6
7
3
1
2
1
0
1
3
5
3
4
2
2
3
2
1
1
0
2
0
2
2
1
0
1
1
1
1
1
1
1
2
2
1
1
1
1
1
2
3
1
2
3
2
1
2
0
2
2
1
0
1
1
0
0
0
0
1
2
4
3
3
6
0
10
13
10
7
5
4
2
1
1
1
1
0
0
0
0
0
1
1
2
3
2
3
16
41
30
7
7
47
65
21
8
6
5
4
4
19
51
44
13
6
7
3
3
1
2
2
0
1
1
1
3
0
1
0
2
3
0
1
2
11
21
25
13
5
7
3
0
1
0
1
0
3
5
3
3
1
1
2
1
1
0
0
1
0
1
1
0
0
0
1
1
0
2
0
0
1
1
1
1
0
1
0
2
1
0
2
3
1
1
2
0
2
1
1
0
1
1
0
1
0
0
0
1
4
2
2
5
0
10
12
10
6
3
3
1
0
0
0
0
0
0
0
1
0
1
1
2
2
1
3
8
33
28
7
2
31
57
24
6
5
5
4
3
20
41
22
0
6
5
1
2
2
2
1
0
1
1
1
3
0
1
0
2
3
0
1
2
11
21
25
13
5
7
3
0
1
0
1
0
3
5
3
3
1
1
2
1
1
0
0
1
0
1
1
0
0
0
1
1
0
2
0
0
1
1
1
1
0
1
0
2
1
0
2
3
1
1
2
0
2
1
1
0
1
1
0
1
0
0
0
1
4
2
2
5
0
10
12
10
6
3
3
1
0
0
0
0
0
0
0
1
0
1
1
2
2
1
3
8
33
28
7
2
31
57
24
6
5
5
4
3
20
41
22
0
6
5
1
2
2
2
1
0
1
1
1
3
0
1
0
2
3
0
1
2
11
21
25
13
5
7
3
0
1
0
1
0
3
5
3
3
1
1
2
1
1
0
0
1
0
1
1
0
0
0
1
1
0
2
0
0
1
1
1
1
0
1
0
2
1
0
2
3
1
1
2
0
2
1
1
0
1
1
0
1
0
0
0
1
4
2
2
5
0
10
12
10
6
3
3
1
0
0
0
0
0
0
0
1
0
1
1
2
2
1
3
8
33
28
7
2
31
57
24
6
5
5
4
3
20
41
22
0
6
5
1
2
2
2
1
0
1
1
1
3
0
1
0
2
3
0
1
2
11
21
25
13
5
7
3
0
1
0
1
0
3
5
3
3
1
1
2
1
1
0
0
1
0
1
1
0
0
0
1
1
0
2
0
0
1
1
1
1
0
1
0
2
1
0
2
3
1
1
2
0
2
1
1
0
1
1
0
1
0
0
0
1
4
2
2
5
0
10
12
10
6
3
3
1
0
0
0
0
0
0
0
1
0
1
1
2
2
1
3
8
33
28
7
2
31
57
24
6
5
5
4
3
20
41
22
0
6
5
1
2
2
2
1
3
6
3
6
17
27
27
20
6
2
4
3
4
12
22
26
15
7
10
6
3
2
2
2
1
3
4
3
3
1
1
2
2
2
1
1
1
0
1
2
5
8
8
3
1
3
1
2
2
3
6
10
13
16
19
20
22
25
29
30
31
30
30
32
31
33
35
32
19
7
5
4
4
3
3
3
5
7
5
6
8
3
12
14
10
7
5
6
7
5
4
3
3
4
6
6
7
6
6
6
6
6
5
5
9
38
49
43
38
22
65
70
54
24
35
44
44
48
48
18
3
4
7
3
5
4
1
2
7
4
9
22
36
29
23
23
14
5
1
1
3
11
22
29
17
6
10
6
3
2
2
2
3
4
5
6
5
3
3
3
2
0
1
1
1
2
6
5
1
10
8
12
11
3
8
7
6
8
10
8
7
7
7
7
6
5
5
6
5
3
2
4
4
2
25
52
56
35
7
7
6
4
3
3
3
3
3
3
4
3
12
14
11
5
1
1
1
2
3
4
2
2
4
4
2
3
1
1
0
2
1
1
1
3
3
4
37
52
28
12
86
116
45
2
6
7
3
1
5
3
2
1
4
0
2
1
4
3
17
32
44
21
29
26
14
5
1
1
4
13
24
31
19
5
8
5
2
1
1
2
2
3
4
5
4
3
3
4
3
1
1
1
1
0
8
9
15
18
12
7
2
2
6
0
1
4
4
8
11
11
9
8
8
5
5
3
1
2
2
1
3
3
1
15
40
61
53
19
6
9
7
4
4
4
4
2
3
1
11
16
12
6
2
3
1
2
4
6
8
2
3
2
0
2
0
1
0
1
0
1
2
2
2
3
14
45
43
67
132
94
17
5
6
3
0
3
3
2
2
3
1
5
5
11
0
8
19
33
38
6
30
26
15
5
1
1
4
13
23
30
17
4
8
6
4
2
1
1
2
3
3
4
2
1
3
3
3
3
2
0
0
2
5
15
9
6
2
1
1
2
6
0
0
4
1
3
7
9
9
10
8
4
3
5
3
3
3
1
3
4
1
1
7
29
60
44
9
7
7
4
2
3
3
2
2
0
10
16
13
5
1
3
4
3
3
3
7
5
2
4
1
3
0
2
0
1
0
2
1
1
1
2
4
28
27
87
102
35
1
4
3
3
1
3
1
3
2
2
7
3
12
10
1
7
16
28
29
2
29
26
15
5
1
1
4
13
22
29
17
4
8
6
3
0
1
1
2
3
3
4
1
0
3
2
1
2
2
0
0
2
2
8
1
5
1
2
0
2
6
0
0
4
0
0
4
6
10
9
7
3
1
3
2
2
4
1
2
3
1
1
1
2
37
43
10
3
4
2
0
2
2
1
2
0
10
16
13
5
0
2
4
3
2
1
3
4
0
3
0
2
0
2
0
1
0
1
0
1
1
1
2
20
5
65
59
6
1
2
2
2
0
2
1
1
3
2
8
0
14
7
1
7
16
28
29
2
29
26
15
5
1
1
4
13
22
29
17
4
8
6
3
0
1
1
2
3
3
4
1
0
3
2
1
2
2
0
0
2
2
8
1
5
1
2
0
2
6
0
0
4
0
0
4
6
10
9
7
3
1
3
2
2
4
1
2
3
1
1
1
2
37
43
10
3
4
2
0
2
2
1
2
0
10
16
13
5
0
2
4
3
2
1
3
4
0
3
0
2
0
2
0
1
0
1
0
1
1
1
2
20
5
65
59
6
1
2
2
2
0
2
1
1
3
2
8
0
14
7
1
7
16
28
29
2
29
26
15
5
1
1
4
13
22
29
17
4
8
6
3
0
1
1
2
3
3
4
1
0
3
2
1
2
2
0
0
2
2
8
1
5
1
2
0
2
6
0
0
4
0
0
4
6
10
9
7
3
1
3
2
2
4
1
2
3
1
1
1
2
37
43
10
3
4
2
0
2
2
1
2
0
10
16
13
5
0
2
4
3
2
1
3
4
0
3
0
2
0
2
0
1
0
1
0
1
1
1
2
20
5
65
59
6
1
2
2
2
0
2
1
1
3
2
8
0
14
7
1
7
16
28
29
2
29
26
15
5
1
1
4
13
22
29
17
4
8
6
3
0
1
1
2
3
3
4
1
0
3
2
1
2
2
0
0
2
2
8
1
5
1
2
0
2
6
0
0
4
0
0
4
6
10
9
7
3
1
3
2
2
4
1
2
3
1
1
1
2
37
43
10
3
4
2
0
2
2
1
2
0
10
16
13
5
0
2
4
3
2
1
3
4
0
3
0
2
0
2
0
1
0
1
0
1
1
1
2
20
5
65
59
6
1
2
2
2
0
2
1
1
3
2
8
0
14
7
36
44
44
42
30
5
30
25
15
6
0
2
4
14
23
30
16
6
10
6
2
0
1
1
2
3
4
4
1
1
3
2
1
2
1
6
7
9
7
8
1
3
3
6
4
3
5
1
3
7
3
5
6
4
13
16
15
9
4
6
11
9
11
7
8
9
5
4
2
3
40
68
59
57
58
54
52
24
16
13
10
8
15
18
14
6
2
3
6
7
10
29
42
50
41
21
8
3
1
2
0
1
1
2
2
4
13
41
50
73
67
94
57
8
2
3
4
1
1
1
6
14
24
41
54
46
59
61
30
22
0
2
3
9
26
24
14
8
1
2
6
14
23
27
14
5
8
4
1
0
2
2
1
2
3
4
4
2
1
3
1
2
2
9
4
2
2
3
2
1
1
1
7
9
5
7
6
3
3
3
1
3
5
7
10
10
10
7
17
26
18
7
4
3
6
4
2
2
4
5
3
6
8
17
83
97
45
3
10
11
18
20
15
7
1
0
2
8
22
41
30
18
47
43
26
9
1
2
1
1
1
2
4
4
52
78
36
5
4
6
0
5
5
2
3
2
1
7
12
26
44
48
27
4
8
14
15
5
3
0
3
8
25
24
14
7
2
1
6
14
23
28
15
6
10
5
1
1
0
1
1
2
3
4
4
1
0
2
3
1
8
8
0
0
1
3
1
0
2
7
10
7
5
7
4
2
3
3
6
4
5
7
13
10
9
25
25
11
4
2
3
4
5
2
2
1
1
4
3
4
6
6
28
82
101
65
8
16
22
23
16
7
1
0
1
8
22
40
31
5
39
51
39
20
4
3
1
1
2
4
1
33
77
57
9
8
8
2
2
4
1
5
1
0
4
6
20
45
50
27
7
7
15
9
2
2
1
0
2
7
24
23
14
6
1
1
6
14
22
27
16
4
9
6
2
0
0
1
1
2
3
4
4
2
1
1
5
1
11
6
3
0
0
3
1
1
2
6
6
3
5
6
2
2
1
3
5
3
6
6
9
14
29
22
6
4
4
3
2
0
1
1
4
2
2
3
3
2
1
4
2
19
71
93
33
15
22
23
16
7
0
0
0
7
23
39
31
8
22
43
39
22
7
2
2
1
3
4
3
49
67
24
3
8
4
0
4
3
5
1
3
2
2
5
26
48
33
7
4
11
9
1
1
2
0
0
1
7
24
24
14
6
1
0
5
14
22
26
16
3
8
5
2
0
0
1
1
2
4
4
3
2
1
1
5
2
11
2
3
0
0
2
1
1
2
6
4
1
5
3
0
1
0
2
3
1
4
3
2
18
25
6
0
1
1
1
0
0
1
0
4
2
0
1
1
1
0
2
3
3
31
76
38
13
21
23
17
7
0
0
0
7
24
38
31
9
11
32
32
20
7
2
2
1
3
4
4
46
49
8
4
6
3
0
3
2
4
1
2
3
1
5
26
39
18
2
5
9
5
0
1
2
0
0
1
7
24
24
14
6
1
0
5
14
22
26
16
3
8
5
2
0
0
1
1
2
4
4
3
2
1
1
5
2
11
2
3
0
0
2
1
1
2
6
4
1
5
3
0
1
0
2
3
1
4
3
2
18
25
6
0
1
1
1
0
0
1
0
4
2
0
1
1
1
0
2
3
3
31
76
38
13
21
23
17
7
0
0
0
7
24
38
31
9
11
32
32
20
7
2
2
1
3
4
4
46
49
8
4
6
3
0
3
2
4
1
2
3
1
5
26
39
18
2
5
9
5
0
1
2
0
0
1
7
24
24
14
6
1
0
5
14
22
26
16
3
8
5
2
0
0
1
1
2
4
4
3
2
1
1
5
2
11
2
3
0
0
2
1
1
2
6
4
1
5
3
0
1
0
2
3
1
4
3
2
18
25
6
0
1
1
1
0
0
1
0
4
2
0
1
1
1
0
2
3
3
31
76
38
13
21
23
17
7
0
0
0
7
24
38
31
9
11
32
32
20
7
2
2
1
3
4
4
46
49
8
4
6
3
0
3
2
4
1
2
3
1
5
26
39
18
2
5
9
5
0
1
2
0
0
1
7
24
24
14
6
1
0
5
14
22
26
16
3
8
5
2
0
0
1
1
2
4
4
3
2
1
1
5
2
11
2
3
0
0
2
1
1
2
6
4
1
5
3
0
1
0
2
3
1
4
3
2
18
25
6
0
1
1
1
0
0
1
0
4
2
0
1
1
1
0
2
3
3
31
76
38
13
21
23
17
7
0
0
0
7
24
38
31
9
11
32
32
20
7
2
2
1
3
4
4
46
49
8
4
6
3
0
3
2
4
1
2
3
1
5
26
39
18
2
5
9
5
0
3
3
2
2
3
7
24
25
15
7
2
1
5
14
22
28
18
4
10
7
3
0
0
0
1
2
4
4
4
2
18
31
24
13
15
3
4
2
1
5
7
6
3
5
6
1
5
8
11
12
15
17
22
17
19
17
18
26
20
11
5
3
5
6
5
6
4
2
4
5
5
6
4
4
3
5
6
7
25
86
86
75
44
16
23
10
1
1
1
9
27
44
34
17
72
84
66
53
41
36
36
34
39
32
28
73
50
8
7
5
4
4
5
0
4
1
22
48
48
49
60
56
26
8
9
8
5
3
3
4
3
2
5
7
22
24
16
8
2
2
6
15
25
31
18
5
11
8
4
2
1
1
2
4
4
4
2
3
48
33
47
33
1
3
5
5
3
8
6
2
5
2
7
5
3
10
5
35
37
14
4
7
2
7
4
3
4
6
4
2
4
6
8
5
4
6
2
2
4
5
1
0
2
5
6
2
2
5
9
16
76
60
25
11
4
0
3
14
34
40
31
96
115
65
22
18
12
3
8
8
12
35
100
53
6
3
2
5
3
2
2
3
3
13
60
61
18
3
11
8
0
1
1
2
1
0
3
4
3
2
3
5
20
24
16
8
2
1
6
15
26
31
17
5
10
7
4
1
1
1
2
4
4
4
0
6
54
17
56
27
2
3
2
5
6
5
5
3
0
5
4
6
11
6
32
31
7
8
5
2
7
7
4
2
2
3
3
7
8
6
6
5
5
6
2
1
1
2
2
11
11
11
6
4
3
3
6
7
31
66
41
9
5
2
8
18
24
42
88
99
51
18
16
11
4
9
4
5
10
33
96
52
7
2
3
3
1
3
5
2
3
42
71
34
3
8
9
1
2
1
1
2
1
2
2
2
1
2
2
4
19
24
15
8
2
0
4
14
26
30
15
4
8
6
3
1
2
1
0
4
4
3
0
12
52
4
55
23
2
5
6
6
3
5
4
3
4
3
2
11
6
22
27
6
6
6
6
3
7
5
3
2
1
5
2
6
7
5
8
3
4
7
2
0
1
1
3
17
9
14
5
1
1
2
2
6
2
28
48
21
3
2
8
15
10
59
65
23
8
15
6
3
6
3
4
8
8
39
94
48
5
3
2
5
2
4
3
7
8
58
55
9
1
9
3
1
2
2
1
1
1
1
0
1
0
2
2
3
19
24
15
7
2
1
3
13
25
30
15
4
8
5
3
1
1
0
1
4
4
2
0
12
46
2
49
19
1
5
6
2
0
2
2
4
4
0
2
7
1
24
15
1
2
3
6
3
6
4
5
2
2
3
0
5
3
6
7
1
1
5
1
1
1
1
3
15
2
15
3
0
0
0
1
3
6
5
33
22
2
1
6
13
9
40
17
8
8
11
2
3
2
0
4
7
7
39
90
45
4
3
0
4
0
3
1
8
10
54
39
0
2
8
1
1
1
1
0
0
1
0
0
1
0
2
2
3
19
24
15
7
2
1
3
13
25
30
15
4
8
5
3
1
1
0
1
4
4
2
0
12
46
2
49
19
1
5
6
2
0
2
2
4
4
0
2
7
1
24
15
1
2
3
6
3
6
4
5
2
2
3
0
5
3
6
7
1
1
5
1
1
1
1
3
15
2
15
3
0
0
0
1
3
6
5
33
22
2
1
6
13
9
40
17
8
8
11
2
3
2
0
4
7
7
39
90
45
4
3
0
4
0
3
1
8
10
54
39
0
2
8
1
1
1
1
0
0
1
0
0
1
0
2
2
3
19
24
15
7
2
1
3
13
25
30
15
4
8
5
3
1
1
0
1
4
4
2
0
12
46
2
49
19
1
5
6
2
0
2
2
4
4
0
2
7
1
24
15
1
2
3
6
3
6
4
5
2
2
3
0
5
3
6
7
1
1
5
1
1
1
1
3
15
2
15
3
0
0
0
1
3
6
5
33
22
2
1
6
13
9
40
17
8
8
11
2
3
2
0
4
7
7
39
90
45
4
3
0
4
0
3
1
8
10
54
39
0
2
8
1
1
1
1
0
0
1
0
0
1
0
2
2
3
19
24
15
7
2
1
3
13
25
30
15
4
8
5
3
1
1
0
1
4
4
2
0
12
46
2
49
19
1
5
6
2
0
2
2
4
4
0
2
7
1
24
15
1
2
3
6
3
6
4
5
2
2
3
0
5
3
6
7
1
1
5
1
1
1
1
3
15
2
15
3
0
0
0
1
3
6
5
33
22
2
1
6
13
9
40
17
8
8
11
2
3
2
0
4
7
7
39
90
45
4
3
0
4
0
3
1
8
10
54
39
0
2
8
1
1
1
1
0
0
1
0
0
1
1
2
1
5
20
26
18
10
4
2
5
15
27
32
16
4
8
5
3
1
2
2
2
5
6
6
5
28
57
12
49
36
22
11
2
6
7
3
3
10
10
6
8
14
8
27
12
6
4
6
9
12
15
14
13
8
8
8
7
9
6
9
14
11
11
17
17
13
12
12
10
16
3
18
15
12
17
18
18
15
14
12
25
35
26
25
29
37
37
49
18
8
10
9
11
22
21
20
24
26
38
103
110
42
3
3
4
4
6
25
41
49
58
77
45
6
6
8
0
1
1
1
1
1
1
1
0
1
2
1
1
5
20
25
17
8
2
1
4
13
26
31
17
4
8
4
2
1
1
1
0
2
2
3
3
53
37
24
18
16
17
20
14
2
8
6
11
20
10
3
8
11
3
13
4
3
3
1
2
5
10
6
6
6
4
3
2
6
6
6
4
5
4
5
8
5
6
9
6
8
9
8
7
7
10
2
9
12
14
11
9
7
1
5
6
4
2
2
1
2
4
0
20
30
13
10
25
30
84
101
17
5
2
3
0
3
21
52
62
28
4
8
6
0
1
1
1
0
0
1
0
0
0
0
1
2
1
1
1
6
20
24
15
8
2
0
3
13
26
32
17
4
8
3
2
1
1
0
0
2
1
4
7
56
33
20
16
13
12
18
21
6
8
16
21
10
3
9
8
4
13
5
5
6
6
5
2
1
7
5
6
9
6
8
6
2
2
6
4
3
0
2
3
5
4
8
10
9
6
9
8
8
4
13
14
11
10
6
2
5
5
2
1
5
5
3
2
3
4
10
32
21
8
8
17
8
96
72
6
4
4
2
4
9
38
61
39
8
6
8
2
1
2
1
1
0
1
1
0
1
0
0
1
1
0
0
1
7
20
23
15
7
1
0
2
13
26
32
18
4
7
3
1
1
0
0
0
1
0
4
13
55
29
18
15
12
9
14
19
9
9
23
13
1
6
10
5
14
7
1
6
3
7
1
2
6
7
0
1
4
7
6
8
2
3
8
6
4
2
1
1
3
2
3
5
6
3
9
4
10
13
6
7
11
7
3
6
4
1
2
3
5
3
1
1
3
3
20
28
11
5
2
23
22
89
41
6
2
2
2
3
10
43
52
17
0
7
5
0
3
2
1
0
0
1
0
0
1
0
1
1
1
0
0
1
8
20
23
15
7
1
0
2
12
25
31
17
4
7
3
1
1
0
0
0
1
0
4
14
52
27
16
14
12
8
10
14
9
9
19
5
2
5
7
8
11
1
2
5
0
8
0
1
9
4
1
1
0
3
0
6
3
5
5
6
5
0
0
0
1
0
2
2
2
0
6
0
14
9
0
7
8
0
5
2
1
2
1
2
3
1
0
0
2
2
21
21
5
3
1
20
26
79
27
4
2
0
0
1
9
39
41
7
0
7
4
0
2
1
1
0
0
0
0
0
1
0
0
1
1
0
0
1
8
20
23
15
7
1
0
2
12
25
31
17
4
7
3
1
1
0
0
0
1
0
4
14
52
27
16
14
12
8
10
14
9
9
19
5
2
5
7
8
11
1
2
5
0
8
0
1
9
4
1
1
0
3
0
6
3
5
5
6
5
0
0
0
1
0
2
2
2
0
6
0
14
9
0
7
8
0
5
2
1
2
1
2
3
1
0
0
2
2
21
21
5
3
1
20
26
79
27
4
2
0
0
1
9
39
41
7
0
7
4
0
2
1
1
0
0
0
0
0
1
0
0
1
1
0
0
1
8
20
23
15
7
1
0
2
12
25
31
17
4
7
3
1
1
0
0
0
1
0
4
14
52
27
16
14
12
8
10
14
9
9
19
5
2
5
7
8
11
1
2
5
0
8
0
1
9
4
1
1
0
3
0
6
3
5
5
6
5
0
0
0
1
0
2
2
2
0
6
0
14
9
0
7
8
0
5
2
1
2
1
2
3
1
0
0
2
2
21
21
5
3
1
20
26
79
27
4
2
0
0
1
9
39
41
7
0
7
4
0
2
1
1
0
0
0
0
0
1
0
0
1
1
0
0
1
8
20
23
15
7
1
0
2
12
25
31
17
4
7
3
1
1
0
0
0
1
0
4
14
52
27
16
14
12
8
10
14
9
9
19
5
2
5
7
8
11
1
2
5
0
8
0
1
9
4
1
1
0
3
0
6
3
5
5
6
5
0
0
0
1
0
2
2
2
0
6
0
14
9
0
7
8
0
5
2
1
2
1
2
3
1
0
0
2
2
21
21
5
3
1
20
26
79
27
4
2
0
0
1
9
39
41
7
0
7
4
0
2
1
1
0
0
0
0
0
1
0
0
5
5
4
2
4
11
22
23
15
8
2
0
2
12
26
32
18
5
9
4
2
1
1
1
0
1
1
3
13
62
43
16
27
25
12
10
21
20
7
21
9
4
8
7
7
12
7
6
4
5
14
12
14
22
34
40
43
49
48
45
38
38
47
37
38
41
48
54
56
57
25
8
6
13
11
15
16
22
11
3
8
7
3
4
3
4
0
18
31
39
51
52
52
47
37
27
14
17
49
54
75
75
90
27
5
5
4
18
41
51
64
51
15
7
10
4
0
2
2
1
0
0
1
1
1
1
1
2
2
2
3
1
3
9
17
20
16
9
2
1
2
10
26
35
20
3
10
5
2
1
1
0
0
0
1
3
8
46
76
21
14
37
29
7
7
17
5
19
12
6
11
3
4
2
3
4
6
9
9
6
30
39
29
29
34
25
11
33
9
31
15
16
13
28
10
7
27
83
71
44
34
16
3
7
6
5
4
4
4
1
1
2
0
18
48
67
54
35
27
27
43
50
49
46
7
78
105
47
2
5
3
3
4
5
3
41
64
24
7
13
5
1
2
2
1
1
1
0
1
0
0
1
0
1
1
1
1
2
3
2
1
8
18
20
15
8
2
0
1
10
24
35
21
2
8
4
2
1
1
0
0
0
0
2
9
25
76
38
13
31
33
14
15
16
11
17
4
13
4
3
1
3
2
6
12
15
19
33
43
24
18
20
18
5
27
18
27
20
20
9
20
25
16
46
58
66
44
35
15
2
1
3
4
5
4
4
2
1
2
11
43
76
73
41
18
15
27
39
40
33
29
2
79
107
50
2
4
1
3
2
5
4
14
55
48
10
11
12
2
1
2
3
1
2
1
1
1
0
0
0
0
1
1
0
1
1
1
2
1
7
18
20
15
8
2
0
2
10
23
34
22
3
9
4
2
2
1
0
0
0
1
2
7
6
65
47
9
20
25
20
23
8
16
5
13
8
6
2
3
1
3
12
14
11
28
35
14
6
16
10
7
8
27
8
28
12
31
16
18
12
32
60
28
28
36
14
7
3
2
2
3
3
4
5
2
2
2
25
69
74
25
13
10
23
22
13
8
9
16
39
98
55
3
5
1
1
3
0
3
1
25
55
30
5
12
8
1
0
1
2
1
2
1
1
1
1
0
1
1
1
0
1
1
1
1
1
0
6
17
20
15
8
2
0
2
11
23
34
22
3
8
3
1
1
1
0
0
0
1
1
5
0
57
49
6
15
16
15
26
5
14
1
13
3
8
0
2
3
2
13
5
4
21
21
2
6
13
0
5
8
22
7
12
21
20
20
15
7
27
50
5
18
29
0
8
0
2
1
1
0
3
5
2
2
1
26
55
34
20
19
1
25
20
4
2
6
12
47
76
20
4
4
1
1
4
0
3
1
25
47
20
4
11
5
0
0
1
1
1
2
1
0
1
0
0
1
1
0
0
1
1
1
1
1
0
6
17
20
15
8
2
0
2
11
23
34
22
3
8
3
1
1
1
0
0
0
1
1
5
0
57
49
6
15
16
15
26
5
14
1
13
3
8
0
2
3
2
13
5
4
21
21
2
6
13
0
5
8
22
7
12
21
20
20
15
7
27
50
5
18
29
0
8
0
2
1
1
0
3
5
2
2
1
26
55
34
20
19
1
25
20
4
2
6
12
47
76
20
4
4
1
1
4
0
3
1
25
47
20
4
11
5
0
0
1
1
1
2
1
0
1
0
0
1
1
0
0
1
1
1
1
1
0
6
17
20
15
8
2
0
2
11
23
34
22
3
8
3
1
1
1
0
0
0
1
1
5
0
57
49
6
15
16
15
26
5
14
1
13
3
8
0
2
3
2
13
5
4
21
21
2
6
13
0
5
8
22
7
12
21
20
20
15
7
27
50
5
18
29
0
8
0
2
1
1
0
3
5
2
2
1
26
55
34
20
19
1
25
20
4
2
6
12
47
76
20
4
4
1
1
4
0
3
1
25
47
20
4
11
5
0
0
1
1
1
2
1
0
1
0
0
1
1
0
0
1
1
1
1
1
0
6
17
20
15
8
2
0
2
11
23
34
22
3
8
3
1
1
1
0
0
0
1
1
5
0
57
49
6
15
16
15
26
5
14
1
13
3
8
0
2
3
2
13
5
4
21
21
2
6
13
0
5
8
22
7
12
21
20
20
15
7
27
50
5
18
29
0
8
0
2
1
1
0
3
5
2
2
1
26
55
34
20
19
1
25
20
4
2
6
12
47
76
20
4
4
1
1
4
0
3
1
25
47
20
4
11
5
0
0
1
1
1
2
1
0
1
0
0
1
1
0
0
1
2
1
2
2
2
9
23
26
17
8
2
0
2
11
25
35
23
3
10
4
3
3
2
1
1
2
4
4
8
8
49
72
40
2
30
35
32
6
16
9
12
4
7
9
29
30
34
47
36
35
36
20
2
7
12
11
17
14
16
25
6
38
35
36
51
49
75
74
24
22
24
13
11
6
8
5
4
7
11
12
8
8
8
32
69
56
7
38
34
49
34
27
57
66
77
92
81
16
10
4
2
4
3
5
27
41
54
57
23
5
10
7
2
1
2
2
1
1
2
2
2
1
1
1
2
2
1
1
2
1
2
2
4
0
19
27
18
10
3
1
1
11
24
36
26
1
9
6
4
3
2
2
1
3
5
10
8
5
7
1
60
55
59
53
4
4
5
6
2
18
30
36
44
13
1
16
2
4
15
18
12
1
5
18
9
27
17
4
56
70
53
45
18
13
23
6
6
14
6
4
6
7
3
15
14
7
3
2
3
7
6
17
50
67
51
10
31
55
40
41
53
7
4
6
5
5
0
9
7
2
2
15
54
44
11
15
11
2
8
9
7
5
3
1
1
1
0
1
1
1
1
1
2
2
2
1
1
0
2
2
4
0
18
27
18
10
3
1
1
11
23
34
25
1
10
8
5
3
1
2
1
1
8
13
3
5
5
6
46
61
47
39
2
4
10
8
10
26
33
35
34
10
1
14
7
5
5
14
7
10
14
12
3
26
14
47
76
55
40
24
19
5
20
6
8
11
4
5
7
5
12
14
10
5
4
3
3
5
3
10
41
67
60
23
17
54
54
34
59
12
4
5
5
6
2
10
3
4
2
28
59
29
12
19
6
5
0
4
6
8
7
5
6
5
3
1
1
1
1
2
2
2
3
2
1
1
2
2
4
1
18
26
19
10
3
1
1
11
23
33
24
1
10
9
4
1
0
1
1
1
11
8
5
2
2
6
24
51
23
39
0
6
9
4
13
27
24
19
13
17
2
10
5
4
1
5
3
16
20
10
6
29
16
64
52
33
26
6
18
3
22
8
11
9
8
8
6
9
12
11
6
3
3
3
3
4
2
5
29
59
58
30
7
44
52
24
55
12
1
3
4
4
4
10
0
2
0
36
52
15
13
15
5
6
3
1
1
3
4
4
6
6
4
1
1
1
1
2
1
2
3
1
0
2
2
1
4
1
18
25
19
10
3
0
1
11
23
32
23
0
9
7
3
0
0
1
1
2
11
5
3
1
0
3
13
41
13
40
1
6
4
2
10
25
26
15
4
14
1
8
3
4
1
3
0
16
20
6
2
22
4
52
30
20
15
1
14
1
20
6
11
9
7
3
7
8
9
9
4
3
3
2
2
4
1
3
24
53
55
30
4
38
47
19
52
11
0
3
3
2
5
9
0
2
1
35
43
9
11
11
3
4
2
1
1
0
1
1
1
4
3
1
1
1
1
1
1
2
2
0
0
2
2
1
4
1
18
25
19
10
3
0
1
11
23
32
23
0
9
7
3
0
0
1
1
2
11
5
3
1
0
3
13
41
13
40
1
6
4
2
10
25
26
15
4
14
1
8
3
4
1
3
0
16
20
6
2
22
4
52
30
20
15
1
14
1
20
6
11
9
7
3
7
8
9
9
4
3
3
2
2
4
1
3
24
53
55
30
4
38
47
19
52
11
0
3
3
2
5
9
0
2
1
35
43
9
11
11
3
4
2
1
1
0
1
1
1
4
3
1
1
1
1
1
1
2
2
0
0
2
2
1
4
1
18
25
19
10
3
0
1
11
23
32
23
0
9
7
3
0
0
1
1
2
11
5
3
1
0
3
13
41
13
40
1
6
4
2
10
25
26
15
4
14
1
8
3
4
1
3
0
16
20
6
2
22
4
52
30
20
15
1
14
1
20
6
11
9
7
3
7
8
9
9
4
3
3
2
2
4
1
3
24
53
55
30
4
38
47
19
52
11
0
3
3
2
5
9
0
2
1
35
43
9
11
11
3
4
2
1
1
0
1
1
1
4
3
1
1
1
1
1
1
2
2
0
0
2
2
1
4
1
18
25
19
10
3
0
1
11
23
32
23
0
9
7
3
0
0
1
1
2
11
5
3
1
0
3
13
41
13
40
1
6
4
2
10
25
26
15
4
14
1
8
3
4
1
3
0
16
20
6
2
22
4
52
30
20
15
1
14
1
20
6
11
9
7
3
7
8
9
9
4
3
3
2
2
4
1
3
24
53
55
30
4
38
47
19
52
11
0
3
3
2
5
9
0
2
1
35
43
9
11
11
3
4
2
1
1
0
1
1
1
4
3
1
1
1
1
1
1
2
2
0
2
1
2
2
4
1
20
28
20
11
4
1
2
12
25
33
23
0
9
7
3
0
1
2
1
2
11
9
1
13
16
19
13
41
40
40
10
22
32
27
32
35
20
20
13
10
4
2
5
10
5
6
4
12
32
18
37
57
60
88
45
28
6
28
36
20
38
39
35
38
35
33
37
36
25
19
16
11
7
7
10
26
47
56
63
65
45
40
9
37
66
12
59
30
5
6
2
4
7
7
5
24
40
60
53
20
15
9
4
3
3
2
3
4
4
4
3
3
4
3
3
2
3
4
5
8
10
9
1
1
1
3
6
4
19
30
20
12
4
1
1
11
24
36
24
2
9
7
4
1
1
1
1
4
7
12
20
26
18
8
42
66
25
25
46
31
9
10
13
11
10
18
13
4
10
19
11
25
3
22
16
10
45
72
49
31
22
6
14
11
50
73
54
40
47
46
40
35
3
20
18
38
30
15
17
13
3
3
21
56
74
64
42
25
21
21
19
2
41
44
29
45
4
2
8
7
1
1
7
45
44
12
16
12
1
3
1
1
1
0
1
2
1
3
2
1
0
1
0
1
3
3
3
6
6
3
3
4
5
6
8
7
22
33
21
12
4
1
2
11
23
34
26
2
10
9
6
1
2
2
3
4
25
45
29
15
5
3
24
35
42
38
17
5
16
4
8
19
17
10
3
13
15
24
13
28
24
2
9
27
71
63
32
20
15
9
26
67
87
60
40
38
35
33
14
32
41
31
17
17
21
17
19
17
8
19
68
84
57
26
20
24
24
22
19
3
37
44
20
45
10
2
9
5
2
2
16
54
35
12
18
6
3
3
2
1
1
0
1
1
1
2
1
0
1
2
2
4
7
6
5
5
4
2
2
3
4
5
8
6
22
34
23
12
4
0
2
11
23
35
27
1
9
7
6
1
3
1
4
5
44
47
24
8
4
9
43
56
50
8
24
13
3
8
15
22
25
5
9
8
22
11
31
11
34
15
2
48
67
39
16
13
9
7
49
81
52
22
12
9
7
39
21
38
23
55
25
5
13
14
20
21
8
41
87
64
17
8
21
12
7
7
11
5
33
44
14
42
10
5
9
2
2
2
24
52
25
11
14
1
2
2
1
1
1
0
0
1
0
2
0
0
2
1
1
4
5
5
4
3
4
2
0
0
1
2
5
3
20
33
23
12
4
0
2
11
22
34
26
0
8
5
5
0
2
0
3
6
44
30
18
9
2
7
36
34
19
12
19
1
0
4
19
18
26
4
11
4
21
0
30
11
28
16
3
45
55
21
8
13
6
7
49
60
22
6
0
1
8
39
1
42
2
45
27
3
10
12
20
21
5
45
71
29
10
14
14
15
4
3
6
6
31
43
13
41
8
6
8
0
2
2
23
47
19
9
10
1
2
1
0
0
1
0
0
1
0
1
0
0
2
0
0
2
3
3
2
1
2
1
0
0
1
2
5
3
20
33
23
12
4
0
2
11
22
34
26
0
8
5
5
0
2
0
3
6
44
30
18
9
2
7
36
34
19
12
19
1
0
4
19
18
26
4
11
4
21
0
30
11
28
16
3
45
55
21
8
13
6
7
49
60
22
6
0
1
8
39
1
42
2
45
27
3
10
12
20
21
5
45
71
29
10
14
14
15
4
3
6
6
31
43
13
41
8
6
8
0
2
2
23
47
19
9
10
1
2
1
0
0
1
0
0
1
0
1
0
0
2
0
0
2
3
3
2
1
2
1
0
0
1
2
5
3
20
33
23
12
4
0
2
11
22
34
26
0
8
5
5
0
2
0
3
6
44
30
18
9
2
7
36
34
19
12
19
1
0
4
19
18
26
4
11
4
21
0
30
11
28
16
3
45
55
21
8
13
6
7
49
60
22
6
0
1
8
39
1
42
2
45
27
3
10
12
20
21
5
45
71
29
10
14
14
15
4
3
6
6
31
43
13
41
8
6
8
0
2
2
23
47
19
9
10
1
2
1
0
0
1
0
0
1
0
1
0
0
2
0
0
2
3
3
2
1
2
1
0
0
1
2
5
3
20
33
23
12
4
0
2
11
22
34
26
0
8
5
5
0
2
0
3
6
44
30
18
9
2
7
36
34
19
12
19
1
0
4
19
18
26
4
11
4
21
0
30
11
28
16
3
45
55
21
8
13
6
7
49
60
22
6
0
1
8
39
1
42
2
45
27
3
10
12
20
21
5
45
71
29
10
14
14
15
4
3
6
6
31
43
13
41
8
6
8
0
2
2
23
47
19
9
10
1
2
1
0
0
1
0
0
1
0
1
0
0
2
0
0
2
3
3
2
1
2
1
1
2
5
8
12
12
28
40
25
13
5
3
5
15
25
37
29
5
13
11
11
6
12
16
19
2
50
60
69
52
45
31
44
29
24
6
27
10
6
11
17
16
33
5
17
14
20
3
27
26
21
41
68
96
65
11
36
50
40
29
42
67
62
59
56
57
62
75
37
78
53
65
31
4
9
18
26
26
4
44
81
66
45
36
36
40
23
15
8
10
26
50
10
55
17
11
9
1
10
29
54
59
27
12
7
4
4
3
1
2
2
3
3
4
5
6
6
9
10
8
14
19
25
27
27
26
27
28
6
8
9
8
11
11
26
43
28
15
7
3
1
12
24
34
24
1
10
9
4
7
14
10
13
24
23
14
17
11
38
33
5
25
43
25
18
17
16
12
5
4
28
29
9
3
1
3
3
40
64
51
44
17
46
81
30
15
16
11
9
8
9
11
14
17
18
17
12
8
11
14
9
5
4
14
40
33
9
31
25
20
16
19
19
20
33
28
5
10
10
57
21
54
33
13
2
1
24
55
29
13
12
0
2
1
1
0
0
1
1
1
2
3
5
5
5
5
7
32
42
30
12
3
1
1
0
1
5
6
7
6
10
7
24
41
27
14
7
3
1
12
23
34
25
2
10
13
16
18
13
4
26
27
24
25
6
25
32
20
17
25
32
9
23
22
16
18
14
14
15
42
28
7
0
2
17
55
54
48
37
35
96
51
18
18
10
11
10
8
6
8
7
7
7
5
3
7
12
11
8
7
6
10
38
37
3
25
17
15
13
11
10
15
32
28
3
8
4
57
31
59
39
9
1
3
39
54
21
14
9
2
1
1
1
0
0
1
2
2
2
2
4
6
6
4
30
42
27
9
2
3
2
1
4
4
2
5
6
5
9
6
24
42
27
14
5
2
0
11
23
35
26
2
12
19
20
13
4
21
46
38
30
18
9
18
18
15
19
39
20
2
15
29
23
10
31
31
22
35
36
7
1
1
31
48
38
41
18
69
84
24
27
12
8
10
9
8
8
7
3
1
2
3
3
7
12
9
7
8
6
6
33
38
1
24
16
12
13
8
6
12
32
27
1
7
2
53
39
59
45
4
1
5
42
44
13
13
5
2
1
1
1
1
0
1
2
1
1
1
3
5
3
14
34
26
8
1
2
2
2
2
5
4
0
3
4
4
8
5
24
42
27
14
5
2
0
11
23
35
25
1
13
18
14
4
3
22
30
9
4
4
11
13
14
16
22
36
11
3
4
16
19
2
24
13
37
23
35
7
0
1
32
37
29
37
8
69
56
27
24
10
7
9
8
7
9
7
1
0
1
1
2
7
11
7
5
7
5
5
31
37
0
25
15
10
12
8
5
11
32
27
1
5
3
50
42
56
47
2
1
6
41
38
10
11
3
2
1
1
1
1
0
1
2
1
1
0
3
5
1
15
27
15
3
0
1
2
1
1
3
1
0
3
4
4
8
5
24
42
27
14
5
2
0
11
23
35
25
1
13
18
14
4
3
22
30
9
4
4
11
13
14
16
22
36
11
3
4
16
19
2
24
13
37
23
35
7
0
1
32
37
29
37
8
69
56
27
24
10
7
9
8
7
9
7
1
0
1
1
2
7
11
7
5
7
5
5
31
37
0
25
15
10
12
8
5
11
32
27
1
5
3
50
42
56
47
2
1
6
41
38
10
11
3
2
1
1
1
1
0
1
2
1
1
0
3
5
1
15
27
15
3
0
1
2
1
1
3
1
0
3
4
4
8
5
24
42
27
14
5
2
0
11
23
35
25
1
13
18
14
4
3
22
30
9
4
4
11
13
14
16
22
36
11
3
4
16
19
2
24
13
37
23
35
7
0
1
32
37
29
37
8
69
56
27
24
10
7
9
8
7
9
7
1
0
1
1
2
7
11
7
5
7
5
5
31
37
0
25
15
10
12
8
5
11
32
27
1
5
3
50
42
56
47
2
1
6
41
38
10
11
3
2
1
1
1
1
0
1
2
1
1
0
3
5
1
15
27
15
3
0
1
2
1
1
3
1
0
3
4
4
8
5
24
42
27
14
5
2
0
11
23
35
25
1
13
18
14
4
3
22
30
9
4
4
11
13
14
16
22
36
11
3
4
16
19
2
24
13
37
23
35
7
0
1
32
37
29
37
8
69
56
27
24
10
7
9
8
7
9
7
1
0
1
1
2
7
11
7
5
7
5
5
31
37
0
25
15
10
12
8
5
11
32
27
1
5
3
50
42
56
47
2
1
6
41
38
10
11
3
2
1
1
1
1
0
1
2
1
1
0
3
5
1
15
27
15
3
0
1
2
1
1
3
1
2
6
7
9
14
12
31
48
29
15
6
4
2
11
23
35
25
9
23
15
16
14
29
33
22
17
12
8
15
9
20
9
28
31
15
7
2
18
24
7
29
22
28
47
40
18
47
49
68
42
24
78
78
93
46
27
24
12
8
11
13
13
16
17
13
11
10
9
11
16
24
21
10
5
7
2
34
50
14
27
20
13
13
10
16
37
51
28
4
7
7
55
63
43
72
23
16
45
66
47
16
11
3
5
3
2
1
1
1
2
3
2
5
4
6
21
29
38
36
18
7
5
6
7
7
9
9
6
3
4
4
7
11
9
31
49
29
14
5
2
0
9
22
36
29
15
15
5
9
20
26
7
14
13
13
15
12
6
35
7
30
35
21
5
11
9
33
24
27
22
43
32
4
74
85
42
17
54
90
30
10
25
16
11
21
12
6
5
6
5
6
5
3
5
5
3
5
9
18
8
6
8
13
7
18
42
42
29
39
8
10
14
36
54
22
7
11
2
15
20
66
17
61
49
41
63
23
10
4
3
3
2
0
0
1
2
1
2
2
3
6
3
30
35
12
1
1
6
7
3
1
1
2
1
1
0
3
3
4
8
11
10
37
52
30
13
4
2
1
8
22
34
23
7
18
12
7
17
15
14
5
28
4
20
17
6
26
5
19
41
23
7
12
10
23
31
22
25
35
8
39
86
57
18
41
88
58
7
9
26
18
11
20
10
5
5
6
5
5
4
3
4
3
2
2
8
19
12
2
18
13
15
20
45
45
29
31
7
9
21
50
45
7
10
10
0
12
11
66
32
55
47
52
56
14
7
1
3
2
1
0
0
1
2
2
3
2
4
6
11
36
27
5
1
5
8
4
1
1
2
3
1
1
0
3
2
2
6
7
5
35
46
25
12
4
2
1
8
22
34
30
7
12
9
4
15
13
10
4
29
15
14
22
14
20
15
6
41
27
10
8
21
5
30
19
24
14
7
45
69
32
17
82
74
14
3
7
28
19
7
17
9
6
4
5
5
4
3
3
3
2
1
1
6
15
12
7
11
5
2
13
37
33
15
18
7
8
27
48
28
1
10
10
3
10
3
61
38
52
37
49
43
8
6
0
3
1
0
0
0
1
2
2
1
1
3
4
15
33
18
2
1
7
6
1
1
2
2
1
1
1
1
1
1
2
5
4
2
29
39
21
11
4
1
1
7
21
35
29
1
11
10
2
13
10
8
2
23
19
10
22
14
16
17
1
42
26
11
7
17
9
35
10
28
8
0
38
57
27
16
72
45
3
1
6
27
16
3
14
8
5
4
5
5
4
2
2
3
2
1
0
5
11
11
8
7
3
3
7
31
25
6
15
8
7
26
41
20
1
9
8
2
9
0
56
39
50
29
41
33
6
5
1
3
1
0
0
0
1
2
1
0
1
3
4
15
30
14
1
1
5
3
0
0
1
1
0
0
1
1
1
1
2
5
4
2
29
39
21
11
4
1
1
7
21
35
29
1
11
10
2
13
10
8
2
23
19
10
22
14
16
17
1
42
26
11
7
17
9
35
10
28
8
0
38
57
27
16
72
45
3
1
6
27
16
3
14
8
5
4
5
5
4
2
2
3
2
1
0
5
11
11
8
7
3
3
7
31
25
6
15
8
7
26
41
20
1
9
8
2
9
0
56
39
50
29
41
33
6
5
1
3
1
0
0
0
1
2
1
0
1
3
4
15
30
14
1
1
5
3
0
0
1
1
0
0
1
1
1
1
2
5
4
2
29
39
21
11
4
1
1
7
21
35
29
1
11
10
2
13
10
8
2
23
19
10
22
14
16
17
1
42
26
11
7
17
9
35
10
28
8
0
38
57
27
16
72
45
3
1
6
27
16
3
14
8
5
4
5
5
4
2
2
3
2
1
0
5
11
11
8
7
3
3
7
31
25
6
15
8
7
26
41
20
1
9
8
2
9
0
56
39
50
29
41
33
6
5
1
3
1
0
0
0
1
2
1
0
1
3
4
15
30
14
1
1
5
3
0
0
1
1
0
0
1
1
1
1
2
5
4
2
29
39
21
11
4
1
1
7
21
35
29
1
11
10
2
13
10
8
2
23
19
10
22
14
16
17
1
42
26
11
7
17
9
35
10
28
8
0
38
57
27
16
72
45
3
1
6
27
16
3
14
8
5
4
5
5
4
2
2
3
2
1
0
5
11
11
8
7
3
3
7
31
25
6
15
8
7
26
41
20
1
9
8
2
9
0
56
39
50
29
41
33
6
5
1
3
1
0
0
0
1
2
1
0
1
3
4
15
30
14
1
1
5
3
0
0
1
1
0
0
1
1
11
10
8
8
5
8
36
43
23
12
5
2
2
8
21
35
28
10
16
12
8
19
22
20
14
23
19
21
10
25
12
21
19
31
37
26
29
39
51
95
51
69
36
34
26
69
78
68
91
38
12
9
6
27
22
7
19
14
6
4
7
9
8
5
5
9
24
28
28
24
24
20
16
11
1
4
5
33
46
25
27
39
50
56
50
17
8
15
13
7
10
3
56
62
32
49
59
37
8
4
2
3
2
1
1
1
2
3
2
1
4
7
1
29
40
21
8
7
8
4
1
2
3
2
1
2
3
3
4
5
6
2
3
18
35
33
17
10
5
4
2
8
22
35
29
19
1
7
10
34
22
13
14
4
2
4
32
21
23
12
10
17
9
18
18
44
49
39
33
62
9
11
59
36
11
9
10
5
9
1
11
14
25
6
17
22
11
4
4
6
6
3
3
11
16
9
13
16
13
9
8
6
11
13
13
17
8
5
17
63
42
2
1
4
8
11
7
9
5
12
9
55
26
9
10
6
5
2
2
1
2
1
1
0
0
2
1
2
4
7
16
38
25
10
4
1
1
0
1
2
2
1
0
0
0
0
1
3
4
1
6
20
32
30
17
9
4
3
1
9
22
34
23
9
6
20
6
37
19
11
9
14
9
9
40
7
24
4
9
2
11
6
39
21
27
34
62
25
4
51
52
9
3
6
3
4
7
2
10
8
23
6
17
25
14
7
5
7
8
9
4
11
26
25
14
9
10
13
23
33
36
33
34
32
20
8
48
63
17
0
1
6
7
10
9
12
5
10
1
52
38
5
5
5
3
2
2
1
2
2
3
1
0
1
1
2
6
7
19
40
25
8
1
1
1
1
2
2
2
0
1
2
2
2
0
2
3
1
9
19
27
29
17
10
4
2
0
8
21
25
24
29
20
19
20
28
8
19
18
18
14
5
36
5
29
21
1
18
6
28
39
9
23
15
44
14
27
64
21
3
2
5
1
3
7
4
7
3
20
5
13
23
12
6
4
5
7
9
6
1
10
14
9
5
6
11
21
22
15
11
16
16
4
21
60
39
4
1
1
7
7
12
10
11
2
7
3
53
40
3
2
4
3
2
2
2
1
1
2
1
1
0
0
3
6
6
21
40
21
4
1
1
1
1
1
1
1
0
1
2
2
2
0
2
3
1
8
20
27
28
16
10
5
2
0
7
19
18
30
23
26
14
20
20
2
12
22
18
14
0
33
9
25
20
1
18
4
31
24
2
17
6
23
22
38
53
3
2
3
4
0
1
7
5
6
1
17
2
8
19
9
4
3
3
4
7
6
1
5
10
4
0
1
9
17
12
2
2
14
14
2
24
50
24
4
2
1
5
5
14
9
10
1
6
4
53
39
2
1
3
2
1
1
1
0
1
1
1
2
0
0
3
6
5
22
39
19
2
1
0
0
0
0
1
0
1
1
1
1
0
0
2
3
1
8
20
27
28
16
10
5
2
0
7
19
18
30
23
26
14
20
20
2
12
22
18
14
0
33
9
25
20
1
18
4
31
24
2
17
6
23
22
38
53
3
2
3
4
0
1
7
5
6
1
17
2
8
19
9
4
3
3
4
7
6
1
5
10
4
0
1
9
17
12
2
2
14
14
2
24
50
24
4
2
1
5
5
14
9
10
1
6
4
53
39
2
1
3
2
1
1
1
0
1
1
1
2
0
0
3
6
5
22
39
19
2
1
0
0
0
0
1
0
1
1
1
1
0
0
2
3
1
8
20
27
28
16
10
5
2
0
7
19
18
30
23
26
14
20
20
2
12
22
18
14
0
33
9
25
20
1
18
4
31
24
2
17
6
23
22
38
53
3
2
3
4
0
1
7
5
6
1
17
2
8
19
9
4
3
3
4
7
6
1
5
10
4
0
1
9
17
12
2
2
14
14
2
24
50
24
4
2
1
5
5
14
9
10
1
6
4
53
39
2
1
3
2
1
1
1
0
1
1
1
2
0
0
3
6
5
22
39
19
2
1
0
0
0
0
1
0
1
1
1
1
0
0
2
3
1
8
20
27
28
16
10
5
2
0
7
19
18
30
23
26
14
20
20
2
12
22
18
14
0
33
9
25
20
1
18
4
31
24
2
17
6
23
22
38
53
3
2
3
4
0
1
7
5
6
1
17
2
8
19
9
4
3
3
4
7
6
1
5
10
4
0
1
9
17
12
2
2
14
14
2
24
50
24
4
2
1
5
5
14
9
10
1
6
4
53
39
2
1
3
2
1
1
1
0
1
1
1
2
0
0
3
6
5
22
39
19
2
1
0
0
0
0
1
0
1
1
1
1
0
4
6
9
6
11
24
28
27
19
12
6
3
1
7
20
29
44
23
25
25
41
21
2
18
16
15
17
16
34
17
27
22
7
27
26
40
17
19
35
49
59
58
66
53
2
7
6
6
2
2
6
9
8
2
17
11
18
33
30
30
37
37
31
26
21
14
8
7
10
13
18
25
23
11
3
7
27
45
44
55
57
19
10
7
7
6
12
22
11
12
7
11
11
52
43
6
2
6
5
3
3
2
1
1
1
2
4
3
4
8
11
5
33
50
23
2
1
0
1
1
0
1
3
7
13
25
43
53
2
1
2
12
29
26
22
23
18
13
5
2
2
7
22
41
30
18
21
32
11
18
10
13
8
7
14
39
33
40
18
31
29
10
2
11
12
35
31
36
20
4
1
3
10
9
3
2
3
0
2
1
5
3
2
3
0
4
3
12
7
26
33
32
28
25
21
17
14
14
14
9
3
6
11
19
30
58
33
5
2
2
6
1
6
0
19
18
3
5
5
6
13
46
49
14
18
18
15
9
6
4
2
1
1
3
4
4
3
6
10
8
51
44
4
6
2
0
1
2
6
8
14
32
60
86
98
87
2
2
3
7
25
28
29
32
21
12
4
2
3
9
25
35
33
36
14
39
18
16
10
5
1
10
9
36
41
23
38
6
32
25
11
20
8
17
17
46
57
17
3
6
12
11
4
2
6
3
1
2
4
7
4
2
2
5
8
10
20
31
29
23
19
15
10
7
8
7
7
9
4
4
4
13
34
68
57
18
3
1
5
3
7
1
18
17
1
6
3
4
10
47
43
23
27
18
22
18
16
14
13
10
5
3
3
4
4
8
11
19
56
34
2
7
2
1
3
5
11
24
53
88
103
91
58
29
4
4
5
4
21
22
25
34
23
13
4
0
2
8
25
27
26
23
21
30
22
12
2
3
3
8
6
32
45
3
35
15
24
26
4
15
18
31
16
11
62
38
2
10
10
11
4
3
7
2
0
2
1
5
5
3
3
2
13
11
22
33
33
31
29
22
15
12
12
11
5
3
3
3
8
17
30
64
69
38
9
1
3
3
5
3
17
17
2
5
2
4
6
45
37
25
22
7
13
13
11
11
13
12
8
2
3
4
5
8
9
26
53
23
3
4
1
1
2
4
13
31
66
86
61
24
5
14
0
4
5
3
18
17
20
31
22
13
4
0
1
7
24
19
18
18
26
17
23
10
0
3
3
8
6
30
42
2
28
23
13
25
3
9
14
27
0
23
43
40
0
10
11
12
4
3
7
2
0
2
0
4
3
1
2
0
11
13
15
16
11
7
5
2
0
2
6
7
2
1
3
3
4
7
2
29
46
33
10
1
1
1
2
3
16
16
2
4
2
4
5
43
34
22
17
0
4
4
2
2
4
6
5
1
2
2
4
7
7
28
49
17
3
2
0
0
1
2
11
25
51
54
19
2
11
8
0
4
5
3
18
17
20
31
22
13
4
0
1
7
24
19
18
18
26
17
23
10
0
3
3
8
6
30
42
2
28
23
13
25
3
9
14
27
0
23
43
40
0
10
11
12
4
3
7
2
0
2
0
4
3
1
2
0
11
13
15
16
11
7
5
2
0
2
6
7
2
1
3
3
4
7
2
29
46
33
10
1
1
1
2
3
16
16
2
4
2
4
5
43
34
22
17
0
4
4
2
2
4
6
5
1
2
2
4
7
7
28
49
17
3
2
0
0
1
2
11
25
51
54
19
2
11
8
0
4
5
3
18
17
20
31
22
13
4
0
1
7
24
19
18
18
26
17
23
10
0
3
3
8
6
30
42
2
28
23
13
25
3
9
14
27
0
23
43
40
0
10
11
12
4
3
7
2
0
2
0
4
3
1
2
0
11
13
15
16
11
7
5
2
0
2
6
7
2
1
3
3
4
7
2
29
46
33
10
1
1
1
2
3
16
16
2
4
2
4
5
43
34
22
17
0
4
4
2
2
4
6
5
1
2
2
4
7
7
28
49
17
3
2
0
0
1
2
11
25
51
54
19
2
11
8
0
4
5
3
18
17
20
31
22
13
4
0
1
7
24
19
18
18
26
17
23
10
0
3
3
8
6
30
42
2
28
23
13
25
3
9
14
27
0
23
43
40
0
10
11
12
4
3
7
2
0
2
0
4
3
1
2
0
11
13
15
16
11
7
5
2
0
2
6
7
2
1
3
3
4
7
2
29
46
33
10
1
1
1
2
3
16
16
2
4
2
4
5
43
34
22
17
0
4
4
2
2
4
6
5
1
2
2
4
7
7
28
49
17
3
2
0
0
1
2
11
25
51
54
19
2
11
8
36
43
52
53
47
14
22
50
37
18
5
1
1
8
24
27
16
39
54
32
24
11
2
5
4
7
12
19
54
36
39
17
7
32
22
25
28
19
12
20
40
52
35
29
16
17
0
8
12
3
2
4
6
4
6
8
14
17
9
16
22
19
8
9
7
2
0
2
6
10
8
6
5
4
4
8
0
30
64
76
71
71
75
75
79
82
72
39
16
18
11
12
3
51
30
18
26
17
17
15
11
9
8
5
6
6
10
10
7
7
6
45
55
16
2
3
13
43
67
64
62
63
61
44
41
28
29
24
41
38
11
15
42
58
17
40
43
23
7
2
2
8
11
6
40
70
37
5
4
9
1
4
13
13
7
11
14
11
16
18
10
4
10
16
19
24
17
10
28
10
9
7
44
39
15
7
9
4
2
8
0
7
8
11
24
14
31
16
31
11
4
9
10
5
1
0
0
1
5
7
6
6
7
8
8
7
8
8
8
7
7
5
4
9
66
116
75
4
14
12
30
47
11
4
0
2
1
0
2
3
4
5
6
6
8
6
11
8
23
61
38
5
0
9
38
78
57
8
21
6
12
15
5
8
2
8
53
60
31
10
32
61
27
40
45
23
6
1
1
8
13
13
42
62
25
4
8
5
5
8
5
25
13
27
5
9
6
13
4
9
12
9
16
22
20
12
16
30
23
29
45
53
18
12
9
7
3
10
1
9
7
17
29
8
35
11
35
14
11
8
4
3
1
0
0
2
4
5
6
7
6
7
7
6
7
7
6
6
7
5
4
5
12
83
122
48
8
12
41
46
7
4
1
2
0
1
2
2
2
3
4
4
4
2
9
11
34
53
24
2
1
16
58
76
26
13
10
9
12
0
11
5
6
6
35
59
41
10
21
56
32
39
48
21
6
0
0
7
16
12
35
55
19
4
13
3
8
2
2
31
4
27
9
14
5
3
14
5
12
4
9
18
16
25
1
50
18
58
36
63
13
13
8
8
0
10
2
10
3
19
31
4
35
6
35
20
10
2
1
3
2
1
1
2
4
4
4
5
4
5
5
5
5
6
5
5
6
4
4
4
5
29
107
74
0
7
45
46
4
5
1
1
1
2
2
2
1
2
3
3
3
0
8
15
32
39
14
1
2
20
63
58
5
8
6
10
4
9
9
4
5
1
21
50
42
10
16
52
33
37
48
21
6
0
0
7
16
10
30
52
19
4
13
0
9
1
2
29
0
27
8
13
6
1
16
3
5
2
3
12
9
24
3
54
11
60
31
63
12
13
7
8
0
11
1
9
2
20
30
2
35
3
36
19
7
1
1
3
3
0
0
1
4
4
4
4
4
3
4
4
5
6
5
5
5
4
3
3
5
6
82
73
2
5
46
45
3
5
2
1
0
1
2
1
0
1
3
3
3
1
9
14
24
29
10
0
3
20
58
45
0
6
5
8
0
10
4
6
3
0
21
50
42
10
16
52
33
37
48
21
6
0
0
7
16
10
30
52
19
4
13
0
9
1
2
29
0
27
8
13
6
1
16
3
5
2
3
12
9
24
3
54
11
60
31
63
12
13
7
8
0
11
1
9
2
20
30
2
35
3
36
19
7
1
1
3
3
0
0
1
4
4
4
4
4
3
4
4
5
6
5
5
5
4
3
3
5
6
82
73
2
5
46
45
3
5
2
1
0
1
2
1
0
1
3
3
3
1
9
14
24
29
10
0
3
20
58
45
0
6
5
8
0
10
4
6
3
0
21
50
42
10
16
52
33
37
48
21
6
0
0
7
16
10
30
52
19
4
13
0
9
1
2
29
0
27
8
13
6
1
16
3
5
2
3
12
9
24
3
54
11
60
31
63
12
13
7
8
0
11
1
9
2
20
30
2
35
3
36
19
7
1
1
3
3
0
0
1
4
4
4
4
4
3
4
4
5
6
5
5
5
4
3
3
5
6
82
73
2
5
46
45
3
5
2
1
0
1
2
1
0
1
3
3
3
1
9
14
24
29
10
0
3
20
58
45
0
6
5
8
0
10
4
6
3
0
21
50
42
10
16
52
33
37
48
21
6
0
0
7
16
10
30
52
19
4
13
0
9
1
2
29
0
27
8
13
6
1
16
3
5
2
3
12
9
24
3
54
11
60
31
63
12
13
7
8
0
11
1
9
2
20
30
2
35
3
36
19
7
1
1
3
3
0
0
1
4
4
4
4
4
3
4
4
5
6
5
5
5
4
3
3
5
6
82
73
2
5
46
45
3
5
2
1
0
1
2
1
0
1
3
3
3
1
9
14
24
29
10
0
3
20
58
45
0
6
5
8
0
10
4
6
3
0
25
64
64
23
17
59
42
37
54
23
6
0
0
7
17
13
40
55
16
4
12
5
8
2
5
25
9
27
8
9
10
8
23
17
12
22
23
23
14
18
17
64
19
68
48
45
38
35
29
27
9
8
5
8
28
44
41
13
37
16
43
23
8
3
3
4
2
2
3
4
6
7
8
8
8
8
9
10
10
11
10
9
9
7
6
6
8
5
83
116
82
50
61
47
5
5
3
2
2
3
2
1
2
5
7
4
13
36
46
41
43
35
4
28
46
59
73
39
8
11
4
9
8
7
6
4
7
6
4
35
66
41
4
51
51
26
55
27
6
2
3
7
17
22
45
38
6
2
2
3
6
2
8
18
14
11
3
2
7
2
4
15
3
18
26
35
24
11
16
20
27
36
39
26
15
1
4
16
13
4
10
29
35
22
4
24
24
21
32
14
5
4
3
0
2
3
0
2
3
3
4
5
5
4
4
6
6
7
10
9
7
6
6
4
4
4
4
2
85
79
50
24
3
1
3
1
2
1
0
2
4
4
3
4
30
42
14
5
7
3
22
52
47
19
9
4
5
6
15
5
7
2
6
6
4
5
4
28
65
48
2
47
53
24
52
28
8
0
0
5
15
22
49
41
6
4
4
12
10
6
5
12
9
8
1
3
7
3
8
13
4
13
28
31
11
13
12
24
41
22
11
14
27
26
24
20
17
1
20
32
28
15
1
33
20
28
27
12
5
4
2
0
1
3
1
2
2
3
4
4
4
4
4
5
5
6
9
10
8
6
6
5
4
4
3
2
59
79
28
16
5
3
2
1
3
3
2
2
4
4
3
6
23
48
33
15
12
1
30
53
37
13
12
6
4
12
9
8
6
5
6
2
2
2
1
22
59
48
3
42
50
18
50
28
8
0
1
6
15
18
48
46
10
4
10
19
8
11
5
8
5
3
2
4
4
4
13
8
8
3
17
30
8
17
16
14
23
34
23
6
3
3
5
9
11
3
22
27
21
10
4
34
12
30
20
9
4
2
0
0
1
2
1
0
1
3
4
4
3
4
4
4
5
5
7
9
8
6
5
4
4
3
2
2
33
63
17
11
4
5
1
1
2
2
2
3
4
3
2
4
11
32
33
24
16
2
32
49
28
10
11
3
2
12
5
13
2
8
3
1
1
1
1
19
56
46
3
39
47
15
49
28
8
0
0
5
14
14
41
43
12
2
10
15
5
15
4
7
4
1
1
3
2
3
11
3
9
2
16
29
0
19
9
20
5
26
17
7
1
2
2
1
2
5
20
23
17
8
3
31
8
31
18
7
2
1
0
1
1
1
0
0
0
2
4
4
2
3
3
4
4
4
6
8
7
5
4
3
3
3
2
1
20
47
16
7
0
3
1
1
1
1
1
3
3
2
1
2
4
15
19
20
17
2
31
44
23
7
7
0
2
10
7
12
3
7
0
2
1
1
1
19
56
46
3
39
47
15
49
28
8
0
0
5
14
14
41
43
12
2
10
15
5
15
4
7
4
1
1
3
2
3
11
3
9
2
16
29
0
19
9
20
5
26
17
7
1
2
2
1
2
5
20
23
17
8
3
31
8
31
18
7
2
1
0
1
1
1
0
0
0
2
4
4
2
3
3
4
4
4
6
8
7
5
4
3
3
3
2
1
20
47
16
7
0
3
1
1
1
1
1
3
3
2
1
2
4
15
19
20
17
2
31
44
23
7
7
0
2
10
7
12
3
7
0
2
1
1
1
19
56
46
3
39
47
15
49
28
8
0
0
5
14
14
41
43
12
2
10
15
5
15
4
7
4
1
1
3
2
3
11
3
9
2
16
29
0
19
9
20
5
26
17
7
1
2
2
1
2
5
20
23
17
8
3
31
8
31
18
7
2
1
0
1
1
1
0
0
0
2
4
4
2
3
3
4
4
4
6
8
7
5
4
3
3
3
2
1
20
47
16
7
0
3
1
1
1
1
1
3
3
2
1
2
4
15
19
20
17
2
31
44
23
7
7
0
2
10
7
12
3
7
0
2
1
1
1
19
56
46
3
39
47
15
49
28
8
0
0
5
14
14
41
43
12
2
10
15
5
15
4
7
4
1
1
3
2
3
11
3
9
2
16
29
0
19
9
20
5
26
17
7
1
2
2
1
2
5
20
23
17
8
3
31
8
31
18
7
2
1
0
1
1
1
0
0
0
2
4
4
2
3
3
4
4
4
6
8
7
5
4
3
3
3
2
1
20
47
16
7
0
3
1
1
1
1
1
3
3
2
1
2
4
15
19
20
17
2
31
44
23
7
7
0
2
10
7
12
3
7
0
2
1
1
26
35
55
47
11
47
68
18
46
32
11
1
1
6
17
24
43
41
14
3
11
15
13
14
3
7
2
3
4
1
7
5
13
9
13
14
27
40
6
26
17
12
33
42
26
13
7
9
4
11
21
34
41
22
18
35
23
25
28
42
22
8
2
1
0
1
2
4
3
2
1
2
5
7
7
8
8
9
9
9
12
14
14
14
12
9
7
6
4
3
18
56
50
18
20
24
19
21
26
31
36
44
49
43
41
30
25
26
32
18
22
70
90
77
42
20
9
2
4
11
8
16
1
9
5
9
17
17
17
21
40
48
24
15
56
25
37
31
12
3
4
3
27
31
26
35
13
3
1
4
3
1
0
5
6
4
0
7
9
3
7
8
4
3
32
54
32
8
14
32
28
1
2
3
2
6
20
31
33
21
6
40
43
9
51
35
9
2
2
1
0
1
1
2
0
1
2
3
2
1
1
1
2
4
5
5
6
5
6
8
9
10
11
9
8
6
4
3
3
3
42
80
27
9
2
10
14
18
22
24
20
15
68
68
4
13
13
34
94
91
34
5
6
8
19
9
14
16
4
13
15
4
16
16
11
7
7
16
30
38
22
10
47
26
32
31
12
3
4
2
30
31
28
37
14
3
2
2
4
4
2
3
8
7
3
6
17
8
13
12
5
6
11
23
32
18
32
41
22
1
1
4
2
17
28
29
16
15
42
37
8
47
39
14
4
2
2
1
0
1
0
2
0
0
1
3
2
2
2
1
0
3
4
4
5
6
6
6
7
10
11
11
10
8
6
4
2
2
22
79
48
11
5
3
8
11
17
22
24
24
67
64
11
15
37
82
94
46
1
9
11
21
15
9
19
6
12
20
8
11
18
16
5
2
14
20
21
29
21
10
41
23
28
31
13
3
3
2
30
29
28
36
11
2
2
3
4
2
5
0
17
8
6
10
16
11
17
9
8
5
3
18
22
8
30
23
13
0
3
5
4
20
27
19
3
34
36
12
37
34
16
6
3
2
1
1
1
1
1
2
0
0
0
1
1
2
1
0
1
2
4
3
4
5
5
4
4
6
10
9
8
8
6
4
3
2
7
68
58
6
6
2
4
6
10
13
12
16
54
63
15
31
62
70
45
5
10
6
15
19
2
16
12
5
17
16
3
12
16
13
3
0
14
20
16
27
20
8
40
22
27
30
12
3
3
3
30
29
27
33
8
2
1
1
2
1
5
1
17
2
3
7
13
12
18
4
5
2
1
17
16
13
16
12
14
0
3
4
5
19
21
11
6
24
11
22
27
15
8
4
3
2
1
1
1
0
0
2
0
0
0
1
0
0
0
1
1
2
3
2
3
5
4
5
3
4
7
7
6
6
5
4
3
2
1
60
57
4
4
0
3
4
6
6
1
5
42
58
13
33
51
39
17
3
5
3
13
13
3
15
7
7
15
11
4
11
14
10
2
1
14
20
16
27
20
8
40
22
27
30
12
3
3
3
30
29
27
33
8
2
1
1
2
1
5
1
17
2
3
7
13
12
18
4
5
2
1
17
16
13
16
12
14
0
3
4
5
19
21
11
6
24
11
22
27
15
8
4
3
2
1
1
1
0
0
2
0
0
0
1
0
0
0
1
1
2
3
2
3
5
4
5
3
4
7
7
6
6
5
4
3
2
1
60
57
4
4
0
3
4
6
6
1
5
42
58
13
33
51
39
17
3
5
3
13
13
3
15
7
7
15
11
4
11
14
10
2
1
14
20
16
27
20
8
40
22
27
30
12
3
3
3
30
29
27
33
8
2
1
1
2
1
5
1
17
2
3
7
13
12
18
4
5
2
1
17
16
13
16
12
14
0
3
4
5
19
21
11
6
24
11
22
27
15
8
4
3
2
1
1
1
0
0
2
0
0
0
1
0
0
0
1
1
2
3
2
3
5
4
5
3
4
7
7
6
6
5
4
3
2
1
60
57
4
4
0
3
4
6
6
1
5
42
58
13
33
51
39
17
3
5
3
13
13
3
15
7
7
15
11
4
11
14
10
2
1
14
20
16
27
20
8
40
22
27
30
12
3
3
3
30
29
27
33
8
2
1
1
2
1
5
1
17
2
3
7
13
12
18
4
5
2
1
17
16
13
16
12
14
0
3
4
5
19
21
11
6
24
11
22
27
15
8
4
3
2
1
1
1
0
0
2
0
0
0
1
0
0
0
1
1
2
3
2
3
5
4
5
3
4
7
7
6
6
5
4
3
2
1
60
57
4
4
0
3
4
6
6
1
5
42
58
13
33
51
39
17
3
5
3
13
13
3
15
7
7
15
11
4
11
14
10
2
1
14
20
16
27
20
8
40
22
27
30
12
3
3
3
30
29
27
33
8
2
1
1
2
1
5
1
17
2
3
7
13
12
18
4
5
2
1
17
16
13
16
12
14
0
3
4
5
19
21
11
6
24
11
22
27
15
8
4
3
2
1
1
1
0
0
2
0
0
0
1
0
0
0
1
1
2
3
2
3
5
4
5
3
4
7
7
6
6
5
4
3
2
1
60
57
4
4
0
3
4
6
6
1
5
42
58
13
33
51
39
17
3
5
3
13
13
3
15
7
7
15
11
4
11
14
10
2
1
1
4
17
68
62
7
18
41
8
27
15
5
2
4
42
61
32
8
3
5
8
5
3
1
2
21
11
20
1
12
3
16
3
9
9
24
5
15
10
10
23
13
17
26
22
17
14
11
6
5
4
2
3
1
0
1
1
2
0
0
3
1
1
1
4
3
1
1
2
0
0
1
1
1
1
0
0
1
1
3
2
3
5
2
3
5
7
8
6
5
6
5
3
3
31
71
40
1
7
10
11
10
6
6
6
9
12
9
17
18
11
12
5
5
3
4
17
25
11
11
30
31
21
6
9
21
24
15
