P2
128 128
255
1
80
37
59
47
53
50
52
54
56
58
57
53
45
35
29
32
34
35
36
34
35
35
36
34
38
39
40
42
42
42
44
42
46
41
44
44
42
46
42
46
44
44
45
43
45
42
46
44
44
44
45
43
43
44
44
44
43
43
45
44
43
44
45
41
45
42
43
43
42
43
43
42
43
42
39
40
37
34
39
45
49
51
54
51
50
52
50
51
52
50
51
51
51
51
52
51
53
50
54
70
69
74
70
50
32
39
38
40
40
40
42
38
42
40
42
41
41
40
42
41
42
41
39
42
52
41
49
53
52
51
52
51
51
51
52
55
57
57
56
52
43
35
29
31
33
35
33
35
34
36
34
35
38
39
40
42
41
42
44
42
44
42
44
43
43
44
43
45
44
44
44
43
44
44
45
43
44
43
44
42
43
43
43
44
42
44
43
44
43
43
44
42
44
43
42
43
41
43
42
43
43
41
41
40
36
36
36
42
46
50
52
52
51
52
51
53
52
51
52
51
51
52
51
52
52
50
51
63
65
73
71
61
40
42
35
40
39
40
41
39
41
40
41
40
41
41
42
42
42
42
42
38
28
34
68
48
55
50
53
51
51
52
53
57
57
56
55
50
43
36
28
31
34
34
36
35
35
34
34
35
37
39
40
41
41
42
42
43
43
43
44
43
43
44
43
44
44
44
44
43
44
44
43
44
44
43
44
44
43
43
44
43
42
44
44
45
43
44
44
43
44
43
43
43
41
43
41
42
43
42
41
39
38
36
36
39
44
49
52
53
52
53
53
53
54
53
52
51
52
51
52
50
51
50
51
54
66
69
73
69
51
41
37
38
39
40
39
41
40
41
40
41
41
41
42
42
42
45
35
16
10
16
71
48
54
51
53
51
51
53
56
56
56
54
54
50
43
36
28
31
33
34
35
35
35
34
35
34
38
38
41
41
41
42
42
43
43
44
43
43
44
44
42
46
43
45
44
44
44
44
43
45
44
44
44
44
43
44
43
44
42
44
45
45
43
44
43
44
44
42
43
43
42
43
41
46
41
43
41
40
37
39
35
36
43
47
51
53
53
54
53
54
55
53
52
52
53
51
51
51
51
50
51
49
61
65
73
72
64
43
42
33
41
38
41
40
41
41
41
42
41
42
44
43
45
34
18
14
13
18
68
49
54
52
52
52
51
54
56
55
55
54
53
50
45
36
29
32
33
34
37
34
34
34
34
35
38
38
40
40
41
42
42
43
43
43
43
44
42
44
43
44
44
44
44
42
44
43
44
44
43
44
43
43
43
42
44
43
42
43
44
44
44
44
43
43
44
42
44
42
41
43
42
43
42
43
41
40
39
39
35
34
41
46
50
53
54
54
53
54
54
53
52
53
51
52
51
51
50
51
50
50
51
66
67
74
71
56
39
40
36
40
39
40
41
40
41
42
42
44
45
45
34
14
8
19
15
17
70
47
56
51
53
52
52
56
56
55
55
52
53
51
45
36
26
31
32
35
35
34
35
34
35
35
38
37
41
40
41
42
43
42
43
43
43
42
43
43
43
43
43
44
43
43
43
44
45
43
43
42
42
42
42
43
42
42
42
43
43
43
44
43
44
43
44
41
43
41
42
42
42
43
42
43
41
41
40
37
35
35
39
47
49
53
54
54
53
54
53
52
53
51
53
51
52
50
52
50
50
50
48
59
65
73
72
68
45
43
34
41
39
42
40
41
40
42
41
45
45
34
15
8
17
14
16
18
70
46
57
50
55
52
55
57
56
55
52
52
54
52
44
35
28
30
34
35
35
35
35
34
35
36
36
39
40
40
41
42
42
41
44
42
42
43
43
43
43
43
44
44
42
43
43
44
45
43
43
41
41
40
42
42
42
41
42
41
43
43
43
43
44
43
42
42
43
42
42
42
42
42
42
43
41
41
39
37
37
35
41
45
50
52
53
53
54
52
53
52
53
51
52
51
52
51
52
51
51
49
49
50
65
67
74
72
61
40
42
36
41
39
42
39
41
42
43
45
33
16
14
13
16
16
17
19
61
89
86
80
83
82
84
86
87
86
83
82
84
83
75
65
53
48
50
52
54
54
54
54
54
55
56
58
61
62
63
64
65
65
66
66
66
67
67
66
67
68
67
68
67
67
66
68
69
68
67
65
64
64
64
66
65
65
64
65
66
66
66
68
67
68
67
66
66
66
66
65
65
65
66
66
66
63
62
61
58
57
60
66
71
77
80
82
83
82
82
82
82
82
81
81
81
80
81
81
79
78
77
75
88
101
103
109
109
74
52
57
62
62
61
62
63
64
66
68
45
24
19
24
22
25
25
28
1
1
41
32
34
35
36
35
34
33
31
31
33
31
22
12
8
15
24
23
22
22
21
21
21
21
24
25
25
26
25
27
26
26
26
26
25
26
27
27
27
27
27
27
26
26
26
26
29
27
26
24
24
24
24
26
26
25
26
27
28
28
26
27
27
25
25
25
26
25
25
25
25
25
26
26
25
23
22
22
21
20
24
33
35
36
36
35
35
32
32
32
32
31
31
31
31
31
32
30
30
30
29
28
35
62
68
55
42
40
28
24
20
31
28
25
27
29
24
27
36
30
6
16
13
12
11
11
14
102
85
82
87
86
84
83
83
83
83
84
83
81
74
63
50
47
49
51
53
53
53
53
53
53
56
58
60
62
61
63
63
65
64
66
65
65
65
66
66
66
66
66
66
67
67
66
66
65
66
66
66
65
64
63
62
62
62
61
62
64
65
67
67
67
66
66
66
66
66
65
66
66
65
66
65
64
62
61
60
58
59
63
68
73
75
77
79
81
81
81
80
80
81
80
81
81
81
80
79
77
77
76
72
70
85
104
115
116
100
94
64
53
58
62
66
57
34
16
13
16
28
29
25
25
24
23
80
72
56
67
66
63
60
60
60
63
63
63
63
61
54
43
33
34
38
41
40
42
41
40
40
41
43
46
48
47
48
49
49
49
50
49
49
50
50
50
50
50
51
51
51
51
50
50
51
51
49
50
52
52
53
58
63
62
61
59
54
49
47
48
48
48
49
50
50
51
50
50
50
49
50
50
48
48
45
45
44
43
44
49
54
57
58
59
60
60
61
61
60
60
60
60
61
60
60
58
57
57
56
55
56
57
70
81
86
87
84
61
56
38
48
48
41
17
14
17
23
26
25
21
21
19
18
18
62
67
72
76
73
69
65
65
67
71
72
71
72
70
63
52
41
39
42
44
45
47
45
46
46
47
50
50
52
53
54
54
56
56
56
56
57
57
57
57
57
56
57
57
58
57
56
56
58
61
63
65
66
67
72
77
77
77
78
78
76
76
71
61
55
53
55
54
56
58
57
56
56
56
56
55
55
54
52
51
50
48
49
54
60
63
63
64
65
67
69
68
68
68
68
68
68
67
67
65
65
63
63
63
63
62
64
79
92
98
98
90
80
57
51
46
27
20
20
21
22
23
24
24
21
19
20
21
67
71
70
72
68
61
57
58
63
69
69
69
70
67
59
48
36
36
40
42
44
43
43
44
44
45
47
49
51
52
51
53
53
53
53
53
55
54
54
54
54
53
54
54
54
54
54
57
62
64
63
61
63
70
71
71
75
76
76
74
76
78
75
76
74
64
52
49
53
53
53
53
54
53
53
52
51
50
49
48
48
45
47
52
58
61
61
61
63
63
65
65
64
64
63
64
63
63
62
61
60
60
59
59
60
59
60
67
81
92
94
94
73
67
41
25
19
16
20
21
24
23
22
21
19
21
20
19
65
71
73
72
65
58
53
57
67
71
71
71
71
68
61
49
37
36
39
42
43
43
43
43
45
46
48
49
51
52
52
53
54
53
53
55
55
54
55
55
54
54
57
60
59
56
55
62
61
62
60
64
65
67
67
71
73
74
75
74
77
78
82
84
83
78
72
60
50
52
54
54
53
53
53
53
51
50
48
49
47
45
48
53
59
62
62
63
63
64
65
65
65
64
64
63
63
62
63
62
62
60
60
60
60
60
61
60
74
88
96
97
94
77
70
43
14
22
22
23
23
22
22
20
22
21
19
20
67
74
73
67
60
50
45
58
67
70
71
70
70
68
61
49
37
34
39
40
42
42
42
43
44
44
47
48
50
50
51
52
52
52
53
53
54
54
53
54
55
60
63
58
54
51
54
58
57
56
60
62
63
66
68
70
70
74
75
77
78
80
79
80
82
84
82
74
66
53
49
50
51
52
52
51
51
49
48
47
45
44
47
53
59
62
63
62
62
63
63
64
65
64
63
61
61
62
62
61
61
61
60
60
60
61
61
60
64
80
92
97
96
64
60
29
11
23
22
23
22
21
19
22
22
19
20
22
45
53
53
41
39
31
32
39
42
46
47
47
48
44
38
31
26
28
26
26
28
28
29
29
30
30
32
33
33
34
35
34
34
35
35
36
36
36
36
36
38
43
37
35
35
35
38
38
38
39
41
42
43
43
45
45
48
49
51
51
53
53
53
55
56
56
54
49
33
24
23
28
35
36
32
33
33
32
32
31
30
30
34
37
39
40
41
41
42
43
43
43
42
42
40
42
42
42
42
41
42
41
41
41
40
41
41
41
46
61
58
57
53
16
12
6
10
15
14
15
15
13
13
16
13
12
13
22
14
4
39
27
24
19
32
43
42
38
35
32
32
30
23
13
4
12
22
22
21
20
20
20
21
22
23
24
25
25
25
26
27
26
26
26
25
25
24
33
21
36
36
29
27
24
27
30
25
27
29
31
35
37
38
37
37
37
38
38
38
38
39
39
39
40
41
39
40
47
49
36
18
27
31
28
26
24
22
21
21
19
23
31
35
35
32
31
30
28
30
32
34
35
30
26
28
28
30
28
28
28
27
29
29
30
30
29
30
42
70
65
51
88
74
24
9
14
12
11
9
9
12
10
10
11
14
5
16
107
79
65
47
37
51
64
75
84
86
86
85
81
74
63
54
41
45
47
51
52
52
51
52
52
54
56
58
58
59
60
61
61
63
64
64
65
70
62
55
58
54
58
63
64
67
66
67
71
70
68
70
70
73
78
83
86
89
92
95
95
99
99
99
101
102
101
101
101
97
83
81
62
48
52
56
57
56
55
56
54
54
61
70
76
78
79
77
75
71
67
65
69
75
77
75
75
77
75
75
74
74
75
75
75
76
76
78
76
72
35
6
24
12
8
28
26
25
23
26
29
26
24
29
33
21
29
94
67
46
39
28
33
44
56
64
67
66
65
64
61
54
42
29
28
35
38
40
39
39
39
40
40
42
43
45
46
45
46
47
47
48
48
48
52
53
40
44
43
47
48
48
49
49
49
53
52
53
54
55
56
58
60
62
66
71
73
73
74
74
74
76
77
76
75
75
77
80
89
80
81
80
52
37
43
39
40
41
38
41
49
57
61
61
61
60
58
52
45
44
50
56
57
57
57
58
56
56
56
56
57
56
57
58
59
60
60
34
37
19
20
21
28
23
18
18
19
23
19
18
23
29
18
19
61
73
56
56
38
37
38
47
60
68
72
74
74
72
69
61
49
39
35
39
42
43
43
44
44
45
45
47
49
50
51
50
53
54
54
54
53
55
58
48
47
49
51
53
51
54
55
53
57
55
58
60
58
59
61
63
64
70
75
80
82
82
82
82
84
84
82
83
87
91
93
95
94
97
100
72
79
46
43
45
45
45
43
47
53
62
66
68
68
68
66
59
48
41
46
57
64
65
64
65
64
64
63
64
64
64
65
65
67
68
49
37
17
14
21
23
21
20
20
21
25
22
19
24
31
30
24
54
78
64
57
40
31
37
37
46
58
66
70
72
70
69
65
58
46
34
33
38
40
42
42
42
43
43
43
45
46
48
49
49
51
50
51
52
52
54
49
43
47
49
50
51
51
52
50
51
52
55
58
58
58
57
60
58
64
67
71
76
76
78
80
78
75
76
83
89
90
89
88
88
88
89
92
94
80
71
32
42
41
41
40
43
50
59
64
65
65
65
63
57
43
30
32
49
58
61
62
62
61
60
61
60
61
61
61
63
65
55
37
24
11
23
23
23
23
20
19
23
21
19
24
30
32
29
48
71
64
57
47
33
38
40
37
46
58
66
71
72
71
71
67
59
48
36
34
39
41
42
43
43
45
43
44
46
47
49
49
50
51
53
52
53
54
51
44
47
49
50
50
52
51
49
50
53
55
56
59
59
59
60
61
62
65
65
71
75
77
78
75
72
81
91
93
89
87
88
89
88
89
89
92
94
84
84
69
30
41
41
41
44
51
60
65
67
66
66
64
59
46
41
22
42
53
62
63
63
62
62
62
62
63
62
63
66
62
36
31
17
21
24
23
23
21
18
24
23
19
23
28
31
34
48
69
64
60
53
37
36
41
37
37
45
58
66
69
72
71
70
66
58
46
35
34
39
42
42
43
42
43
42
44
46
46
48
50
50
51
51
52
53
52
45
47
49
49
49
51
49
48
48
53
55
55
58
60
60
61
63
60
60
61
65
70
75
72
69
74
88
91
88
86
88
87
86
86
86
89
91
91
93
97
77
83
59
31
38
38
42
51
60
65
66
66
65
65
59
47
43
21
34
48
58
62
63
62
61
61
61
62
62
64
66
44
38
14
18
22
23
23
22
18
22
25
19
21
24
28
36
48
65
65
59
64
39
13
30
25
25
27
35
40
42
46
48
47
47
43
37
30
25
28
28
26
28
28
29
29
29
30
31
32
33
33
34
35
35
35
35
33
30
33
33
33
34
33
32
31
32
34
35
37
39
40
41
42
42
39
40
42
45
48
48
44
41
52
58
58
58
60
59
58
57
58
59
62
61
62
64
60
54
26
12
22
11
27
32
33
40
42
43
44
44
42
37
32
17
17
30
31
31
34
37
40
42
42
42
42
42
44
41
13
1
7
14
13
15
15
14
12
16
14
13
15
15
21
27
27
37
40
38
36
12
15
19
19
18
16
27
39
41
37
36
33
31
28
20
12
5
11
23
24
22
20
20
20
21
21
22
23
25
25
23
24
25
27
25
21
23
22
23
23
25
24
24
25
30
32
29
30
32
28
29
29
30
29
30
32
34
41
38
41
51
54
46
43
42
43
43
41
41
42
42
42
43
43
45
47
47
38
55
63
46
3
35
34
39
37
33
31
31
30
24
9
8
7
18
46
54
49
39
29
27
28
29
30
32
30
24
45
39
7
16
15
12
9
9
11
13
9
11
12
17
29
54
54
44
32
37
41
38
41
50
47
48
47
53
65
74
81
84
86
85
82
74
63
52
43
45
47
49
51
52
52
52
52
54
56
58
59
61
61
63
70
59
52
57
59
58
59
59
59
61
63
66
66
70
73
70
71
74
72
69
67
69
68
75
83
97
103
97
95
95
99
99
100
103
105
105
106
106
107
107
107
107
106
108
112
111
89
101
76
34
55
66
75
78
80
79
80
73
62
58
40
16
19
28
50
66
74
75
73
74
76
78
59
42
12
9
23
29
26
27
25
27
28
23
27
27
27
39
65
70
62
68
80
85
82
61
33
38
35
35
34
42
54
62
65
65
65
63
61
54
41
30
29
35
37
38
39
39
39
39
40
42
43
45
46
45
43
57
59
36
41
44
44
43
44
46
46
49
49
51
54
57
53
51
56
54
53
50
47
48
59
77
80
78
74
75
77
74
75
75
78
81
80
81
80
80
80
81
80
81
80
82
83
85
92
62
74
42
44
55
60
61
60
61
59
54
42
31
26
15
20
26
38
47
56
60
58
56
59
51
32
24
14
27
25
21
21
21
19
23
18
21
22
17
26
55
67
57
58
66
67
64
64
50
36
42
39
40
37
45
58
67
71
73
72
73
70
62
51
40
35
39
41
42
43
44
45
44
46
48
48
50
50
49
49
78
59
45
49
47
49
49
50
51
53
55
56
59
61
60
58
60
61
59
55
53
54
71
87
84
80
81
82
81
79
83
87
88
88
88
90
90
90
89
90
89
89
91
92
91
93
94
96
96
86
71
34
63
64
67
68
68
68
62
49
43
32
16
19
16
30
63
92
92
84
88
81
64
48
17
22
23
22
23
25
23
23
22
23
25
20
23
50
71
61
59
68
71
70
69
70
51
33
40
37
38
36
43
56
64
69
70
69
69
66
58
47
34
31
36
38
39
41
40
40
41
44
44
45
46
47
44
55
83
48
41
44
46
48
48
48
50
50
54
56
58
57
56
56
57
56
48
48
56
73
83
78
75
75
77
77
77
80
82
83
82
82
83
83
84
83
83
85
86
86
87
87
87
89
88
91
94
70
77
34
61
61
65
65
65
65
58
47
38
29
14
18
26
69
103
89
85
92
97
87
89
65
21
22
24
24
23
23
22
22
21
24
21
19
39
68
63
58
66
72
68
67
67
67
52
34
41
40
40
38
43
56
65
70
71
71
70
67
60
47
37
31
35
38
42
42
42
42
43
43
45
46
47
48
45
70
80
58
42
47
46
49
49
50
51
52
57
55
55
51
55
58
56
50
49
62
79
81
72
72
76
76
76
77
81
80
82
82
83
84
83
82
83
85
87
89
87
86
86
87
89
88
88
89
93
94
87
60
52
65
66
67
67
65
60
47
40
29
13
37
79
103
79
84
97
96
96
97
82
76
37
18
24
23
21
21
22
21
23
24
20
32
63
67
59
64
71
69
68
68
68
68
52
34
43
40
41
38
44
56
64
70
72
71
71
67
59
47
37
30
36
40
42
43
43
43
43
43
45
46
48
49
46
81
75
56
36
46
45
49
46
49
52
56
55
50
52
54
58
53
49
48
64
81
76
70
69
75
75
75
77
77
80
82
80
79
81
80
80
83
85
86
83
84
85
86
86
87
88
88
87
89
90
92
69
70
46
67
65
67
66
65
58
43
37
25
42
94
94
72
89
99
91
89
90
96
63
72
42
13
25
21
20
21
19
20
24
22
24
53
70
61
62
69
69
67
68
68
67
67
51
10
34
23
27
26
33
39
41
46
47
48
47
43
37
30
25
25
25
26
27
28
29
28
29
29
30
31
32
33
37
54
33
30
32
31
31
32
31
33
36
37
34
34
35
38
36
34
29
29
45
51
47
44
50
49
49
51
51
52
56
54
52
54
53
52
55
57
56
57
56
58
58
58
58
57
57
58
60
60
61
56
48
22
34
36
42
46
43
42
35
26
22
39
52
43
44
53
63
61
60
60
62
57
42
17
12
10
16
14
14
14
12
14
16
14
31
34
33
40
43
45
45
46
46
45
46
41
21
3
27
21
21
19
25
38
41
39
36
34
33
30
22
11
3
12
22
24
23
21
21
21
21
22
23
25
24
22
28
74
28
11
13
24
23
23
24
27
27
29
27
23
30
27
28
25
33
52
49
35
42
36
34
39
39
39
38
36
40
40
39
40
41
41
38
43
43
39
39
40
41
40
43
48
48
42
42
43
44
46
47
33
51
52
30
34
32
30
22
14
52
96
98
72
50
49
50
44
43
44
44
51
11
42
24
11
12
9
7
8
12
13
9
14
50
70
44
30
38
37
32
31
32
32
31
32
33
39
58
48
51
50
54
65
73
81
85
87
88
85
77
64
56
42
45
47
50
52
53
53
52
52
55
55
57
55
73
93
65
63
55
54
54
55
55
58
59
61
65
65
62
59
59
74
84
72
70
74
79
83
91
91
90
90
90
94
92
89
86
92
94
95
95
97
96
99
102
104
100
92
89
99
99
102
102
103
102
100
101
107
103
79
78
77
75
79
91
108
104
81
80
94
102
102
102
102
106
109
113
114
90
78
37
20
28
25
25
25
26
25
22
50
76
64
66
82
83
79
81
81
81
81
80
80
54
43
39
38
40
38
44
54
62
66
67
68
67
65
56
43
30
28
36
38
40
40
39
39
39
39
42
42
42
38
66
78
52
45
39
42
41
40
42
44
45
49
47
46
46
50
62
64
56
58
59
60
65
68
68
68
65
66
70
70
64
65
71
71
70
70
70
70
71
74
72
70
69
69
77
75
76
77
76
75
75
76
75
73
77
72
64
59
72
83
86
74
74
88
92
86
81
80
81
81
82
84
86
87
62
51
18
20
21
17
17
19
21
22
35
63
64
59
67
66
62
63
62
62
61
61
60
60
42
40
44
44
44
43
49
58
67
72
75
76
77
74
65
51
42
35
41
41
43
44
44
44
43
45
45
47
46
42
81
83
61
54
48
46
47
47
49
49
53
52
53
55
54
67
67
61
62
63
60
71
72
71
72
72
77
78
74
72
74
81
77
77
78
77
78
82
83
82
76
81
83
84
82
83
85
85
82
82
83
83
81
82
82
83
76
87
92
84
83
88
95
89
84
84
88
90
90
88
90
93
97
97
85
58
16
25
22
20
21
23
25
33
54
69
62
65
70
69
70
70
69
70
69
68
68
69
49
42
43
41
41
42
46
56
65
71
73
74
74
70
61
48
36
31
38
39
41
42
41
41
42
42
43
44
43
41
86
80
63
55
49
48
44
46
46
48
50
52
53
50
62
64
59
59
60
56
67
65
65
65
69
74
73
68
67
73
75
72
73
74
73
73
74
77
76
76
77
77
77
78
81
80
79
76
74
76
78
76
74
72
76
83
80
84
80
85
91
87
83
84
85
86
87
87
84
80
84
89
92
81
70
41
8
26
19
19
21
22
25
41
66
64
61
68
69
68
67
67
67
67
66
66
66
66
46
39
43
42
42
42
46
56
66
71
74
75
74
71
63
50
40
34
39
41
42
43
42
43
42
42
44
45
43
45
88
80
65
60
56
50
46
46
46
48
52
49
51
61
65
59
59
58
56
68
66
62
61
66
72
72
67
69
78
75
71
74
76
75
73
73
73
73
76
77
75
78
79
81
81
78
76
77
75
76
76
73
72
78
86
80
80
87
89
90
86
83
86
87
85
87
87
87
77
71
83
87
90
61
60
31
16
25
19
21
22
22
27
58
69
61
67
70
69
68
69
68
68
68
68
68
67
68
50
40
43
41
42
41
46
57
67
72
74
73
73
71
62
49
37
33
39
41
42
43
42
42
42
42
44
43
43
45
86
77
67
64
58
53
48
43
43
49
49
49
63
61
59
59
55
54
68
64
62
62
66
64
65
65
67
77
73
69
72
73
72
70
69
72
70
71
70
72
75
77
77
78
76
74
74
77
75
70
71
74
81
85
80
83
89
87
84
82
83
85
86
85
86
88
88
80
65
72
73
73
87
58
46
14
24
21
19
20
21
27
47
69
62
63
69
68
68
68
69
67
68
68
67
68
67
67
48
6
37
25
29
29
34
40
44
47
49
49
49
46
39
31
27
27
28
26
29
28
29
28
28
29
29
29
30
39
57
37
48
43
39
34
31
28
31
33
28
34
40
39
40
37
33
42
43
41
41
43
43
42
45
42
51
50
45
47
48
46
48
46
48
47
47
47
48
50
50
51
53
49
49
48
50
51
46
45
46
50
54
52
55
58
58
57
55
56
56
57
57
57
58
59
58
49
44
52
45
55
52
8
3
10
17
12
13
13
14
30
31
34
39
44
45
45
46
47
46
45
46
46
46
46
45
41
20
1
23
18
20
20
25
38
42
39
37
34
34
31
23
11
3
11
22
22
21
20
19
20
20
20
21
20
19
28
73
43
20
27
24
25
18
18
23
27
36
38
32
28
30
30
29
36
32
31
33
33
33
29
32
37
32
39
39
35
39
37
34
34
34
37
34
32
34
36
38
36
42
41
40
39
36
41
39
36
45
46
46
43
42
42
43
41
39
39
43
43
42
42
43
44
36
32
36
30
34
45
36
59
46
4
14
6
11
12
19
45
65
47
33
35
36
33
31
32
33
32
32
31
31
32
31
32
31
41
56
48
50
52
57
67
75
84
88
89
90
87
80
67
58
42
46
47
50
50
50
51
51
51
51
51
46
64
92
91
93
87
77
76
69
58
55
69
69
64
65
62
66
73
73
71
66
66
73
76
70
79
83
75
74
75
76
73
71
68
68
75
83
84
82
85
84
84
82
83
81
80
80
77
84
91
93
95
99
100
98
96
96
99
99
101
103
105
105
105
105
106
108
102
83
81
72
67
75
103
68
43
8
24
28
28
30
26
40
67
68
65
78
82
81
81
81
81
81
81
81
81
82
81
81
81
56
42
38
37
40
41
45
55
63
67
68
68
67
65
58
44
31
26
35
38
39
38
38
39
38
39
39
38
34
53
83
81
69
62
59
60
54
43
49
54
48
52
47
51
60
54
54
50
49
57
59
52
59
60
45
45
48
43
42
41
54
59
51
53
54
57
60
58
56
57
56
45
45
57
60
68
76
71
75
81
79
76
75
75
77
78
79
79
80
80
80
80
80
82
82
66
51
40
31
43
79
74
66
38
13
26
17
23
20
24
48
68
61
64
66
63
63
62
61
61
61
61
61
61
61
61
60
60
42
39
44
44
44
46
51
61
68
74
76
76
77
75
67
53
45
33
39
41
42
43
44
44
44
43
44
43
39
55
87
86
80
76
67
64
63
53
53
53
54
52
54
64
61
57
56
54
61
61
58
64
66
56
54
61
49
42
38
38
64
73
57
54
52
47
44
47
42
38
28
25
33
58
80
78
74
84
90
86
85
85
86
85
86
88
88
88
89
90
90
90
91
88
72
48
38
36
51
79
97
50
41
11
21
20
19
24
21
35
64
66
61
69
70
70
70
70
69
69
69
69
69
69
68
68
68
68
49
42
44
41
43
45
50
59
67
72
73
73
73
71
63
50
39
29
37
39
41
42
41
42
42
41
43
41
38
48
83
86
82
73
56
56
54
45
49
50
48
50
61
58
54
53
53
58
57
55
60
60
51
51
59
46
44
45
43
39
54
51
44
33
29
31
37
30
22
14
16
27
39
82
72
75
88
85
81
81
83
83
81
82
83
84
84
84
85
87
87
79
61
43
32
33
38
51
71
91
59
54
27
17
25
18
23
22
19
48
68
60
65
70
69
68
67
67
66
67
65
65
65
65
65
65
65
65
45
42
44
42
44
46
50
60
67
73
74
74
75
72
65
51
42
31
39
41
42
42
42
43
42
43
43
41
40
39
82
89
86
74
56
55
57
54
51
48
48
61
60
55
53
54
58
57
55
58
61
52
50
60
48
48
47
40
29
28
34
46
41
37
42
42
27
31
23
19
23
51
76
70
77
89
84
82
83
82
83
83
82
83
84
85
86
86
89
83
60
37
32
34
42
49
60
77
87
52
23
2
15
22
20
20
25
19
28
62
65
61
70
70
69
69
69
69
68
68
67
67
67
67
66
66
66
66
46
45
44
42
43
45
50
59
66
72
73
74
73
72
65
50
41
31
38
40
41
42
41
43
42
43
42
41
41
36
77
83
85
74
57
60
63
55
47
46
58
60
55
52
52
57
56
53
57
61
51
49
60
48
36
37
31
25
21
28
44
49
31
34
41
33
26
33
20
20
56
78
60
81
84
77
80
82
81
80
81
82
82
83
84
84
85
81
66
51
36
38
44
50
61
69
79
84
52
44
26
23
29
20
18
24
26
23
45
68
61
66
72
69
70
69
68
68
68
67
67
67
66
67
66
66
66
65
43
0
40
25
31
31
36
40
44
47
49
49
50
47
40
33
27
27
27
26
27
28
28
29
28
29
28
27
26
33
60
44
44
44
37
41
39
36
31
33
37
38
36
33
37
39
36
37
41
35
28
39
35
23
19
22
19
13
16
20
31
26
14
24
24
22
18
20
19
38
44
23
42
53
51
54
55
54
53
53
55
55
56
56
57
54
49
38
27
29
20
28
28
30
32
42
55
50
4
1
10
18
14
12
14
17
16
19
35
32
39
46
45
46
47
46
46
46
46
46
46
45
46
45
45
45
44
39
19
1
25
19
21
22
28
37
40
39
37
34
34
32
24
12
1
8
21
22
20
20
20
20
20
19
20
20
21
16
46
86
50
32
28
33
32
15
22
35
36
23
29
28
25
27
26
27
29
38
27
28
32
31
23
16
21
14
12
36
21
24
19
30
17
13
9
29
49
69
70
65
53
47
36
38
39
41
41
40
40
39
39
40
40
51
61
63
40
31
34
52
62
61
59
55
26
41
70
48
4
16
10
8
9
15
12
25
61
51
32
40
38
33
34
32
33
32
31
31
31
30
31
31
30
31
30
30
30
39
63
50
53
52
56
65
76
85
88
89
89
88
81
69
62
40
45
46
48
50
50
51
50
51
51
53
54
52
44
71
91
105
90
88
67
58
72
66
58
58
67
62
63
64
69
65
49
40
41
32
34
32
22
32
30
23
40
34
20
32
43
40
33
42
40
71
68
69
89
89
88
89
93
94
91
90
90
95
98
99
99
87
49
23
28
46
49
61
75
79
77
82
84
59
36
6
18
4
27
30
25
24
26
26
29
57
67
62
78
86
83
85
85
85
85
84
83
83
82
82
82
81
81
80
79
79
57
49
42
39
40
38
42
53
63
67
68
68
68
66
59
46
34
23
34
35
38
38
38
38
39
38
39
42
42
41
38
51
73
80
69
72
49
50
51
47
45
54
52
49
49
52
50
44
34
34
30
33
31
16
22
43
27
17
36
18
22
27
21
26
36
45
47
54
66
92
82
77
74
72
72
70
67
70
72
74
74
72
73
63
71
54
45
48
52
50
55
66
77
71
34
17
8
22
27
27
27
20
18
18
21
22
34
57
55
58
70
66
65
64
64
64
64
63
63
62
62
62
63
62
61
60
60
60
43
43
46
45
44
43
45
57
68
74
76
76
77
75
68
55
47
31
38
40
42
42
43
43
43
43
46
46
47
48
46
39
69
82
88
77
57
56
51
50
56
57
52
53
55
56
49
39
32
34
36
40
28
21
32
36
25
27
29
18
31
29
35
33
43
51
55
68
89
79
77
78
76
77
78
77
77
80
80
82
83
85
89
84
62
50
32
40
45
50
65
71
63
23
19
16
24
25
23
22
23
21
20
21
24
26
46
60
53
67
75
72
73
72
72
72
72
71
71
71
71
71
70
70
69
69
68
67
49
46
45
43
42
40
42
55
65
71
73
73
74
72
64
52
42
27
36
37
41
41
41
41
41
42
42
44
47
47
46
41
56
86
89
74
58
49
48
50
54
49
52
57
52
47
43
29
26
26
32
31
23
23
29
33
32
26
16
22
25
20
24
33
40
47
62
76
75
75
78
72
73
74
74
74
73
75
79
84
83
84
84
81
67
64
42
31
33
51
59
64
37
45
24
18
22
23
25
26
24
19
18
22
22
31
55
56
55
70
70
70
70
69
69
69
69
69
68
68
68
68
67
66
66
66
64
64
46
44
45
44
43
39
42
55
65
72
74
75
75
73
66
54
45
29
38
40
42
42
43
43
42
42
44
45
48
49
47
43
54
90
91
69
47
50
50
53
49
53
61
55
44
35
26
27
25
18
29
30
34
27
25
35
41
35
28
18
17
16
35
50
47
66
76
79
79
81
73
69
73
76
74
71
75
82
87
86
84
85
86
86
75
59
51
24
30
46
57
63
45
38
18
20
24
24
26
25
22
19
20
22
21
42
62
54
61
70
69
71
71
70
70
70
70
70
70
69
69
69
68
68
68
67
66
65
46
44
45
43
42
40
43
55
65
71
74
74
74
72
66
53
44
29
37
39
42
42
43
43
42
43
44
46
47
49
47
45
50
87
90
63
41
50
50
49
52
56
50
49
41
30
23
31
17
20
25
29
34
22
31
26
42
30
30
23
14
37
62
55
72
66
73
79
81
76
68
70
75
76
68
73
81
84
83
85
86
87
89
88
79
62
57
40
22
35
58
68
54
39
14
23
22
24
26
26
20
19
21
21
26
55
61
56
67
65
65
68
69
70
69
69
69
69
69
69
69
68
67
68
67
67
66
65
44
0
41
25
30
27
33
40
42
47
48
50
49
47
41
35
27
26
26
26
27
28
28
28
28
30
31
30
29
31
31
30
43
65
38
23
39
35
31
32
36
35
38
31
20
6
20
12
14
14
16
23
16
15
19
13
29
17
19
11
29
42
24
32
41
40
56
50
53
49
47
49
52
46
46
51
53
54
56
58
57
59
59
56
47
35
24
10
17
30
40
30
14
11
10
15
14
16
16
16
13
14
14
14
27
30
31
39
41
40
45
47
47
46
45
45
45
45
45
46
46
46
46
46
46
45
44
39
19
1
25
18
19
17
21
36
42
41
38
35
35
34
25
13
1
8
20
24
23
23
22
21
20
20
21
28
32
24
24
23
22
68
69
15
5
29
26
31
29
15
16
26
30
24
22
6
7
17
11
16
22
15
22
23
27
13
8
1
56
71
63
57
48
27
40
46
36
31
31
33
37
40
35
43
47
44
41
43
42
43
45
44
38
21
23
29
8
27
59
56
15
23
8
15
14
15
16
8
6
9
13
10
39
61
37
38
42
34
31
30
34
36
37
36
36
37
36
35
32
31
31
31
31
31
31
30
31
38
61
49
52
48
51
61
73
83
88
91
91
89
81
70
62
43
47
48
50
52
52
53
53
53
54
61
56
59
62
61
60
57
74
65
66
66
66
66
59
44
31
30
22
14
34
30
34
27
26
26
28
24
37
37
25
44
36
62
72
63
80
85
88
77
85
96
91
85
83
80
83
87
90
95
97
100
102
105
105
108
108
109
109
95
83
70
44
18
38
66
53
53
26
29
29
30
31
27
26
28
25
31
64
63
65
84
82
81
82
81
79
77
77
76
74
75
75
77
79
80
80
80
79
80
79
78
55
46
40
37
38
36
38
51
62
67
69
69
68
67
60
47
33
26
36
37
40
40
41
41
41
40
42
45
45
48
45
44
44
49
60
38
46
54
51
47
28
17
17
31
24
22
25
21
31
20
19
25
27
20
24
26
17
29
41
64
58
75
72
77
76
60
72
72
59
60
61
64
69
70
70
73
76
78
78
79
79
80
82
83
83
73
52
46
37
15
38
68
36
40
17
24
24
25
23
18
20
21
18
40
63
55
65
68
64
64
63
64
64
64
64
61
60
58
58
58
56
56
56
57
59
60
59
59
41
41
43
44
44
41
43
56
66
74
76
77
78
76
69
55
46
34
39
41
44
45
45
46
45
45
47
49
51
51
52
53
54
59
52
60
63
56
54
46
39
30
23
36
27
18
25
40
32
23
20
30
22
27
30
30
17
42
61
60
80
70
70
81
81
75
80
64
64
72
73
75
77
78
79
79
82
85
86
86
88
90
91
93
93
87
68
58
43
16
31
64
44
49
29
27
27
28
23
22
25
21
25
55
61
58
69
71
71
71
70
72
72
73
71
70
68
66
66
64
64
63
64
64
64
65
65
66
47
43
43
42
41
40
40
54
64
71
74
75
74
72
65
53
41
30
38
39
42
43
44
43
43
43
45
47
50
51
51
58
64
42
23
39
54
57
43
31
22
32
19
44
27
19
29
26
14
16
23
28
21
34
28
18
30
61
56
82
75
70
70
81
82
72
48
37
49
50
54
64
73
76
75
74
77
80
82
81
82
84
85
87
86
76
47
38
26
10
28
62
49
44
25
25
28
27
21
22
22
20
33
59
57
61
71
68
67
67
67
67
68
68
69
67
65
65
65
64
63
63
62
60
59
60
59
59
42
43
44
43
43
41
41
54
65
72
75
75
76
75
67
54
44
32
39
40
43
45
43
43
44
44
45
48
50
50
53
66
59
50
30
43
69
41
32
25
40
24
27
47
34
17
28
25
25
24
20
26
34
32
20
23
57
62
77
78
80
69
73
85
72
53
52
65
59
47
38
39
49
66
74
74
76
81
83
81
83
84
83
75
59
42
34
26
28
18
27
55
56
50
33
26
29
23
20
22
23
22
43
62
56
66
71
68
68
68
67
67
67
68
69
67
67
67
66
66
66
66
66
63
62
61
59
57
44
44
45
44
42
39
40
53
64
71
74
75
76
74
67
55
44
31
38
40
44
44
43
43
43
42
45
46
47
53
64
66
58
54
48
51
50
29
26
34
37
25
38
34
24
23
25
22
31
22
14
25
28
24
16
43
69
69
79
81
79
68
82
67
42
51
60
49
52
48
40
41
45
54
64
70
72
79
82
81
81
77
61
42
37
42
46
40
34
23
23
52
59
45
32
24
27
22
22
22
24
25
52
60
57
69
69
67
67
67
66
67
67
67
68
67
66
66
65
66
67
67
66
64
63
61
58
57
34
5
39
25
28
26
30
38
40
46
49
50
51
49
42
36
27
28
27
26
29
28
28
29
28
29
30
25
24
30
42
39
40
29
28
36
23
11
18
25
15
21
20
26
10
16
12
20
20
1
12
13
22
12
23
46
24
46
48
52
47
52
55
23
21
31
31
24
35
27
30
21
21
35
45
44
48
52
52
52
56
47
24
18
26
32
27
18
13
13
24
37
28
15
22
16
18
14
15
15
16
22
32
30
39
45
44
46
45
45
45
45
45
46
46
45
45
44
45
45
45
44
44
43
42
39
38
33
15
3
28
21
21
18
20
40
45
42
40
36
36
33
26
14
1
7
22
24
24
24
20
21
21
20
24
44
59
44
40
31
31
19
22
24
37
22
12
31
13
29
8
11
19
14
12
3
34
15
19
15
6
19
32
73
68
47
52
45
34
29
37
51
48
37
41
36
39
18
21
48
38
38
39
43
42
48
46
43
28
37
47
36
21
20
29
31
15
7
16
44
48
4
11
13
10
9
11
12
9
27
58
41
36
42
33
31
32
32
32
32
31
32
32
31
30
31
30
31
32
33
31
30
31
30
27
25
28
33
56
44
46
41
42
56
71
83
89
91
92
91
83
70
64
42
45
46
49
50
50
51
49
46
54
88
79
65
74
69
63
49
30
21
38
28
39
27
45
57
48
25
23
34
31
28
18
32
26
22
25
40
69
74
78
88
100
98
78
55
24
11
18
24
17
26
74
77
85
47
51
59
64
70
78
94
106
92
69
34
14
39
64
58
41
14
22
23
31
45
65
55
51
31
27
25
27
25
26
55
67
64
80
79
79
81
79
79
78
79
79
79
79
79
79
80
78
77
77
76
74
73
70
69
69
69
52
45
40
36
36
31
31
48
62
69
71
70
71
69
59
48
34
27
37
39
42
41
40
41
39
32
28
52
58
75
70
39
19
6
20
38
24
26
22
31
46
41
33
23
18
21
29
21
17
19
15
18
22
48
59
74
74
82
81
60
35
35
44
40
44
44
35
49
93
86
69
55
45
48
52
56
66
81
86
48
52
42
36
58
68
45
45
20
21
17
26
41
64
37
32
21
20
20
22
18
27
57
59
61
65
62
63
60
60
60
59
60
60
59
60
60
59
58
57
57
57
55
54
53
50
51
54
61
44
39
43
42
40
35
34
52
65
73
78
79
80
78
70
58
47
37
42
45
47
47
48
38
27
31
49
75
84
85
47
41
24
32
51
28
22
32
36
43
43
50
41
35
17
20
26
19
22
21
18
18
42
63
74
76
84
87
66
44
56
62
54
46
46
45
55
75
90
78
60
50
53
54
55
61
71
91
91
72
46
49
55
70
67
51
36
18
22
21
32
39
67
43
41
28
21
21
23
22
38
63
59
66
69
68
68
67
67
67
69
69
67
68
68
67
66
65
65
63
62
61
60
59
63
70
76
81
63
42
45
39
37
33
32
50
64
72
75
76
77
76
67
55
42
34
41
44
47
47
50
36
29
68
68
65
57
32
13
26
37
44
30
19
28
36
31
39
44
55
37
38
27
17
20
20
20
19
14
29
58
67
78
80
87
63
37
55
60
60
60
56
57
58
53
61
57
60
67
65
57
52
56
57
69
88
87
68
61
62
57
55
33
16
27
27
21
22
30
35
69
43
39
27
19
21
23
25
50
61
58
69
66
66
65
64
63
64
66
64
64
65
64
63
62
60
59
58
57
58
60
67
76
80
80
80
62
41
42
37
37
33
31
49
64
72
76
78
79
77
69
57
45
34
41
44
47
47
51
44
73
68
40
33
30
20
19
34
44
50
44
46
25
28
36
42
45
51
45
37
25
17
22
19
22
17
17
51
62
74
77
85
66
41
50
63
61
65
64
64
62
57
56
61
60
71
70
63
54
57
57
56
67
87
91
77
67
59
54
50
45
44
45
32
22
22
29
34
70
48
44
30
18
23
23
29
56
59
62
69
66
66
65
65
65
66
65
64
65
65
64
63
62
60
59
58
59
66
76
83
83
82
81
81
63
41
38
36
34
30
27
47
63
71
76
77
78
77
69
57
44
33
41
43
47
46
50
61
58
39
29
35
32
24
26
34
49
39
33
16
16
33
37
41
49
42
38
28
21
19
19
21
21
17
36
61
62
81
84
71
43
38
59
58
63
67
68
69
69
69
69
72
73
73
68
65
58
60
55
55
67
85
91
79
71
65
62
57
49
49
41
35
26
22
29
31
70
50
47
32
16
23
19
34
60
57
66
68
65
66
64
65
64
65
63
64
64
63
63
62
60
60
57
58
68
82
85
83
81
81
81
81
64
21
29
21
23
19
24
38
39
46
50
52
52
50
43
37
28
30
29
29
29
28
31
38
30
20
17
23
15
13
21
20
24
18
23
8
18
22
17
34
22
22
20
6
9
9
13
15
13
19
37
25
41
46
57
27
13
34
37
38
44
44
46
45
45
43
45
46
47
47
46
42
40
39
37
41
51
57
52
49
49
45
41
36
34
30
25
18
17
18
19
31
44
16
19
10
13
15
15
31
29
35
44
42
45
44
44
44
44
44
43
44
43
42
42
41
41
39
36
35
42
49
54
55
56
55
55
50
24
5
22
15
16
10
12
37
49
43
40
38
38
35
26
14
2
8
23
25
30
34
36
34
28
25
28
17
14
13
37
39
33
18
5
10
10
30
28
32
33
29
32
19
24
15
7
10
11
26
60
55
67
55
26
54
36
26
37
31
35
35
36
36
40
39
40
41
38
36
30
24
26
28
25
24
37
60
59
30
24
26
26
23
24
25
19
6
3
15
17
14
70
29
24
14
7
11
12
49
54
36
39
35
29
30
30
30
30
30
29
30
30
30
29
28
28
29
32
55
63
54
43
38
37
37
39
41
42
51
40
39
38
34
33
51
67
80
89
92
93
92
85
74
66
44
47
52
58
60
59
50
39
39
38
29
40
45
44
53
46
35
26
25
24
22
26
30
28
13
45
65
50
46
25
21
25
60
62
82
93
61
51
17
49
62
63
67
73
76
81
87
90
90
92
90
88
88
84
80
78
74
70
68
71
87
104
103
92
85
79
73
69
66
55
52
34
30
32
28
66
70
71
50
20
28
33
62
62
74
81
78
80
80
79
78
77
77
76
76
75
75
74
71
68
73
92
98
92
93
98
101
101
102
104
104
83
48
22
31
26
23
23
44
60
68
70
69
69
68
61
50
35
27
38
41
41
44
41
41
48
40
36
37
40
19
35
43
28
22
18
21
20
20
21
24
24
18
46
48
40
43
34
8
37
58
64
89
66
52
29
29
53
48
52
54
57
59
60
64
66
69
71
68
68
65
60
56
54
53
50
49
56
72
87
79
63
60
58
54
51
49
35
26
13
23
26
18
62
64
49
39
12
24
36
62
59
68
64
60
61
60
59
58
58
57
57
57
56
56
54
52
52
68
80
78
78
79
78
77
78
81
81
80
69
51
27
35
29
26
26
46
64
71
76
77
78
77
70
59
49
33
48
47
48
60
56
44
31
45
47
35
25
31
41
51
43
41
26
26
19
18
21
29
28
26
53
51
54
38
44
25
53
57
83
88
55
42
9
38
44
51
57
58
62
64
68
70
73
76
76
75
75
72
68
62
59
59
56
56
60
73
92
89
75
69
67
61
59
55
39
37
19
31
28
19
61
63
48
48
21
24
49
63
62
72
67
69
68
67
67
66
65
65
64
63
63
62
61
58
67
85
86
84
85
84
86
89
92
92
90
89
74
50
25
34
27
23
23
45
62
70
74
73
74
73
66
56
43
27
49
47
59
56
43
30
43
54
32
23
37
42
48
55
45
38
22
22
16
18
26
41
32
36
66
61
40
26
13
22
60
62
92
52
47
17
27
37
42
53
54
56
58
62
64
66
68
69
70
71
70
68
64
57
55
55
52
52
56
69
86
90
71
63
62
58
55
50
35
28
19
30
27
17
55
63
42
45
22
24
58
60
65
69
65
65
64
65
64
63
62
62
61
61
59
59
57
57
75
85
82
82
82
84
87
89
88
88
86
86
72
51
26
34
26
23
21
44
62
70
74
75
76
75
69
57
48
30
42
47
51
49
44
31
45
34
34
34
45
37
39
53
43
36
19
21
19
21
30
39
35
54
45
38
21
18
17
53
58
77
72
52
28
11
36
33
44
51
54
57
58
61
63
65
66
67
70
70
69
67
62
56
54
56
55
53
57
68
84
95
71
65
64
59
56
46
37
24
22
32
27
17
49
64
50
53
31
31
64
59
68
68
66
65
66
65
65
65
63
64
63
62
60
59
57
67
85
84
83
83
84
88
90
89
89
89
88
89
74
52
26
34
26
23
20
44
62
70
75
75
75
75
69
57
46
30
48
52
47
51
37
30
39
42
36
31
41
29
37
59
34
31
27
23
23
18
29
39
48
43
32
22
14
20
49
71
54
75
38
43
22
22
38
34
43
51
55
55
58
61
62
64
65
66
68
68
68
66
61
52
51
60
59
57
56
64
83
94
69
63
62
57
53
39
34
16
25
30
26
17
42
63
58
55
34
38
68
60
69
66
65
65
64
64
65
64
63
64
62
62
60
57
58
76
85
83
83
84
86
89
89
87
87
88
89
89
73
31
21
20
17
13
17
32
36
44
49
50
51
49
43
37
26
30
38
28
29
30
21
27
26
25
23
20
26
17
38
30
15
19
9
18
13
11
25
32
19
28
14
9
12
33
47
17
36
47
15
2
8
20
22
19
32
33
35
38
40
41
41
44
43
45
45
46
45
43
39
33
39
42
41
36
36
48
54
50
36
46
41
37
34
20
7
13
18
18
14
18
38
36
26
14
13
37
30
39
46
43
45
43
44
43
44
43
43
43
41
42
40
39
43
50
51
55
57
56
58
59
60
58
59
59
60
56
29
3
18
12
12
11
18
47
54
44
39
36
36
36
27
16
5
9
30
34
27
25
8
11
30
18
8
25
27
0
28
33
23
28
20
2
19
11
13
29
36
26
15
15
2
48
82
62
37
13
47
42
7
17
33
23
28
34
28
28
29
31
31
32
32
33
34
33
33
29
26
20
28
23
27
33
31
42
64
63
30
23
28
24
19
21
22
6
19
19
9
3
25
71
33
23
20
61
54
34
35
31
30
30
30
30
30
29
30
30
29
28
27
24
40
59
51
39
39
44
46
43
42
42
43
44
42
41
41
56
39
39
37
36
42
59
69
79
87
88
91
92
86
75
66
44
43
45
54
55
44
39
43
28
38
55
32
44
52
49
64
58
58
45
34
56
50
28
37
27
34
50
60
66
52
72
47
41
12
15
19
29
47
46
53
59
62
66
67
70
73
75
75
77
79
80
81
82
80
77
72
65
65
65
64
78
88
79
76
78
72
66
49
33
16
27
35
36
32
29
25
61
66
63
36
67
64
77
81
78
79
78
78
77
78
77
76
75
74
73
71
71
87
95
95
101
106
107
106
106
108
109
109
108
108
108
87
50
21
33
26
28
37
56
65
68
67
68
70
70
63
52
37
25
36
41
46
51
40
22
30
32
46
17
26
32
38
44
45
44
40
39
26
51
29
18
29
38
64
71
60
36
65
59
45
20
26
29
22
25
44
38
45
50
51
51
52
54
56
56
56
59
60
61
62
61
60
59
57
56
62
72
73
82
82
70
61
55
51
40
33
20
18
26
31
30
24
22
18
60
57
41
40
67
61
65
61
60
59
59
58
58
58
57
57
57
56
55
52
55
73
80
79
80
81
82
81
81
82
82
82
82
82
83
72
53
25
36
28
30
42
58
67
72
75
76
78
79
73
62
51
35
39
42
55
58
46
27
47
44
21
20
34
32
37
44
37
49
58
45
37
41
27
21
43
71
74
73
48
46
64
27
14
18
24
24
22
23
43
42
49
52
55
56
58
61
62
62
62
64
66
67
67
68
67
66
66
66
73
88
79
85
84
72
64
62
59
40
31
15
22
27
34
32
28
25
17
53
58
41
58
65
63
69
67
68
66
66
65
66
65
64
65
64
63
62
59
65
82
86
86
90
93
92
91
92
92
92
93
93
94
93
79
53
20
33
25
30
40
55
66
70
72
73
75
75
69
58
44
30
36
49
56
43
32
33
50
28
22
32
29
30
31
37
30
43
52
41
48
30
18
45
57
65
77
52
36
56
26
27
23
24
22
30
23
20
41
41
45
50
54
55
56
58
59
59
59
59
61
61
62
63
61
61
63
65
75
88
78
86
83
70
60
59
48
40
23
19
23
27
34
30
27
22
17
48
59
47
58
61
66
66
65
64
63
63
62
63
61
62
61
61
60
58
55
64
81
84
86
89
88
87
88
88
88
88
90
89
89
89
77
53
18
33
26
31
38
55
67
71
74
75
76
77
71
60
49
34
43
54
41
48
32
35
35
24
30
29
29
40
35
36
33
38
39
56
37
36
46
73
74
83
64
44
54
44
37
22
28
18
23
31
23
20
39
40
43
49
54
55
56
58
60
60
60
60
60
59
59
60
61
61
63
64
66
70
70
75
66
59
55
58
35
32
14
24
22
28
34
32
28
26
18
42
58
51
61
63
66
66
66
65
64
63
64
64
63
63
62
62
61
58
56
67
83
86
89
91
89
90
90
90
90
91
92
91
91
91
79
54
16
33
25
30
39
57
68
72
74
75
77
76
70
58
45
32
53
42
46
53
41
23
30
24
30
25
31
46
45
38
36
31
47
46
29
48
65
78
87
70
46
46
57
37
17
28
20
19
25
30
23
21
36
38
38
47
54
55
55
56
57
60
60
61
53
42
44
48
50
50
49
45
45
51
57
44
45
48
55
55
43
27
19
23
23
29
32
32
27
25
19
37
57
58
64
62
66
67
65
64
64
63
64
62
63
62
62
61
60
58
55
68
84
88
90
90
89
89
89
89
90
91
91
91
91
91
81
41
13
20
17
22
29
39
43
47
49
51
51
50
44
37
24
28
36
23
34
30
16
20
18
19
18
13
24
27
23
27
18
27
30
24
23
37
39
57
49
30
30
41
22
11
13
20
9
15
19
17
14
17
29
20
26
33
32
34
36
37
39
39
39
38
27
24
26
29
30
30
26
21
26
27
22
18
27
25
38
31
9
10
16
14
17
19
21
18
16
17
14
35
35
31
42
42
45
44
44
44
43
43
42
42
43
42
42
41
40
39
41
51
52
55
59
61
60
60
60
60
61
61
62
62
61
59
32
1
17
15
13
19
31
44
43
41
38
37
37
36
28
17
14
24
16
34
33
15
7
13
14
9
25
18
22
52
13
17
23
26
18
23
26
52
31
55
53
24
20
25
26
24
3
15
14
7
15
16
13
6
23
29
20
33
38
32
29
29
31
33
34
30
27
31
35
33
30
31
35
46
54
57
55
37
40
45
27
19
33
10
9
11
16
15
22
19
6
18
7
18
59
41
32
33
34
32
29
30
30
30
30
29
30
28
29
29
27
25
23
47
61
52
45
42
42
42
43
43
44
43
42
43
43
44
44
57
24
30
28
39
46
60
74
83
89
92
93
93
88
79
63
44
44
67
52
43
41
51
38
25
40
38
51
63
50
52
46
46
50
58
71
72
62
83
58
79
71
52
20
23
26
27
26
27
30
30
34
29
34
37
33
43
49
54
59
62
64
66
70
72
75
71
65
63
63
64
67
70
69
67
66
65
73
65
49
34
14
24
25
27
27
31
39
39
37
40
28
33
67
72
77
78
80
80
80
80
79
79
78
77
77
76
76
74
73
69
67
86
101
107
109
110
110
111
111
111
111
109
108
107
106
106
90
53
12
24
21
35
39
51
61
66
70
71
71
70
64
53
39
25
49
49
35
24
34
32
23
24
30
24
52
51
40
46
33
39
49
50
47
47
55
71
70
60
33
13
18
27
21
20
20
22
24
24
26
20
28
30
26
32
39
42
44
46
49
51
53
54
56
54
54
53
52
51
50
49
50
52
58
62
58
37
28
15
19
23
23
23
21
28
33
32
27
28
22
27
63
64
60
60
61
61
60
60
60
60
60
59
58
57
56
55
54
50
48
71
88
88
85
83
84
85
85
83
82
80
80
81
81
82
75
54
17
24
25
44
44
55
64
71
77
78
79
79
73
61
53
34
53
43
39
27
43
25
18
33
27
24
60
54
49
57
48
44
51
45
43
50
66
83
69
51
31
19
26
24
21
24
23
24
24
25
27
25
26
28
26
31
37
41
46
50
54
56
59
61
61
61
61
60
61
63
65
67
68
68
69
63
52
40
29
16
24
23
27
23
22
32
35
36
31
34
26
27
65
69
65
67
69
69
68
68
68
68
67
66
66
65
64
63
60
56
53
79
95
95
95
95
96
95
94
93
92
93
93
93
93
93
83
54
15
23
29
45
44
54
62
69
74
74
75
75
69
58
45
29
44
42
36
31
38
27
17
33
24
22
54
43
43
57
48
45
37
47
52
46
53
70
29
27
11
23
22
24
22
22
22
21
21
23
24
24
23
25
26
28
29
33
40
44
49
53
57
57
58
60
61
64
65
68
71
73
70
68
64
62
40
31
16
19
23
25
26
23
22
33
36
36
31
32
27
26
65
69
62
66
67
66
65
64
64
64
64
64
63
61
59
59
56
53
51
80
94
93
91
90
89
90
90
89
90
89
88
88
87
87
78
53
15
23
30
42
43
55
62
70
75
76
76
76
71
59
48
32
40
43
29
28
35
25
20
34
21
27
47
39
33
40
53
52
43
58
57
41
45
46
32
26
24
25
23
27
21
24
22
22
21
22
24
25
22
26
26
28
26
26
28
38
44
52
55
57
60
62
64
67
70
72
72
72
72
71
65
60
51
31
19
24
23
26
24
23
22
36
37
37
32
34
29
26
65
70
63
67
67
66
65
64
65
64
65
64
64
61
60
60
57
54
54
85
96
93
92
90
91
92
92
92
90
88
88
88
88
85
76
50
15
23
27
38
44
56
63
70
75
74
76
76
71
59
47
31
38
36
21
26
40
25
23
32
21
22
47
46
36
36
49
49
55
57
57
47
42
31
20
19
23
21
24
27
21
25
22
23
22
22
23
23
25
25
26
25
29
24
23
27
35
44
48
53
56
59
62
64
68
70
72
71
71
68
62
51
45
23
23
24
24
28
23
23
22
38
38
36
34
33
32
25
66
69
61
63
63
64
63
64
64
64
64
63
62
60
59
58
56
52
58
88
95
93
90
90
92
92
91
89
88
87
85
80
67
51
31
24
12
17
21
25
29
36
39
46
49
50
52
49
45
38
27
17
20
10
13
24
23
11
21
20
12
22
35
17
16
30
34
31
32
34
36
23
24
12
13
11
10
15
16
15
13
19
13
17
14
15
16
16
16
16
17
17
20
11
12
18
19
26
30
35
37
41
43
44
46
48
48
46
48
44
37
28
4
11
8
17
17
18
13
16
19
27
20
23
22
22
19
26
48
33
42
44
39
38
39
39
40
39
40
40
40
40
40
39
37
36
46
56
56
61
61
62
62
62
60
60
58
56
49
35
25
13
12
2
10
8
17
32
33
42
46
41
40
35
37
37
29
17
2
37
47
23
11
13
24
12
8
14
7
7
46
41
13
18
22
45
39
29
40
27
20
28
30
34
13
12
16
21
3
13
10
8
13
9
9
14
15
13
14
11
18
17
19
34
38
35
32
31
30
28
29
32
33
35
38
34
32
29
34
27
41
43
16
9
12
16
12
9
13
27
24
16
16
17
14
11
63
44
20
32
42
42
41
39
40
38
37
33
30
27
27
26
25
22
45
74
56
41
43
43
43
44
44
42
45
49
60
75
78
60
33
24
30
23
24
30
32
49
66
79
87
88
89
89
84
77
83
68
37
40
31
27
36
33
33
34
33
29
41
53
63
49
33
44
61
52
51
60
48
56
62
50
64
40
30
36
29
33
28
26
27
26
26
26
27
29
31
27
27
37
48
56
59
62
64
68
69
71
73
76
78
76
75
77
82
90
97
98
88
87
100
90
59
28
25
26
30
41
44
45
42
43
40
42
72
65
60
61
55
53
54
54
54
56
59
63
66
68
68
67
63
61
89
102
100
106
108
108
108
105
100
88
60
33
0
25
14
17
36
41
33
24
22
27
25
39
53
65
68
67
67
69
67
65
42
24
34
40
31
13
31
25
19
25
32
28
28
38
44
36
38
63
53
27
41
46
38
44
65
47
33
28
20
28
16
27
21
19
19
21
20
20
20
24
23
22
21
31
40
49
51
50
50
51
53
54
55
56
55
55
56
57
63
69
75
78
83
84
69
60
79
81
52
16
20
33
35
33
29
32
28
32
65
56
52
55
53
53
50
48
44
42
41
40
42
41
41
42
41
41
72
86
83
82
82
82
81
77
65
39
23
19
28
36
41
44
58
53
47
43
30
29
22
35
55
69
74
76
76
78
76
63
54
44
63
41
27
14
29
33
25
22
43
39
28
27
39
51
49
51
31
41
52
49
50
60
56
33
44
33
28
28
18
31
23
22
21
24
25
22
23
26
27
28
23
31
43
50
52
54
56
57
60
60
62
62
62
62
64
68
74
79
84
85
85
85
91
96
82
71
92
85
36
30
37
35
32
34
31
39
67
60
62
62
61
59
57
55
53
50
48
46
44
41
43
50
46
40
73
91
89
92
92
91
88
76
48
38
21
34
33
35
35
35
54
59
54
46
40
33
22
32
54
68
72
72
72
74
68
56
51
61
32
26
13
17
29
51
41
37
50
30
26
24
43
36
38
41
26
44
44
54
56
56
43
32
45
33
36
26
17
31
24
22
21
24
25
23
22
24
29
28
25
29
41
48
51
53
54
54
57
60
60
59
58
60
63
66
72
76
79
79
81
83
83
84
88
93
71
81
82
38
29
32
28
32
27
41
65
60
63
61
61
59
59
58
56
54
51
48
46
42
45
54
45
37
77
91
88
91
89
87
72
39
23
17
38
35
36
41
39
37
56
61
64
59
51
44
35
29
56
69
74
75
75
75
70
63
78
51
51
31
17
20
31
29
23
40
26
25
31
42
26
34
44
19
32
37
47
51
60
59
45
44
39
54
37
32
15
32
23
23
22
24
27
24
21
28
30
36
28
27
41
50
52
54
52
57
61
60
60
59
60
62
65
70
72
75
77
79
81
81
84
86
88
88
94
83
82
83
42
25
29
33
25
45
64
61
64
63
62
61
61
60
58
57
56
53
52
48
52
57
46
50
87
91
91
92
89
83
53
54
31
44
40
35
42
44
38
38
50
56
63
63
59
47
44
25
57
68
75
75
74
75
69
66
71
46
44
27
17
25
27
22
32
24
25
30
26
23
14
45
25
29
32
38
40
49
55
59
42
51
50
48
31
32
25
30
26
24
23
24
28
24
23
29
32
43
30
26
41
51
52
50
56
61
58
60
60
60
60
63
67
69
70
73
74
76
78
80
82
84
86
88
89
92
84
82
78
42
22
31
22
50
63
60
64
62
61
61
61
60
59
59
56
56
54
52
53
56
50
64
91
90
91
91
86
73
54
41
28
43
35
43
49
43
38
41
33
28
33
33
33
25
11
29
42
40
48
49
50
49
45
48
42
33
9
8
15
16
18
17
19
14
17
12
15
15
16
28
14
19
22
24
29
33
37
28
30
27
45
17
20
4
12
18
13
16
17
17
17
14
19
22
20
24
11
22
33
30
30
34
38
39
40
40
41
40
42
44
45
46
48
49
50
51
52
54
55
57
58
59
61
59
58
40
12
8
11
14
22
37
32
40
43
41
42
41
41
40
40
39
38
37
36
35
36
35
32
46
53
54
62
61
55
45
21
19
26
22
24
29
32
26
25
26
9
53
63
44
35
22
27
5
52
51
43
37
36
36
28
26
28
11
30
16
11
16
12
12
13
12
34
17
6
10
18
15
26
11
24
22
22
29
39
37
33
28
2
40
39
26
23
22
17
5
9
13
19
9
5
20
24
39
16
10
28
42
27
33
32
29
29
28
28
28
29
32
33
35
36
36
38
39
40
40
42
42
43
44
44
45
46
44
40
78
40
10
14
52
45
30
31
28
28
29
28
28
27
27
27
26
25
25
27
34
35
60
71
51
42
42
35
17
32
9
29
25
26
29
18
23
18
25
24
9
53
78
85
75
73
36
58
74
87
91
92
92
88
77
69
52
41
22
24
32
22
25
23
29
51
36
31
24
29
30
42
38
39
50
48
47
42
61
78
56
52
44
82
70
53
18
37
29
25
26
31
26
28
29
44
54
43
38
40
56
64
66
66
69
71
73
73
73
75
77
77
79
81
83
85
87
90
92
95
97
101
104
106
108
109
113
111
94
83
44
16
65
66
74
77
75
76
75
73
73
71
71
70
69
66
64
69
83
93
101
101
105
110
106
83
71
44
48
51
52
56
49
44
50
53
52
47
18
59
68
68
55
49
21
52
68
73
70
70
71
65
56
50
40
35
17
24
20
16
20
19
31
49
32
19
21
18
28
23
18
32
40
40
32
37
60
56
40
35
29
69
38
32
20
37
20
20
21
24
19
19
26
43
44
39
29
34
52
52
52
54
55
55
54
54
55
57
57
58
60
62
63
65
68
68
71
74
74
78
80
82
83
83
85
87
63
77
54
7
68
57
61
58
57
57
56
55
55
52
52
52
50
48
50
69
84
83
86
89
87
83
72
42
31
33
40
43
46
42
34
37
42
39
40
35
9
51
68
74
62
63
30
54
71
77
78
79
79
74
65
60
46
32
18
25
18
20
21
19
46
50
44
19
25
24
22
19
25
30
38
45
36
34
59
62
55
49
53
65
52
46
22
33
21
25
23
25
21
25
35
49
52
48
40
37
56
56
59
61
60
60
60
61
61
63
64
65
67
68
70
73
73
76
79
81
83
86
89
91
92
93
95
97
97
89
75
16
68
60
66
64
64
65
63
62
61
59
59
57
56
55
65
91
95
90
93
94
94
90
71
59
37
43
44
49
50
42
39
45
46
44
45
42
17
49
67
74
61
57
30
49
70
76
76
76
76
71
61
51
45
27
21
18
19
20
18
32
52
29
22
15
29
23
17
21
22
27
31
45
36
43
63
59
49
52
65
46
22
13
25
26
23
25
23
22
23
27
43
55
53
43
32
39
54
55
57
58
58
58
58
58
59
60
61
62
63
65
67
68
69
73
74
77
79
83
84
87
88
89
90
91
93
68
78
25
65
60
64
61
61
61
59
59
58
57
56
54
53
51
71
93
91
88
91
92
90
80
53
41
38
40
44
49
45
38
40
45
44
41
38
33
11
45
68
73
63
58
35
49
71
76
75
75
75
71
63
51
48
30
16
20
21
22
27
35
25
33
28
21
30
19
17
26
21
31
26
32
36
58
60
49
44
53
65
46
52
43
27
25
28
27
23
22
23
33
49
54
52
40
29
44
55
56
58
59
61
60
59
59
59
60
61
62
63
66
67
69
70
73
74
78
81
83
85
88
89
90
91
93
94
78
90
37
61
63
63
62
61
61
60
60
60
58
57
55
53
54
78
93
90
88
93
93
88
70
52
45
43
42
47
48
42
39
43
45
42
40
35
33
13
44
65
74
65
56
36
46
71
75
75
75
76
71
63
54
47
34
15
22
20
23
25
17
30
34
20
23
25
18
22
23
22
36
25
18
41
53
53
48
38
31
27
27
26
30
41
46
39
30
21
22
27
38
52
54
54
38
31
48
55
57
58
59
60
59
59
57
58
59
60
61
63
65
66
67
69
71
73
76
79
81
85
86
87
89
90
91
93
91
90
46
61
62
63
62
61
60
59
59
59
58
57
54
54
56
80
92
88
88
93
92
82
58
47
46
42
42
45
45
38
39
44
44
40
37
37
34
8
40
39
38
39
22
21
40
43
45
50
51
50
46
41
36
17
12
14
15
13
13
11
16
22
17
11
19
14
13
14
16
17
23
9
16
29
29
33
31
16
12
14
13
22
29
27
25
15
12
15
15
19
24
31
33
32
22
28
32
32
36
38
40
40
40
39
39
40
40
41
41
43
44
44
46
47
48
49
52
53
55
56
58
59
60
61
62
62
61
31
33
38
37
43
40
41
40
39
40
39
39
38
36
36
43
60
54
49
57
61
59
50
37
35
29
28
30
31
27
24
26
30
27
26
24
25
13
4
36
65
53
27
11
17
40
57
45
37
35
36
30
22
18
16
14
3
10
13
20
17
6
19
20
10
8
11
12
8
12
16
23
11
19
38
42
23
23
27
14
34
16
6
25
33
33
30
14
9
12
28
38
39
31
24
7
17
41
40
32
30
30
29
28
27
26
28
28
29
31
31
32
33
33
34
36
37
38
42
43
43
43
44
44
44
45
44
45
17
29
50
31
33
31
28
29
29
29
29
26
25
25
28
31
48
70
59
52
49
41
26
13
20
22
18
20
23
20
24
23
24
18
21
17
20
20
18
31
57
76
80
70
52
48
73
84
90
91
92
88
80
75
66
54
32
26
34
30
20
24
31
28
28
32
29
31
26
29
35
27
40
36
39
32
53
41
37
58
65
63
49
17
21
19
17
22
24
35
46
53
58
61
53
45
52
64
64
69
72
73
73
73
72
72
71
71
71
73
74
76
77
79
80
82
83
87
90
93
97
101
103
105
108
109
110
110
106
82
60
57
61
64
70
73
74
75
74
73
72
72
74
74
69
64
74
102
111
103
80
66
56
49
48
50
42
41
53
52
46
46
49
49
44
35
16
26
59
70
64
41
35
41
67
70
70
69
70
66
55
50
30
24
14
20
21
15
19
24
26
23
26
26
18
19
17
22
26
17
39
40
29
20
31
24
31
42
48
18
13
16
24
20
20
19
23
33
44
49
51
49
29
23
49
57
55
56
56
56
57
55
56
55
53
54
54
56
57
59
59
60
61
62
65
67
69
71
75
76
78
81
82
83
84
84
85
59
47
28
33
36
41
44
48
51
52
53
54
57
60
59
54
56
76
91
85
71
47
36
33
32
38
32
29
41
42
36
35
38
39
34
24
20
9
26
56
74
73
58
50
41
68
73
77
78
79
75
66
55
46
38
26
22
21
20
25
26
25
23
29
25
21
22
19
26
23
33
46
53
43
42
26
31
40
38
31
25
22
21
21
18
17
22
32
42
51
52
52
45
35
38
62
58
59
60
62
64
63
62
63
61
61
60
61
61
63
64
65
66
68
70
71
74
75
79
82
85
88
90
92
93
94
95
96
75
74
45
34
36
37
40
41
43
46
49
55
62
69
65
61
64
86
96
90
71
54
38
35
40
41
32
41
47
40
41
42
46
42
34
24
22
14
22
56
75
72
55
52
36
68
72
75
74
76
73
62
46
32
25
18
20
17
21
27
21
25
23
26
27
24
20
21
22
24
22
31
47
48
42
40
43
40
18
20
19
19
19
18
17
19
26
36
46
52
50
48
27
19
52
59
56
58
59
60
60
59
61
60
59
58
58
57
58
59
61
62
63
64
65
67
70
71
74
78
80
83
85
87
89
89
91
91
81
75
48
34
38
35
33
29
28
27
27
33
46
57
67
71
71
90
93
80
52
39
23
31
37
33
36
47
39
37
39
41
43
37
28
21
20
24
29
58
73
76
62
57
37
69
71
76
75
78
74
61
46
37
30
19
21
21
25
24
19
26
22
27
26
24
22
21
20
21
22
25
34
56
56
48
43
33
36
21
22
19
20
17
18
21
30
42
50
50
50
36
30
41
62
57
59
59
59
60
60
61
62
61
60
60
59
58
60
60
61
62
63
65
67
68
69
71
75
78
80
84
86
88
89
91
92
93
91
79
57
39
46
40
38
33
28
24
19
21
30
60
89
76
75
92
89
69
54
37
24
38
32
35
46
44
36
38
39
45
43
35
25
23
33
40
38
58
73
78
64
57
38
68
72
76
75
78
74
57
48
38
34
17
25
24
20
21
21
23
24
27
25
26
22
17
20
23
26
23
24
39
49
54
45
47
40
27
16
19
17
17
19
27
38
47
51
50
40
25
26
57
57
57
58
59
60
59
60
61
61
61
61
60
59
59
59
59
60
60
62
63
65
66
68
71
74
75
78
82
84
87
88
89
90
91
92
69
60
36
48
43
42
37
33
27
21
17
26
74
90
70
80
91
79
47
35
15
33
33
31
45
45
36
33
36
41
47
41
32
27
25
17
21
29
36
46
38
31
20
33
40
41
42
42
43
35
27
24
17
11
13
14
11
11
12
12
14
15
13
15
13
8
11
12
13
16
11
15
30
33
26
18
32
9
10
10
10
9
10
12
19
23
29
28
28
13
10
30
30
31
32
32
34
32
33
33
34
34
34
33
33
33
32
33
33
33
34
35
35
37
37
38
41
41
42
45
47
47
49
49
50
50
51
45
27
24
26
23
24
21
19
16
12
10
11
29
55
41
37
53
49
36
9
5
13
21
15
22
27
22
18
19
21
25
26
19
16
14
11
4
2
46
41
64
59
46
18
44
54
59
58
59
61
56
35
42
18
15
16
20
17
15
19
15
17
20
23
19
22
15
12
18
17
20
20
15
26
44
51
37
18
28
12
16
13
12
16
17
27
33
37
37
29
28
27
43
48
42
47
44
48
45
47
46
48
48
47
49
45
47
45
46
46
46
47
49
49
51
52
54
55
57
60
61
65
66
69
69
70
71
71
73
47
14
45
32
36
30
30
25
20
15
12
25
73
68
56
60
65
46
54
39
14
27
26
30
32
30
28
27
31
35
33
31
24
20
22
19
51
60
61
78
81
75
52
51
66
79
82
83
85
81
61
53
34
24
23
23
24
24
26
25
21
24
36
30
33
38
25
23
39
31
33
32
35
41
44
29
34
21
19
22
18
18
23
36
46
46
36
17
21
42
56
59
58
62
63
64
64
64
66
65
66
67
67
67
67
67
66
66
66
65
64
66
67
68
70
72
75
77
77
80
84
87
90
93
96
98
99
100
103
65
40
46
49
48
47
46
44
42
45
47
71
94
96
67
34
19
15
23
33
37
45
51
43
33
33
40
50
52
46
41
32
31
31
28
37
37
47
66
74
65
41
43
61
71
74
74
76
71
55
38
21
17
21
22
24
21
20
28
22
24
34
25
29
42
28
20
31
17
32
34
25
36
60
37
25
16
19
19
18
20
24
25
16
13
21
41
54
55
52
51
54
55
56
56
56
57
57
57
59
59
60
61
61
60
59
59
57
58
59
59
60
61
62
64
65
68
70
73
74
77
80
83
85
86
87
88
87
52
36
40
41
43
42
42
39
42
43
41
62
75
52
25
29
33
38
38
34
42
48
38
29
26
31
42
48
45
40
30
25
28
24
19
26
37
48
67
75
69
51
49
62
73
77
78
80
76
65
35
18
20
22
21
26
25
25
32
21
23
34
23
30
48
42
23
35
32
22
37
33
41
45
47
32
20
21
20
18
17
20
25
37
47
53
54
52
52
55
57
56
56
58
58
59
59
59
61
61
61
62
63
63
62
62
62
62
61
62
61
62
63
65
67
69
70
72
76
78
81
82
85
87
90
92
92
94
75
40
37
42
46
48
46
47
50
50
49
48
44
34
37
40
38
34
29
38
46
39
30
28
29
42
49
51
47
40
30
27
26
22
25
27
31
40
65
80
75
55
47
61
73
76
78
78
74
54
29
24
22
21
20
25
25
24
32
21
21
36
20
24
36
48
27
27
47
24
26
36
30
46
38
26
18
19
18
20
26
37
45
50
49
49
51
53
55
55
55
54
55
57
58
58
57
59
60
60
60
60
61
62
61
62
62
63
62
61
61
62
63
63
65
66
68
70
72
74
76
79
82
84
87
89
89
90
85
52
31
43
44
47
48
50
51
49
48
45
44
43
45
46
40
35
38
44
37
30
32
32
35
47
51
49
43
32
25
24
22
22
22
21
25
37
75
90
87
68
51
63
73
76
78
79
73
45
24
21
22
21
22
25
24
28
25
26
24
44
25
28
39
48
39
24
39
26
21
41
26
28
40
30
19
18
21
25
35
43
47
49
50
51
53
54
54
54
55
57
57
56
57
58
59
59
58
60
61
60
62
62
62
63
63
63
63
63
63
63
63
64
65
67
69
71
73
75
77
80
81
85
87
88
89
90
91
53
32
42
43
46
49
52
51
50
50
49
47
46
51
48
40
39
43
39
31
30
31
34
45
53
52
45
35
27
24
25
23
28
22
22
25
37
78
86
83
73
51
61
73
75
77
77
74
55
31
21
21
23
26
26
26
32
26
31
29
39
22
32
36
33
51
28
34
34
26
31
30
28
40
49
34
17
22
33
40
45
47
49
52
52
52
55
54
54
56
55
56
56
57
59
58
57
60
60
60
61
61
62
62
62
62
63
64
64
63
63
64
66
66
66
69
71
70
74
75
78
81
83
86
87
89
90
91
58
36
39
42
44
48
51
51
53
50
48
51
56
54
45
39
42
38
33
37
37
34
44
54
55
47
38
28
21
21
25
30
40
23
21
22
31
73
85
83
70
49
62
73
76
78
78
74
40
23
19
20
22
23
30
29
29
29
29
48
32
23
33
33
31
36
37
45
32
18
26
30
21
28
24
41
37
37
39
40
45
49
51
52
53
54
55
54
55
55
55
57
56
57
58
58
57
57
59
61
60
62
62
62
61
63
62
64
64
64
64
64
64
67
67
69
70
71
72
74
78
81
83
84
86
88
89
90
76
47
39
39
42
45
51
57
56
54
54
60
59
51
40
37
32
30
37
40
36
38
49
55
53
43
28
21
19
22
30
41
46
37
