P2
128 128
255
1
1
2
3
2
2
0
1
4
5
5
2
4
14
24
26
11
5
6
2
1
2
2
2
2
2
6
4
3
3
2
3
1
1
1
2
1
0
2
2
0
1
0
0
0
0
0
0
2
1
1
1
1
3
0
1
1
0
1
1
2
2
1
2
2
2
1
1
1
1
0
0
0
0
0
3
4
4
7
1
13
18
12
7
2
4
3
1
1
2
1
2
0
0
0
1
1
2
0
1
24
28
10
1
29
59
31
6
6
2
0
2
0
1
1
1
1
0
2
0
3
0
1
4
3
18
24
30
2
2
2
2
0
1
0
0
4
7
5
1
6
15
24
25
12
4
7
3
1
0
0
2
1
2
5
5
4
2
1
2
2
1
0
0
0
1
0
2
2
1
0
0
1
0
0
1
0
0
1
1
1
3
1
1
1
1
1
2
1
1
0
2
1
1
0
1
1
1
0
1
1
0
0
3
4
4
6
2
11
21
17
10
4
3
3
1
2
3
1
2
1
1
1
0
0
2
1
2
21
35
20
4
20
61
51
5
7
4
1
1
0
0
1
2
1
0
0
0
2
1
0
4
3
19
34
44
1
1
0
1
1
2
1
3
7
7
2
1
7
16
22
23
12
3
5
3
2
1
1
1
2
4
4
4
4
2
2
1
1
1
0
1
0
1
0
0
1
2
0
0
0
0
0
0
1
0
0
0
0
1
1
1
1
1
0
2
2
1
1
1
0
0
1
2
0
0
0
0
2
1
1
2
4
6
5
5
2
17
19
12
7
0
4
2
3
2
3
3
2
1
0
0
0
0
1
1
6
29
32
12
3
39
64
31
4
6
3
1
0
0
0
0
0
0
0
1
1
1
2
5
31
35
29
52
1
0
1
0
1
1
0
5
6
3
1
3
6
14
20
23
11
3
5
4
2
1
2
1
0
4
5
4
4
2
2
1
1
1
1
1
0
1
1
0
1
2
1
0
1
0
0
0
0
1
0
0
0
1
1
0
0
1
0
2
2
2
1
0
1
1
0
2
0
1
0
2
2
3
0
2
3
5
5
4
3
11
22
15
9
4
1
1
1
2
1
3
3
2
1
0
1
1
0
0
1
17
37
25
6
14
56
57
13
6
4
1
1
1
0
0
1
1
1
3
3
3
5
36
40
30
4
55
0
0
1
0
1
1
2
6
4
1
2
2
6
12
19
24
13
3
5
5
2
1
1
1
0
4
6
4
3
2
2
2
1
1
1
0
0
0
0
0
1
1
1
2
2
2
0
0
1
1
1
1
1
1
1
0
0
1
1
3
3
1
2
0
0
0
2
1
1
2
1
2
2
1
1
2
3
5
5
4
5
4
19
18
10
6
3
1
0
1
0
2
1
1
2
1
1
1
0
0
1
3
28
37
16
0
30
65
41
4
5
3
2
2
0
0
2
1
3
5
4
8
39
39
23
2
1
55
1
1
2
0
1
2
4
7
2
1
2
2
3
11
19
25
15
4
7
5
1
1
1
0
1
4
4
4
3
2
3
3
1
1
1
0
0
0
0
0
0
1
1
0
1
1
0
2
1
1
1
2
2
2
2
2
2
2
1
2
4
3
2
1
0
0
2
1
1
2
0
0
1
1
0
1
2
1
4
6
4
2
14
18
12
6
3
0
1
0
1
2
2
1
0
1
2
1
0
1
0
2
14
37
28
9
8
50
62
19
5
4
3
2
1
0
3
4
3
3
9
39
38
25
3
1
1
55
2
2
0
0
1
2
6
5
0
3
4
1
1
11
21
24
13
3
8
4
1
0
1
1
2
3
4
5
3
1
2
3
1
0
2
1
0
1
0
0
0
0
1
0
1
0
2
3
0
3
2
3
2
2
2
0
1
1
1
0
1
2
1
0
0
2
2
0
0
1
0
0
0
1
0
1
3
2
5
7
5
4
13
14
13
8
4
1
1
2
0
0
1
2
0
0
1
1
1
2
1
2
1
27
39
18
3
23
64
49
3
8
4
1
0
1
2
3
4
7
42
43
26
5
2
3
5
55
0
0
1
1
1
3
4
2
1
4
3
1
0
11
22
24
12
4
6
3
1
0
1
1
1
3
4
4
4
2
1
1
1
1
0
0
0
2
1
1
1
0
0
1
0
1
1
3
1
3
4
2
1
1
3
2
1
1
1
3
2
0
0
1
0
1
1
0
0
0
1
0
0
1
1
0
3
4
2
4
4
2
12
14
12
9
5
3
2
1
0
0
1
1
1
1
1
0
0
2
2
3
4
12
38
33
12
2
44
68
29
4
6
4
0
1
4
4
6
39
41
21
2
2
3
2
2
54
1
1
2
2
3
4
3
1
3
5
3
1
1
12
22
25
13
5
6
3
2
2
2
1
1
4
5
4
4
2
2
3
2
1
1
0
1
2
2
2
1
1
1
1
0
1
0
3
2
4
3
2
1
0
2
2
2
3
2
3
4
2
1
2
0
2
1
0
0
1
1
0
0
0
1
1
2
4
3
4
5
1
12
14
13
10
7
5
2
1
1
1
1
0
0
0
0
0
0
1
2
2
3
4
34
47
24
3
30
74
60
8
9
7
3
3
5
6
38
62
45
7
6
5
3
1
1
4
2
2
2
3
4
0
2
4
5
4
1
1
2
11
22
26
13
6
7
3
1
1
0
0
0
4
5
4
3
1
2
3
2
2
2
1
2
0
1
1
1
1
1
1
1
0
1
1
1
2
1
2
3
2
0
2
4
3
2
3
5
3
2
2
1
3
1
1
0
1
1
0
0
0
0
1
2
4
3
2
5
1
9
13
11
8
7
6
3
1
1
1
2
1
1
1
1
0
1
2
4
4
3
4
16
46
39
13
6
48
77
37
4
8
7
5
5
38
62
44
11
7
6
2
1
3
3
58
1
1
2
3
0
6
8
6
4
0
1
1
2
11
22
25
11
5
7
3
1
1
1
0
0
4
5
5
4
1
2
2
1
1
0
1
0
1
1
1
0
1
1
1
0
1
1
0
0
1
0
2
5
6
10
16
17
18
17
13
4
2
5
6
4
3
0
0
1
1
1
1
1
0
0
1
2
4
3
2
3
0
8
13
11
7
6
6
5
2
1
1
2
1
1
1
1
1
3
4
5
4
3
3
4
33
49
27
5
21
69
67
16
6
7
7
35
61
44
10
5
8
3
2
3
3
3
58
0
0
3
4
4
12
10
7
8
3
1
1
3
12
22
27
13
4
7
4
2
0
0
0
2
5
6
4
3
1
2
2
1
1
0
1
2
2
1
1
1
1
1
1
1
1
1
2
4
7
10
12
14
18
27
32
29
29
32
36
35
30
20
6
4
4
3
2
2
1
2
0
0
0
0
1
2
3
3
2
3
1
9
12
10
5
4
6
5
4
1
2
1
1
1
1
1
3
4
5
4
4
3
2
1
17
46
42
16
2
43
78
48
6
3
31
58
44
13
3
7
6
1
4
4
4
0
57
1
1
5
0
11
17
11
10
10
5
1
1
3
12
21
26
13
5
7
4
2
1
0
0
1
5
5
4
3
1
1
2
1
0
0
2
2
0
0
0
1
0
2
2
1
2
3
9
13
12
10
11
15
19
19
17
12
10
12
17
24
36
44
43
34
16
3
6
5
2
1
0
0
1
1
2
3
4
4
2
3
1
8
12
10
3
1
4
4
5
2
2
1
1
1
2
3
3
4
5
4
3
2
1
1
5
31
50
33
8
16
64
74
27
26
55
42
11
2
6
5
2
3
5
5
1
0
57
1
5
4
7
19
22
11
14
11
6
2
1
3
12
22
28
16
6
8
5
3
2
1
2
2
4
4
3
3
1
1
3
1
1
1
2
1
1
1
1
2
1
6
5
4
1
8
11
8
3
0
3
7
8
7
9
7
3
4
4
4
4
17
33
49
52
35
8
6
5
2
2
2
1
2
3
4
5
4
3
4
0
8
13
10
3
1
2
3
4
3
1
2
3
2
3
4
4
4
3
3
3
1
1
0
1
13
43
49
22
2
33
74
58
54
44
11
4
5
5
1
2
3
3
2
3
0
58
4
7
1
15
27
27
14
19
14
6
1
1
3
12
23
29
15
6
9
6
3
2
2
3
3
4
6
5
4
2
2
3
2
1
1
2
1
1
1
0
4
11
8
4
5
3
9
9
7
9
6
3
6
8
8
8
9
6
0
4
6
4
3
3
14
38
57
50
21
2
6
4
3
2
2
3
4
4
4
4
6
3
10
13
10
4
1
0
2
3
3
2
1
2
3
4
3
2
2
1
1
2
0
0
0
1
0
22
52
40
13
7
54
83
60
15
1
6
5
1
2
4
1
1
1
2
1
62
7
4
9
22
36
29
23
23
14
5
1
1
3
11
22
29
17
6
10
6
3
2
2
2
3
4
5
6
5
3
3
3
2
0
1
1
1
2
6
5
1
10
8
12
11
3
8
7
6
8
10
8
7
7
7
7
6
5
5
6
5
3
2
4
4
2
25
52
56
35
7
7
6
4
3
3
3
3
3
3
4
3
12
14
11
5
1
1
1
2
3
4
2
2
4
4
2
3
1
1
0
2
1
1
1
3
3
4
37
52
28
12
86
116
45
2
6
7
3
1
3
3
2
1
4
0
2
60
4
3
17
32
44
21
29
26
14
5
1
1
4
13
24
31
19
5
8
5
2
1
1
2
2
3
4
5
4
3
3
4
3
1
1
1
1
0
8
9
15
18
12
7
2
2
6
0
1
4
4
8
11
11
9
8
8
5
5
3
1
2
2
1
3
3
1
15
40
61
53
19
6
9
7
4
4
4
4
2
3
1
11
16
12
6
2
3
1
2
4
6
8
2
3
2
0
2
0
1
0
1
0
1
2
2
2
3
14
45
43
67
132
94
17
5
6
3
0
3
3
2
2
3
1
5
5
11
2
11
25
42
42
9
29
26
15
5
1
1
5
13
23
31
18
4
8
6
4
2
1
1
3
4
3
3
3
1
2
3
3
3
3
1
0
5
1
16
9
7
5
3
1
3
5
1
2
4
1
3
6
8
10
11
9
7
6
5
2
4
4
2
4
4
0
1
6
29
61
63
30
4
9
9
4
4
4
2
3
0
11
17
14
7
3
5
5
4
7
8
12
10
0
4
2
4
1
3
0
1
1
2
2
2
2
3
6
26
43
116
105
34
2
6
4
2
4
3
2
2
2
2
10
5
11
71
7
18
35
45
27
10
30
25
15
5
1
3
5
12
22
30
16
5
9
6
3
0
1
0
1
3
4
3
3
1
1
2
1
1
2
1
3
7
7
14
3
5
4
5
3
1
3
3
3
2
0
2
3
5
9
13
12
8
7
6
4
4
2
1
3
2
2
3
4
1
22
63
79
65
30
6
9
5
5
3
4
1
11
18
15
6
3
4
7
7
14
15
17
18
8
2
2
3
0
2
1
1
1
1
1
2
2
4
3
26
81
87
36
1
5
5
1
3
3
2
3
2
1
11
4
9
36
90
12
27
43
37
11
14
29
24
14
6
0
3
5
12
24
30
15
5
8
5
2
1
0
1
1
3
5
4
3
0
1
3
2
2
0
1
5
4
18
12
1
5
4
3
4
2
3
4
5
5
1
2
4
5
7
10
10
11
10
5
2
2
4
3
4
6
3
4
9
11
12
19
46
84
87
23
13
5
4
3
5
3
12
19
15
6
1
2
6
11
19
22
22
30
19
3
2
1
1
2
0
1
1
1
0
1
2
3
16
65
75
31
2
5
6
1
3
4
3
5
2
2
10
13
4
22
78
68
17
37
43
21
1
14
27
24
14
6
0
2
5
14
24
28
15
5
8
5
2
0
2
2
1
3
4
3
2
1
2
3
1
1
1
3
3
15
14
0
5
6
3
2
2
2
4
4
4
5
1
0
3
3
5
9
10
12
7
3
2
1
3
7
4
7
12
12
11
7
4
6
8
26
90
74
6
10
4
3
4
4
14
19
16
6
2
1
3
11
22
31
20
43
33
12
0
0
0
2
0
0
0
0
0
2
4
6
52
80
44
5
5
7
3
2
4
0
4
1
1
9
17
12
18
60
69
19
25
43
31
5
2
12
25
24
15
6
0
2
6
14
22
27
15
5
8
4
2
1
2
1
0
3
4
3
2
1
2
2
1
1
2
0
10
13
2
4
4
3
1
1
2
3
3
5
7
5
2
2
5
4
5
8
11
14
10
5
5
9
4
10
17
16
9
3
3
3
4
5
9
4
49
99
59
3
10
5
3
4
14
19
16
7
1
0
3
9
24
36
24
45
46
24
6
1
0
1
0
0
0
0
0
4
1
35
74
53
10
6
9
5
1
5
0
4
0
1
7
16
13
21
49
58
26
12
32
37
12
2
1
10
25
23
14
8
1
2
6
14
23
28
14
5
8
4
2
1
2
1
0
3
3
3
3
1
2
2
1
1
1
8
12
3
4
4
3
1
3
5
3
6
6
7
7
4
2
5
4
1
4
7
11
12
8
8
10
4
18
21
14
5
2
4
4
3
3
3
2
7
8
68
100
44
7
11
6
6
14
19
16
7
0
1
2
9
24
40
28
34
51
34
16
1
2
1
1
0
1
1
2
6
18
69
65
20
4
8
6
0
5
3
5
2
3
3
11
9
24
44
53
26
3
19
30
22
0
2
3
9
26
24
14
8
1
2
6
14
23
27
14
5
8
4
1
0
2
2
1
2
3
4
4
2
1
3
1
2
2
9
4
2
2
3
2
1
1
1
7
9
5
7
6
3
3
3
1
3
5
7
10
10
10
7
17
26
18
7
4
3
6
4
2
2
4
5
3
6
8
17
83
97
45
3
10
11
18
20
15
7
1
0
2
8
22
41
30
18
47
43
26
9
1
2
1
1
1
2
4
4
52
78
36
5
4
6
0
5
5
2
3
2
1
7
6
26
44
48
27
4
8
27
15
5
3
0
3
8
25
24
14
7
2
1
6
14
23
28
15
6
10
5
1
1
0
1
1
2
3
4
4
1
0
2
3
1
8
8
0
0
1
3
1
0
2
7
10
7
5
7
4
2
3
3
6
4
5
7
13
10
9
25
25
11
4
2
3
4
5
2
2
1
1
4
3
4
6
6
28
82
101
65
8
16
22
23
16
7
1
0
1
8
22
40
31
5
39
51
39
20
4
3
1
1
2
4
1
33
77
57
9
8
8
2
2
4
1
5
1
0
4
6
20
45
50
27
7
7
15
9
2
2
2
1
2
9
24
23
13
7
2
1
5
13
22
27
16
4
9
5
3
0
1
0
2
2
3
4
4
2
0
2
9
5
15
7
5
0
0
2
1
2
3
7
8
7
8
5
1
2
0
3
6
4
8
10
10
21
32
22
5
5
7
7
5
3
2
3
3
1
2
3
2
2
2
4
3
18
69
107
58
9
26
25
17
7
1
0
0
7
23
40
32
8
22
49
51
33
13
2
2
1
3
4
17
66
69
22
5
9
4
1
4
2
4
0
2
2
2
13
43
58
32
6
6
13
9
38
3
3
0
0
1
7
23
23
13
6
2
2
5
13
23
27
15
3
8
4
3
2
0
0
1
3
4
4
3
2
3
10
18
16
18
4
5
1
0
2
2
4
5
6
6
7
4
3
3
3
2
6
9
6
8
24
34
30
17
3
3
4
4
5
3
4
4
3
3
0
1
2
1
2
3
4
6
5
13
83
104
29
25
29
19
9
2
0
1
8
22
38
33
11
5
32
55
49
28
7
7
3
4
4
49
76
37
1
8
6
1
1
3
1
2
2
1
1
4
38
64
41
7
5
14
9
2
36
2
1
0
2
4
10
26
24
13
6
1
1
4
13
23
28
16
3
8
4
3
2
1
0
2
5
4
3
3
2
4
28
19
29
13
3
3
1
1
3
3
5
6
6
7
4
2
4
3
3
8
12
9
10
36
42
27
10
3
6
7
4
2
5
4
4
4
1
0
1
1
3
3
2
1
0
5
6
5
34
104
79
14
32
19
8
3
1
1
8
21
36
32
11
2
11
41
52
47
44
35
33
26
27
74
54
8
5
7
2
0
1
2
1
0
1
1
2
28
66
52
11
3
14
12
2
2
36
1
1
1
2
3
8
27
26
14
6
0
0
3
13
23
29
18
4
8
5
4
3
3
3
3
4
3
4
4
4
4
45
9
40
7
2
3
2
1
3
3
4
6
7
6
2
3
1
2
10
15
5
18
41
43
21
3
7
4
4
2
4
6
4
1
3
5
4
3
4
3
1
0
1
2
1
2
4
7
2
61
102
25
34
21
8
2
1
0
8
22
36
32
12
3
7
53
99
83
43
29
36
44
80
71
20
3
6
5
1
0
0
2
1
1
0
5
15
61
64
20
2
13
15
3
2
2
35
2
0
1
2
5
7
24
26
15
6
1
1
4
13
24
31
19
6
10
5
3
1
0
1
3
5
4
3
3
4
23
50
20
42
3
3
4
2
1
4
4
7
5
3
5
6
4
2
8
15
2
28
43
31
10
8
7
6
7
3
3
5
5
4
2
2
4
7
5
1
3
2
1
1
4
3
2
3
6
11
19
94
65
27
25
8
3
2
1
8
22
39
35
13
14
68
117
99
42
13
11
13
17
95
106
22
4
4
1
2
3
3
2
0
3
1
6
49
71
34
3
9
13
5
1
1
0
33
1
2
3
2
5
7
23
25
16
7
2
2
5
13
24
30
17
3
9
7
5
3
2
3
2
3
3
4
4
5
39
44
34
39
2
4
5
3
2
4
7
7
2
5
5
4
5
8
13
4
35
43
24
1
6
9
2
1
2
5
5
1
3
5
4
4
2
2
3
1
4
4
3
1
2
3
2
2
3
9
4
60
92
16
26
10
3
1
2
9
26
46
36
17
85
116
82
33
14
11
4
7
8
63
115
45
5
5
2
4
4
3
3
3
1
2
32
70
49
8
5
11
6
1
2
1
0
33
3
4
3
2
5
7
22
24
16
8
2
2
6
15
25
31
18
5
11
8
4
2
1
1
2
4
4
4
2
3
48
33
47
33
1
3
5
5
3
8
6
2
5
2
7
5
3
10
5
35
37
14
4
7
2
7
4
3
4
6
4
2
4
6
8
5
4
6
2
2
4
5
1
0
2
5
6
2
2
5
9
16
76
60
25
11
4
0
3
14
34
40
31
96
115
65
22
18
12
3
8
8
12
35
100
53
6
3
2
5
3
2
2
3
3
13
60
61
18
3
8
8
0
1
1
2
1
31
3
4
3
2
3
5
20
24
16
8
2
1
6
15
26
31
17
5
10
7
4
1
1
1
2
4
4
4
0
6
54
17
56
27
2
3
2
5
6
5
5
3
0
5
4
6
11
6
32
31
7
8
5
2
7
7
4
2
2
3
3
7
8
6
6
5
5
6
2
1
1
2
2
11
11
11
6
4
3
3
6
7
31
66
41
9
5
2
8
18
24
42
88
99
51
18
16
11
4
9
4
5
10
33
96
52
7
2
3
3
1
3
5
2
3
42
71
34
3
8
9
1
2
1
1
2
1
2
3
3
1
2
2
4
20
24
15
8
2
1
5
15
26
31
16
4
8
6
4
1
1
0
1
5
4
3
2
15
52
3
55
21
1
3
2
5
7
6
4
4
3
1
6
9
5
29
24
6
9
9
9
6
8
4
4
2
3
4
6
9
4
3
6
4
5
8
5
3
2
0
11
17
8
9
3
2
2
3
4
8
4
22
47
30
2
4
1
17
37
65
61
29
13
13
3
5
6
2
6
9
8
46
101
47
4
3
2
4
1
3
1
4
24
72
56
10
4
10
3
1
2
1
1
1
1
28
1
0
0
1
2
6
21
23
15
8
4
2
5
15
26
31
16
4
8
5
3
1
1
2
1
4
5
4
6
24
48
13
41
19
7
3
2
5
8
6
4
4
2
5
1
12
26
21
3
8
5
7
8
7
3
3
6
8
3
5
8
3
3
5
4
5
5
7
8
7
9
10
14
4
8
8
7
3
4
4
5
5
10
10
17
33
12
10
27
40
37
24
12
8
8
3
6
2
0
2
6
7
5
62
102
34
4
0
3
5
1
3
3
13
56
71
26
2
9
6
0
1
1
1
0
1
1
27
0
0
0
0
1
6
19
22
15
10
5
3
5
15
27
31
16
5
7
4
4
1
1
1
0
3
4
2
8
38
50
26
37
20
6
1
1
3
4
5
4
3
1
1
14
24
14
4
7
6
5
11
7
8
9
3
0
3
8
8
1
4
1
5
4
4
5
2
3
6
8
8
3
4
5
4
5
5
7
6
6
7
7
11
8
25
24
34
32
20
6
5
9
3
3
4
1
1
0
2
6
6
4
78
101
21
2
2
3
2
3
6
13
38
66
44
7
5
8
2
1
1
0
1
1
1
0
27
0
0
0
1
0
5
18
22
15
9
5
2
4
15
27
31
17
5
8
4
3
1
1
1
1
3
4
1
6
50
50
33
35
24
12
4
1
3
4
6
5
3
1
10
21
11
2
6
5
3
9
7
6
7
7
3
1
6
5
2
4
2
1
1
3
3
6
3
0
3
0
4
2
3
4
1
4
10
8
7
5
9
10
10
8
12
14
22
10
8
6
4
3
5
3
1
2
0
7
7
10
8
8
98
96
9
4
1
4
1
5
6
23
54
53
17
4
9
5
0
1
0
0
0
1
1
1
27
1
1
1
1
1
6
18
23
17
9
4
0
4
15
26
31
18
4
8
3
3
0
0
0
0
2
3
1
3
57
45
32
31
25
19
11
2
3
3
5
4
3
7
18
13
2
8
7
3
11
4
7
10
8
7
3
8
2
6
2
4
2
0
2
3
3
9
10
5
3
1
3
4
2
2
6
8
9
5
8
8
11
5
6
7
0
6
8
6
7
1
4
2
2
0
3
1
11
22
18
18
13
33
114
78
5
4
1
3
2
4
7
40
61
30
5
8
8
2
0
1
1
0
1
1
2
1
29
1
1
1
0
0
5
18
24
18
9
3
1
5
14
26
31
18
5
8
4
3
0
0
0
0
2
3
2
0
55
39
27
25
20
20
18
7
3
7
5
3
9
17
11
3
9
8
4
11
6
2
2
5
12
13
8
3
8
0
3
4
5
4
7
4
3
5
11
10
6
6
3
3
5
8
9
5
3
7
9
6
1
12
14
7
7
10
6
2
5
6
1
0
0
3
3
6
27
25
21
29
27
62
115
47
7
3
2
2
2
7
26
61
51
10
5
9
3
0
0
1
1
0
0
0
1
0
29
0
1
2
1
1
5
20
25
17
8
2
1
4
13
26
31
17
4
8
4
2
1
1
1
0
2
2
3
3
53
37
24
18
16
17
20
14
2
8
6
11
20
10
3
8
11
3
13
4
3
3
1
2
5
10
6
6
6
4
3
2
6
6
6
4
5
4
5
8
5
6
9
6
8
9
8
7
7
10
2
9
12
14
11
9
7
1
5
6
4
2
2
1
2
4
0
20
30
13
10
25
30
84
101
17
5
2
3
0
3
21
52
62
28
4
8
6
0
1
1
1
0
0
1
0
0
0
29
1
2
1
1
1
6
20
24
15
8
2
0
3
13
26
32
17
4
8
3
2
1
1
0
0
2
1
4
7
56
33
20
16
13
12
18
21
6
8
16
21
10
3
9
8
4
13
5
5
6
6
5
2
1
7
5
6
9
6
8
6
2
2
6
4
3
0
2
3
5
4
8
10
9
6
9
8
8
4
13
14
11
10
6
2
5
5
2
1
5
5
3
2
3
4
10
32
21
8
8
17
8
96
72
6
4
4
2
4
9
38
61
39
8
6
8
2
1
2
1
1
0
1
1
0
1
0
0
1
1
1
1
3
10
21
23
15
8
2
1
3
12
26
33
18
4
9
4
1
2
1
0
0
1
1
6
14
58
33
22
20
17
13
18
24
9
16
23
10
3
9
6
6
13
5
5
9
7
5
1
5
6
2
7
9
11
11
15
16
18
18
8
2
2
1
2
3
5
5
5
6
7
9
5
6
13
13
13
12
9
2
5
6
3
0
3
5
6
4
1
2
4
1
26
33
20
22
14
26
35
103
40
7
3
2
5
4
16
53
56
17
2
8
5
0
3
2
1
1
1
1
0
0
0
0
30
1
1
2
2
5
10
19
21
15
8
2
0
3
12
25
33
20
5
10
4
1
1
0
1
0
1
1
6
18
58
32
20
19
17
14
17
27
13
19
10
4
9
7
8
12
3
6
11
3
7
5
2
4
7
20
21
21
26
26
18
9
14
20
24
13
9
8
9
10
11
23
26
24
11
4
13
16
14
14
13
7
0
5
2
3
5
4
4
4
3
1
0
3
3
14
42
46
42
32
29
31
73
97
12
4
1
3
2
2
31
62
38
4
6
8
2
1
2
1
1
1
1
1
1
1
0
1
29
1
1
1
2
4
9
18
21
16
9
2
0
3
12
26
34
20
4
10
5
1
1
2
1
0
0
1
6
19
61
31
17
19
16
7
7
26
14
9
8
8
6
6
12
1
8
9
4
5
4
4
3
3
19
15
14
25
31
33
39
21
26
8
22
29
33
32
35
41
50
60
53
61
31
14
15
11
13
12
5
1
2
3
3
6
5
3
3
3
2
0
1
1
18
53
71
60
32
17
63
3
110
66
5
3
2
6
4
9
51
58
18
3
9
5
1
1
1
0
0
0
0
0
1
1
2
1
27
1
1
2
1
4
9
18
21
16
8
2
0
3
12
26
35
20
3
9
5
2
0
1
0
0
1
1
7
15
65
38
14
21
22
18
12
22
12
7
5
6
6
13
3
8
8
1
4
3
4
3
5
15
9
6
12
13
10
6
36
46
27
37
31
33
32
36
47
58
58
44
28
44
45
15
17
17
11
2
2
0
2
1
2
4
2
0
1
3
2
7
26
49
72
80
60
20
29
71
38
80
103
21
7
2
1
3
1
27
63
38
5
8
9
1
1
1
2
1
0
1
0
0
0
1
1
0
27
2
2
2
0
5
8
17
20
15
7
1
0
2
11
25
34
20
4
10
5
2
0
1
0
1
1
1
5
8
68
50
9
19
31
22
6
13
8
3
4
7
17
5
7
8
0
4
1
2
4
3
15
7
5
14
14
12
16
16
28
49
29
38
20
7
13
16
25
34
16
25
62
73
46
19
20
10
0
2
2
2
2
1
2
2
2
0
3
1
28
60
76
77
61
32
5
45
67
29
67
113
53
1
1
1
5
2
4
49
61
18
6
12
5
1
1
0
2
2
1
1
0
0
0
0
0
0
26
3
1
3
0
5
8
17
20
16
8
1
0
3
11
25
34
20
4
9
4
2
1
1
0
0
0
2
3
5
62
66
2
17
36
21
9
15
17
5
6
18
10
6
10
2
4
1
1
4
2
13
6
1
20
26
23
30
35
26
23
25
15
22
2
7
14
7
13
17
38
79
70
47
32
13
9
4
4
4
3
3
2
0
2
2
2
3
19
39
69
76
50
19
14
38
53
63
21
72
107
57
9
1
3
2
7
5
23
66
46
8
11
10
2
1
1
0
1
1
1
2
1
1
1
1
1
0
24
2
2
3
1
3
9
17
20
16
9
2
1
2
10
26
35
20
3
10
5
2
1
1
0
0
0
1
3
8
46
76
21
14
37
29
7
7
17
5
19
12
6
11
3
4
2
3
4
6
9
9
6
30
39
29
29
34
25
11
33
9
31
15
16
13
28
10
7
27
83
71
44
34
16
3
7
6
5
4
4
4
1
1
2
0
18
48
67
54
35
27
27
43
50
49
46
7
78
105
47
2
5
3
3
4
5
3
41
64
24
7
13
5
1
2
2
1
1
1
0
0
0
0
1
0
1
1
23
1
2
3
2
1
8
18
20
15
8
2
0
1
10
24
35
21
2
8
4
2
1
1
0
0
0
0
2
9
25
76
38
13
31
33
14
15
16
11
17
4
13
4
3
1
3
2
6
12
15
19
33
43
24
18
20
18
5
27
18
27
20
20
9
20
25
16
46
58
66
44
35
15
2
1
3
4
5
4
4
2
1
2
11
43
76
73
41
18
15
27
39
40
33
29
2
79
107
50
2
4
1
3
2
5
4
14
55
48
10
11
12
2
1
2
3
1
2
1
1
1
0
0
0
0
1
1
0
1
2
2
2
0
7
19
22
15
8
2
0
2
11
24
34
22
3
8
4
2
2
2
1
1
1
2
3
8
3
66
61
3
22
24
23
23
4
14
4
14
3
5
2
2
3
4
17
29
27
36
32
14
11
9
5
10
12
21
16
26
7
18
10
13
18
47
60
39
44
38
13
6
3
2
4
5
4
5
5
3
1
11
54
88
69
20
13
11
22
18
13
13
10
17
82
109
54
2
6
3
3
4
0
3
4
34
59
28
6
14
8
1
0
1
1
1
2
1
1
1
1
1
1
1
1
0
23
1
2
3
2
1
7
20
24
17
7
2
0
2
11
24
35
23
4
10
5
2
1
1
1
0
0
4
4
5
8
42
83
30
19
17
29
25
6
3
10
4
9
4
2
3
4
5
23
24
18
17
10
14
18
11
14
18
20
7
21
9
18
23
10
12
26
43
46
40
39
14
5
7
1
1
6
3
2
4
6
3
3
15
57
54
3
19
14
4
16
28
13
6
34
92
105
53
3
7
4
1
4
5
1
4
14
48
45
11
11
15
3
1
1
1
0
1
2
1
1
1
1
2
2
2
2
0
22
0
1
2
2
3
6
20
26
18
8
2
1
2
11
24
35
23
2
9
5
2
1
0
0
0
2
4
3
2
9
7
70
65
4
20
33
29
1
7
4
6
3
4
2
3
4
23
33
22
5
5
9
25
6
21
10
18
15
9
9
9
7
4
13
26
26
35
50
39
11
7
10
7
3
3
5
1
4
4
4
1
5
17
65
65
12
11
19
16
12
22
20
49
101
92
39
0
9
5
2
2
7
3
3
7
28
51
26
10
21
12
1
2
1
0
0
1
1
1
1
1
1
1
1
0
2
1
23
0
2
2
2
4
3
21
28
19
9
2
0
2
12
25
36
23
2
9
6
3
1
0
1
0
2
3
4
4
6
11
34
72
21
24
34
26
9
6
5
3
3
1
1
4
13
31
35
23
14
7
15
19
10
18
9
19
3
12
7
6
7
8
15
21
23
36
40
13
6
11
11
4
3
2
3
2
5
8
8
7
9
8
46
68
31
10
24
31
25
19
26
86
80
28
1
7
7
3
2
5
7
2
4
12
40
44
13
16
22
5
1
2
1
0
0
1
1
1
0
1
1
1
0
1
2
1
23
1
1
2
3
5
2
20
28
19
10
2
1
1
11
24
36
24
2
9
7
4
2
1
1
0
2
3
5
5
3
10
13
61
37
25
47
32
7
2
4
5
6
7
7
25
34
35
26
18
23
19
7
19
4
17
12
27
19
5
9
13
19
24
25
34
45
39
24
7
5
13
8
6
1
5
3
6
14
14
7
4
4
3
27
60
51
22
23
37
39
22
34
64
27
2
6
6
5
3
4
7
4
2
3
22
52
33
9
20
15
4
1
1
1
1
1
0
1
1
0
0
1
0
1
2
2
2
24
1
1
2
3
4
0
19
26
18
10
3
1
2
11
24
36
25
2
10
7
3
2
2
2
1
3
4
5
4
2
8
7
60
44
46
66
25
5
0
1
4
6
5
21
41
37
20
22
16
15
19
7
12
8
10
23
14
39
13
7
13
50
55
46
44
43
31
14
4
10
13
4
5
4
6
6
15
14
8
3
3
6
4
20
53
62
33
11
37
46
26
37
57
16
3
6
5
4
2
5
8
1
2
6
39
54
20
11
17
9
9
5
1
1
1
1
1
0
1
0
1
1
0
0
1
2
2
25
2
1
2
2
4
0
19
27
18
10
3
1
1
11
24
36
26
1
9
6
4
3
2
2
1
3
5
10
8
5
7
1
60
55
59
53
4
4
5
6
2
18
30
36
44
13
1
16
2
4
15
18
12
1
5
18
9
27
17
4
56
70
53
45
18
13
23
6
6
14
6
4
6
7
3
15
14
7
3
2
3
7
6
17
50
67
51
10
31
55
40
41
53
7
4
6
5
5
0
9
7
2
2
15
54
44
11
15
11
2
8
9
7
5
3
1
1
1
0
1
1
1
1
1
2
2
2
25
1
0
2
2
4
0
18
27
18
10
3
1
1
11
23
34
25
1
10
8
5
3
1
2
1
1
8
13
3
5
5
6
46
61
47
39
2
4
10
8
10
26
33
35
34
10
1
14
7
5
5
14
7
10
14
12
3
26
14
47
76
55
40
24
19
5
20
6
8
11
4
5
7
5
12
14
10
5
4
3
3
5
3
10
41
67
60
23
17
54
54
34
59
12
4
5
5
6
2
10
3
4
2
28
59
29
12
19
6
5
0
4
6
8
7
5
6
5
3
1
1
1
1
2
2
2
3
2
1
1
2
3
5
2
19
27
19
10
4
1
1
11
23
33
24
3
11
8
3
1
0
1
1
2
10
7
4
1
3
8
21
56
25
37
4
11
11
0
25
37
23
13
15
19
2
12
5
4
1
5
1
16
18
13
11
22
27
76
57
37
28
10
22
3
23
4
14
13
9
4
6
11
12
11
6
3
3
3
3
4
2
5
31
64
65
37
3
46
60
21
58
12
2
4
3
2
5
9
1
2
5
46
56
17
16
17
6
8
6
4
2
0
2
5
6
9
9
7
5
3
3
3
1
2
2
24
1
2
2
3
4
1
19
27
19
11
4
1
2
11
23
33
23
2
8
5
3
1
1
1
1
3
7
6
1
1
1
2
6
39
26
33
11
11
3
24
46
44
12
7
21
12
11
6
9
6
2
7
4
9
24
24
23
14
41
60
33
21
13
6
23
6
20
10
21
11
3
7
12
8
8
9
6
3
3
4
3
4
3
1
22
59
68
46
11
36
65
8
60
14
3
4
3
0
7
6
2
1
20
60
41
10
18
9
2
4
5
6
7
6
5
5
2
3
6
8
8
7
6
4
3
1
2
24
1
2
3
2
3
0
19
28
20
11
3
1
2
11
24
34
23
3
9
5
3
1
1
0
0
2
5
5
2
0
0
1
8
11
8
7
10
1
15
40
36
20
9
5
22
6
16
10
14
11
9
3
3
6
6
15
10
46
40
41
23
7
15
7
21
13
8
24
14
1
5
11
9
5
4
9
9
5
3
5
6
6
5
2
13
51
65
45
17
24
69
5
62
22
6
4
3
3
7
1
0
1
38
58
21
10
16
3
2
1
1
3
5
7
8
8
7
4
1
2
3
5
6
6
5
4
3
25
1
2
1
1
3
0
19
28
19
10
4
1
2
11
24
34
22
1
9
7
3
1
1
1
0
2
4
5
3
2
10
19
11
29
32
21
3
11
31
38
15
14
17
7
23
7
14
8
25
6
11
0
4
11
7
4
41
60
46
38
11
4
14
11
14
26
43
39
31
27
21
14
7
3
1
7
12
7
3
5
7
6
6
4
15
48
66
49
19
16
65
19
57
26
3
3
3
6
6
1
2
10
51
45
10
15
13
1
2
2
2
3
2
0
4
5
6
6
5
5
4
2
1
2
6
6
6
26
0
1
2
2
4
1
18
29
19
11
4
1
2
12
24
35
23
2
8
6
4
1
0
0
1
3
5
5
3
3
17
16
36
65
54
52
6
34
40
21
8
11
26
12
23
10
10
12
12
0
11
9
10
1
14
28
64
56
46
28
12
7
18
7
31
44
26
4
12
29
51
58
44
19
3
6
12
9
2
3
7
7
12
33
59
76
70
39
13
10
58
31
49
31
2
2
1
9
5
2
2
23
56
30
9
19
8
2
2
2
2
4
5
4
4
4
2
3
4
5
6
5
5
4
0
3
6
25
0
1
2
3
3
3
18
29
20
11
4
1
2
12
24
35
23
2
8
7
5
0
1
0
1
3
6
7
6
14
22
6
43
56
40
44
26
50
23
2
10
9
23
16
20
9
3
5
16
8
14
17
1
17
8
60
63
44
31
11
13
6
8
36
51
25
9
8
18
17
15
43
62
50
20
9
13
10
1
1
5
24
52
68
65
47
29
33
24
8
49
41
40
40
2
2
6
10
2
2
3
35
52
18
12
17
2
3
1
1
1
2
3
3
2
3
1
1
0
1
3
3
7
7
5
4
5
20
1
1
1
3
6
4
19
30
20
12
4
1
1
11
24
36
24
2
9
7
4
1
1
1
1
4
7
12
20
26
18
8
42
66
25
25
46
31
9
10
13
11
10
18
13
4
10
19
11
25
3
22
16
10
45
72
49
31
22
6
14
11
50
73
54
40
47
46
40
35
3
20
18
38
30
15
17
13
3
3
21
56
74
64
42
25
21
21
19
2
41
44
29
45
4
2
8
7
1
1
7
45
44
12
16
12
1
3
1
1
1
0
1
2
1
3
2
1
0
1
0
1
3
3
3
6
6
19
3
4
5
6
8
7
22
33
21
12
4
1
2
11
23
34
26
2
10
9
6
1
2
2
3
4
25
45
29
15
5
3
24
35
42
38
17
5
16
4
8
19
17
10
3
13
15
24
13
28
24
2
9
27
71
63
32
20
15
9
26
67
87
60
40
38
35
33
14
32
41
31
17
17
21
17
19
17
8
19
68
84
57
26
20
24
24
22
19
3
37
44
20
45
10
2
9
5
2
2
16
54
35
12
18
6
3
3
2
1
1
0
1
1
1
2
1
0
1
2
2
4
7
6
5
5
4
2
2
3
4
6
9
8
24
35
22
13
4
0
2
12
23
35
26
1
9
6
4
1
2
1
5
6
46
45
22
5
4
17
49
65
44
4
17
5
14
12
16
23
25
9
15
1
23
3
31
8
16
12
19
62
71
45
20
16
10
24
70
88
55
14
0
8
7
60
65
83
15
39
24
10
16
16
21
25
1
67
101
63
15
34
46
34
4
8
10
5
32
44
14
45
13
6
9
1
1
1
33
59
27
13
13
1
2
2
1
2
2
1
1
2
2
2
0
1
3
2
3
6
7
7
7
7
6
20
2
2
2
3
7
6
23
36
23
13
4
2
3
13
24
34
26
4
12
9
6
2
2
4
8
10
62
49
7
17
22
50
63
42
6
11
6
11
7
16
22
27
29
5
14
16
14
17
16
21
21
2
35
63
52
25
13
16
11
58
65
35
27
20
27
30
27
88
79
102
78
33
16
14
15
16
27
28
27
84
53
20
37
59
48
60
7
5
5
9
29
44
10
44
15
11
6
2
1
5
47
52
16
11
7
1
2
2
1
1
1
1
1
1
1
1
2
3
4
3
4
7
7
8
7
4
6
25
2
2
3
5
7
6
22
37
24
13
4
2
3
14
25
34
25
5
12
9
6
5
5
18
18
2
40
41
21
20
71
65
35
6
18
6
3
7
19
27
19
31
39
4
3
19
8
13
2
2
6
20
55
60
41
23
17
8
51
57
18
41
55
31
31
35
58
92
46
45
62
24
11
8
13
19
33
25
45
58
36
38
55
51
32
51
15
3
3
13
25
46
6
43
15
14
5
3
2
16
55
39
10
11
3
1
3
3
1
0
2
1
0
1
0
2
3
4
4
5
6
7
6
1
5
20
30
42
2
2
4
5
8
6
21
36
24
13
5
2
2
14
27
34
23
4
12
9
6
6
18
24
21
48
55
31
27
92
79
13
20
26
10
15
10
10
14
17
18
26
50
18
3
11
11
8
2
6
6
50
70
56
36
25
3
53
54
15
12
19
45
35
27
18
35
33
39
34
31
29
13
8
8
20
36
20
47
57
25
22
26
12
58
41
18
13
4
15
19
49
2
46
17
17
4
3
4
32
57
27
10
11
0
2
3
2
1
2
1
2
1
0
2
3
4
5
6
7
5
1
7
15
32
33
30
46
1
1
6
8
9
7
23
39
25
13
6
3
2
13
26
35
22
3
9
7
3
5
27
36
65
25
18
44
79
85
27
22
30
21
29
9
14
6
10
12
15
13
43
28
5
1
3
2
4
6
33
67
58
38
23
4
57
61
12
14
15
10
17
25
20
9
13
25
26
15
11
23
13
5
4
19
40
23
36
53
27
12
8
33
36
17
23
19
1
12
16
51
9
48
22
17
2
3
8
42
47
16
13
7
2
2
2
1
0
3
3
3
1
1
4
5
5
6
6
4
5
19
24
35
29
18
10
43
4
7
10
10
10
11
26
42
27
14
6
3
1
12
24
34
23
3
11
8
3
6
12
29
14
37
47
35
46
23
16
29
15
9
29
16
17
13
15
15
12
12
35
27
3
0
0
2
4
13
58
63
47
34
3
51
71
18
16
16
12
10
9
14
20
25
24
25
23
14
7
16
12
4
2
17
40
28
18
38
27
21
19
29
31
23
30
25
3
10
14
54
15
51
27
15
1
2
12
48
35
12
14
3
2
2
2
0
0
1
2
1
1
2
4
5
4
5
4
8
29
33
32
20
9
3
1
46
6
8
9
8
11
11
26
43
28
15
7
3
1
12
24
34
24
1
10
9
4
7
14
10
13
24
23
14
17
11
38
33
5
25
43
25
18
17
16
12
5
4
28
29
9
3
1
3
3
40
64
51
44
17
46
81
30
15
16
11
9
8
9
11
14
17
18
17
12
8
11
14
9
5
4
14
40
33
9
31
25
20
16
19
19
20
33
28
5
10
10
57
21
54
33
13
2
1
24
55
29
13
12
0
2
1
1
0
0
1
1
1
2
3
5
5
5
5
7
32
35
30
12
3
1
1
0
48
5
6
7
6
10
7
24
41
27
14
7
3
1
12
23
34
25
2
10
13
16
18
13
4
26
27
24
25
6
25
32
20
17
25
32
9
23
22
16
18
14
14
15
42
28
7
0
2
17
55
54
48
37
35
96
51
18
18
10
11
10
8
6
8
7
7
7
5
3
7
12
11
8
7
6
10
38
37
3
25
17
15
13
11
10
15
32
28
3
8
4
57
31
59
39
9
1
3
39
54
21
14
9
2
1
1
1
0
0
1
2
2
2
2
4
6
6
4
30
42
27
9
2
3
2
1
4
4
5
8
8
7
10
6
25
42
27
14
6
2
1
12
23
34
25
1
12
14
11
7
12
31
40
31
28
11
14
20
23
4
30
40
20
2
13
29
29
23
37
37
23
38
42
10
3
2
40
60
50
46
7
96
83
23
29
12
8
10
10
10
10
7
4
3
3
3
1
7
11
8
7
8
6
6
33
40
0
26
16
11
13
10
7
13
33
28
0
7
2
54
41
59
46
2
2
9
49
47
16
15
4
2
1
1
1
1
1
2
2
2
2
1
4
7
1
24
40
27
7
2
2
2
3
5
6
59
6
7
6
6
10
6
26
43
28
15
7
3
3
12
23
34
25
2
12
13
17
14
18
14
18
16
19
13
4
14
26
14
37
26
7
3
2
10
20
17
23
24
41
19
56
30
5
17
56
56
51
24
71
106
26
33
24
9
6
9
10
9
13
13
7
3
1
4
5
11
13
10
7
8
6
6
30
42
6
28
17
9
12
11
7
18
39
28
3
8
6
51
49
55
56
4
4
19
56
39
16
13
3
2
0
2
2
2
2
2
2
2
2
3
7
6
15
39
32
10
0
1
0
2
6
7
7
62
3
3
2
5
9
6
27
43
27
14
6
3
2
11
22
34
27
7
14
6
14
9
13
11
1
14
17
6
11
9
26
9
34
17
6
4
4
5
9
5
11
36
39
2
43
58
17
41
60
53
49
33
111
63
14
28
23
10
6
7
8
7
10
12
11
8
5
6
6
10
14
13
9
10
8
8
27
44
14
28
21
8
9
9
7
24
43
23
4
7
9
50
56
44
62
11
4
29
57
29
15
8
5
1
1
2
2
2
2
2
2
2
2
4
7
3
32
39
16
1
1
1
4
7
8
5
2
62
1
1
2
4
9
7
29
45
28
13
4
2
1
10
21
35
29
12
19
15
22
7
30
18
16
5
23
14
6
24
36
12
40
23
2
8
7
6
24
16
17
54
48
17
30
38
21
58
57
55
15
102
99
14
20
23
23
12
7
7
8
7
6
8
10
9
5
6
6
10
15
12
6
7
6
8
26
43
21
28
26
9
10
9
10
32
44
15
10
7
12
45
60
29
60
19
7
41
52
20
13
3
5
2
1
1
2
2
1
1
1
2
3
4
4
19
41
27
5
0
1
6
9
6
5
3
2
62
2
2
2
6
11
8
31
48
29
14
4
1
0
10
22
35
28
14
25
9
6
16
36
1
17
18
22
8
17
10
22
4
36
24
6
9
4
15
29
16
21
36
25
49
54
38
13
64
54
34
65
120
45
17
20
19
23
12
6
6
8
9
8
8
9
10
7
5
7
11
16
14
4
3
4
5
22
40
29
25
33
7
8
9
15
42
43
7
12
5
14
38
62
16
62
30
15
55
44
14
12
1
4
2
1
1
1
3
1
2
2
2
3
4
5
34
37
12
1
1
6
10
8
3
1
1
3
63
3
4
3
7
11
8
29
49
29
14
5
2
1
10
23
37
28
12
21
12
11
18
27
5
15
12
11
12
1
9
35
10
35
22
10
5
7
13
25
15
17
3
38
64
42
19
64
56
39
17
100
72
5
25
19
15
21
13
6
5
7
7
7
6
6
7
6
3
6
11
19
15
5
5
10
4
18
38
34
21
35
8
9
12
23
50
36
5
12
3
16
30
66
2
65
43
29
62
34
12
8
3
3
2
1
1
1
2
1
1
2
3
4
2
19
40
25
3
1
4
8
7
1
2
2
0
2
63
3
4
4
7
11
9
31
49
29
14
5
2
0
9
22
36
29
15
15
5
9
20
26
7
14
13
13
15
12
6
35
7
30
35
21
5
11
9
33
24
27
22
43
32
4
74
85
42
17
54
90
30
10
25
16
11
21
12
6
5
6
5
6
5
3
5
5
3
5
9
18
8
6
8
13
7
18
42
42
29
39
8
10
14
36
54
22
7
11
2
15
20
66
17
61
49
41
63
23
10
4
3
3
2
0
0
1
2
1
2
2
3
6
3
30
35
12
1
1
6
6
3
1
1
2
1
1
62
3
3
4
8
11
10
37
52
30
13
4
2
1
8
22
34
23
7
18
12
7
17
15
14
5
28
4
20
17
6
26
5
19
41
23
7
12
10
23
31
22
25
35
8
39
86
57
18
41
88
58
7
9
26
18
11
20
10
5
5
6
5
5
4
3
4
3
2
2
8
19
12
2
18
13
15
20
45
45
29
31
7
9
21
50
45
7
10
10
0
12
11
66
32
55
47
52
56
14
7
1
3
2
1
0
0
1
2
2
3
2
4
6
11
36
27
5
1
5
8
4
1
1
2
3
1
1
0
3
3
3
5
7
10
40
48
26
11
4
3
2
8
22
33
30
7
12
9
5
20
19
17
17
23
15
8
17
16
19
13
5
43
36
12
29
42
22
26
12
16
19
42
62
54
42
42
104
68
6
8
7
30
21
8
18
9
5
4
6
7
5
4
4
4
3
2
0
7
17
17
14
18
14
15
25
44
22
16
19
8
11
37
56
28
2
13
13
6
12
2
63
42
51
40
54
44
9
6
1
3
1
1
0
0
1
2
2
2
2
4
4
19
36
18
2
3
8
6
1
1
2
2
1
1
1
64
2
1
1
5
3
13
38
39
19
8
4
3
3
8
22
35
29
1
11
11
13
29
21
16
7
7
3
16
7
13
15
12
11
30
54
11
38
31
40
22
16
24
63
56
29
24
32
75
85
9
12
12
6
33
18
4
17
9
5
3
5
6
5
4
5
5
3
2
0
4
9
15
18
16
30
34
47
51
14
16
16
10
19
50
48
12
6
17
13
8
11
6
56
50
41
29
50
31
7
4
1
2
1
1
1
1
1
2
1
1
2
5
1
25
33
11
2
6
7
2
0
1
1
0
0
0
1
65
3
2
1
6
4
14
34
32
16
7
3
4
3
7
21
35
29
2
11
17
18
34
26
18
14
6
23
12
16
16
22
10
19
6
49
29
22
32
29
23
51
67
56
25
25
20
30
83
36
5
5
7
2
32
18
3
15
7
3
3
5
5
3
3
6
7
5
4
3
3
4
4
9
15
38
29
26
23
15
23
15
10
34
58
31
2
8
18
7
8
9
10
49
56
29
20
42
20
6
2
2
2
2
1
1
1
2
2
1
2
2
4
3
29
29
8
5
8
4
0
0
1
1
0
0
1
1
67
5
4
4
8
3
16
34
31
15
7
4
3
2
7
21
35
31
3
17
23
7
34
22
27
6
28
13
3
9
11
24
14
20
31
22
34
9
28
6
45
63
53
7
48
20
16
67
49
5
3
8
4
6
32
25
3
14
9
4
2
5
5
1
1
4
8
8
6
6
5
6
2
2
16
34
14
8
12
18
25
14
16
52
53
14
1
9
16
4
8
9
12
41
57
15
13
31
12
6
0
2
2
2
1
1
1
1
1
1
2
4
6
5
31
26
8
8
7
1
1
1
1
1
0
1
0
0
70
6
5
4
4
0
15
33
33
16
8
4
4
3
7
21
36
31
3
27
11
7
30
14
20
24
20
5
5
14
9
5
6
11
37
15
21
30
7
60
71
61
23
44
40
5
47
44
4
10
1
12
4
13
26
28
7
16
13
5
2
4
5
2
1
1
5
7
8
9
6
5
4
5
13
33
21
13
17
34
34
15
30
63
35
0
1
10
15
4
9
10
13
31
57
2
8
23
9
5
0
2
3
2
0
0
0
1
1
0
2
4
7
9
32
24
9
8
4
1
0
1
1
1
2
2
1
0
74
7
6
6
3
2
14
31
33
18
9
5
4
2
7
21
37
30
16
20
4
2
27
23
24
22
7
3
4
21
20
19
6
0
17
28
22
28
46
76
67
32
26
47
6
29
61
9
5
12
3
11
1
13
20
27
8
18
18
7
2
4
6
5
1
1
5
21
23
25
20
16
18
22
30
46
47
42
48
48
31
12
47
60
15
1
1
10
13
4
8
8
14
21
58
11
9
17
8
5
1
2
2
1
0
0
0
1
1
1
2
4
6
12
34
24
10
7
1
1
0
0
0
2
2
1
1
1
76
4
5
6
2
3
18
35
33
17
10
5
4
2
8
22
35
29
19
1
7
10
34
22
13
14
4
2
4
32
21
23
12
10
17
9
18
18
44
49
39
33
62
9
11
59
36
11
9
10
5
9
1
11
14
25
6
17
22
11
4
4
6
6
3
3
11
16
9
13
16
13
9
8
6
11
13
13
17
8
5
17
63
42
2
1
4
8
11
7
9
5
12
9
55
26
9
10
6
5
2
2
1
2
1
1
0
0
2
1
2
4
7
16
38
25
10
4
1
1
0
1
2
2
1
0
0
0
78
1
3
4
1
6
20
32
30
17
9
4
3
1
9
22
34
23
9
6
20
6
37
19
11
9
14
9
9
40
7
24
4
9
2
11
6
39
21
27
34
62
25
4
51
52
9
3
6
3
4
7
2
10
8
23
6
17
25
14
7
5
7
8
9
4
11
26
25
14
9
10
13
23
33
36
33
34
32
20
8
48
63
17
0
1
6
7
10
9
12
5
10
1
52
38
5
5
5
3
2
2
1
2
2
3
1
0
1
1
2
6
7
19
40
25
8
1
1
1
1
2
2
2
0
1
2
2
2
2
4
5
3
11
20
28
30
18
11
5
3
0
8
22
27
35
25
18
17
25
28
8
21
17
16
14
15
38
6
20
11
5
7
9
36
43
10
22
17
27
12
43
65
20
4
4
4
0
3
6
4
7
4
18
5
16
27
16
9
7
7
7
10
8
1
8
15
12
6
5
7
11
9
6
11
17
9
2
35
68
38
2
1
1
5
6
12
9
10
5
9
4
53
41
4
3
4
2
1
1
2
1
1
2
1
1
1
1
4
7
7
22
43
23
5
2
1
2
3
2
2
0
3
4
4
4
80
1
3
5
4
13
20
26
33
20
13
6
2
0
8
20
40
47
6
31
3
34
15
6
22
10
17
11
21
32
15
22
14
3
14
21
22
22
6
16
13
23
42
77
33
1
3
4
2
1
5
5
4
5
2
14
5
12
27
19
12
11
8
7
8
8
6
2
8
8
5
2
4
16
24
22
19
9
4
21
62
56
14
3
3
5
4
8
14
8
6
4
9
6
52
42
3
1
2
1
1
0
1
1
2
3
2
2
1
2
4
7
8
26
45
21
2
3
1
3
3
2
1
4
5
3
2
0
77
0
2
3
4
22
25
22
29
21
15
7
2
1
9
22
40
35
19
19
19
32
5
7
33
5
10
9
42
29
20
8
25
22
17
11
10
23
25
31
14
53
85
47
6
3
1
2
0
1
5
3
4
4
2
15
7
8
24
22
15
13
11
8
7
6
5
2
3
6
7
8
11
12
11
10
13
8
9
47
64
31
2
4
7
3
3
9
15
7
6
3
7
6
51
44
4
0
3
1
1
0
0
0
1
3
2
2
2
2
4
9
9
29
47
19
2
3
1
2
0
3
4
3
1
1
2
3
79
2
2
2
8
30
24
19
25
19
15
7
2
1
8
21
37
35
17
23
21
18
3
8
30
12
7
12
44
36
20
8
9
28
2
19
2
3
29
45
33
99
61
10
0
3
1
2
1
0
4
7
6
2
2
9
8
6
17
24
23
17
15
11
6
5
4
2
1
6
10
14
20
23
22
20
12
7
30
61
44
12
3
7
6
2
5
12
17
5
7
5
7
8
50
48
7
1
4
1
1
1
1
1
1
2
2
2
3
3
5
9
7
31
50
18
2
2
0
1
2
3
2
2
2
1
0
0
81
2
1
0
11
27
16
14
22
17
14
6
1
1
7
21
36
33
9
23
21
20
8
10
23
14
5
11
37
33
32
31
21
14
21
13
21
21
12
56
66
78
17
2
1
6
4
2
1
1
1
4
7
3
3
3
5
3
8
17
29
31
25
20
13
7
5
4
6
9
13
14
14
11
6
9
10
9
50
59
20
7
5
8
3
2
3
15
20
5
7
6
6
11
48
50
7
2
5
0
2
3
2
1
1
1
2
3
5
4
5
8
5
39
53
15
2
4
2
1
0
1
2
1
3
3
3
5
83
1
0
1
14
28
20
16
22
18
14
6
1
1
7
21
37
34
5
17
28
24
19
7
24
13
1
12
36
19
24
22
42
10
19
20
22
22
17
21
48
37
3
0
1
7
6
3
2
2
1
2
5
4
0
2
4
2
2
3
13
34
37
33
24
16
12
9
6
6
8
6
5
2
1
3
11
20
60
46
1
8
5
8
2
4
2
17
19
2
5
6
5
12
46
51
8
5
9
4
5
3
1
1
1
1
3
5
5
3
5
9
1
45
51
10
5
4
0
1
1
2
2
5
6
11
23
44
104
2
1
2
12
29
26
22
23
18
13
5
2
2
7
22
41
30
18
21
32
11
18
10
13
8
7
14
39
33
40
18
31
29
10
2
11
12
35
31
36
20
4
1
3
10
9
3
2
3
0
2
1
5
3
2
3
0
4
3
12
7
26
33
32
28
25
21
17
14
14
14
9
3
6
11
19
30
58
33
5
2
2
6
1
6
0
19
18
3
5
5
6
13
46
49
14
18
18
15
9
6
4
2
1
1
3
4
4
3
6
10
8
51
44
4
6
2
0
1
2
4
8
14
32
60
86
98
100
2
2
3
7
25
28
29
32
21
12
4
2
3
9
25
35
33
36
14
39
18
16
10
5
1
10
9
36
41
23
38
6
32
25
11
20
8
17
17
46
57
17
3
6
12
11
4
2
6
3
1
2
4
7
4
2
2
5
8
10
20
31
29
23
19
15
10
7
8
7
7
9
4
4
4
13
34
68
57
18
3
1
5
3
7
1
18
17
1
6
3
4
10
47
43
23
27
18
22
18
16
14
13
10
5
3
3
4
4
8
11
19
56
34
2
7
2
1
3
5
11
24
53
88
103
91
58
29
9
9
8
2
20
25
31
38
26
15
5
1
2
9
21
34
24
16
30
37
25
16
2
5
1
11
14
26
48
2
37
22
21
23
5
13
31
30
24
8
56
64
17
9
11
12
4
5
8
1
0
2
1
4
5
3
4
3
14
15
28
39
35
29
26
20
14
11
11
8
3
7
8
6
7
19
32
73
96
87
61
29
4
4
6
4
18
16
0
5
2
3
7
47
35
25
17
1
9
13
15
17
20
21
19
13
10
8
7
9
9
29
55
21
5
5
2
1
4
9
21
49
89
94
57
13
11
28
29
27
21
9
12
17
32
46
33
18
5
1
2
7
21
22
40
42
13
29
26
22
4
11
6
10
21
13
46
32
16
33
34
38
13
17
28
15
8
27
14
61
45
9
11
12
1
5
10
0
1
1
1
2
5
2
3
2
13
22
24
19
7
3
7
7
3
3
6
8
6
7
9
12
13
15
14
21
50
81
100
95
67
31
8
9
22
17
1
8
3
3
2
45
28
18
14
12
10
5
2
7
10
17
22
22
19
17
15
15
13
37
49
13
6
2
1
0
6
19
50
86
87
42
6
19
25
34
41
46
40
25
11
1
26
49
40
20
5
0
2
3
12
44
42
10
24
38
16
22
15
16
7
23
13
21
22
48
16
18
26
7
31
2
14
1
10
27
17
31
34
26
6
14
5
3
10
1
2
3
4
0
5
4
4
6
10
27
22
13
6
3
3
5
4
2
4
4
4
3
3
12
17
15
9
6
3
12
43
78
106
103
65
11
24
21
4
10
4
5
4
44
24
15
9
11
14
14
13
13
9
3
5
11
14
17
18
11
17
50
60
13
2
1
0
4
18
51
90
86
37
9
17
21
11
28
20
37
49
41
26
17
12
45
41
20
5
0
2
4
24
31
33
13
43
42
6
14
33
27
31
38
10
22
7
29
32
8
14
30
20
14
15
14
15
4
33
20
5
32
14
12
7
5
13
3
3
5
6
4
4
6
5
10
6
25
24
12
5
3
2
5
5
3
1
1
2
4
9
14
15
11
8
6
7
7
4
10
45
95
123
86
13
22
9
11
4
5
9
45
23
8
5
6
8
10
12
16
17
17
15
9
5
1
13
6
13
43
59
13
2
3
2
17
57
96
85
25
12
14
19
12
3
24
2
11
34
44
40
33
5
42
40
21
7
2
1
6
18
23
32
37
51
21
3
16
30
6
14
15
14
19
10
11
25
21
23
27
15
23
16
14
12
20
21
5
10
24
32
11
10
5
11
3
3
6
3
6
5
9
11
14
6
23
24
11
5
3
3
7
6
3
0
1
2
7
10
12
10
11
9
6
6
7
7
6
2
21
76
119
87
10
12
10
5
5
15
45
20
2
3
4
5
6
7
9
11
14
16
17
19
11
23
11
23
56
66
15
3
2
8
42
93
84
19
17
14
12
16
7
6
20
16
12
10
32
46
47
7
41
42
22
8
2
2
7
16
8
23
57
37
6
5
15
20
22
21
18
17
11
13
16
20
18
26
9
13
19
23
22
10
25
24
16
13
17
37
21
12
5
11
3
2
7
2
7
8
12
19
17
18
21
26
12
3
3
9
9
3
2
1
1
5
9
10
8
8
11
10
8
7
8
8
7
6
4
11
63
116
81
13
9
10
8
20
47
16
1
1
2
1
2
4
5
6
8
10
11
15
10
16
8
15
65
56
10
2
4
21
65
87
25
26
17
8
17
13
10
5
12
41
38
11
15
42
58
17
40
43
23
7
2
2
8
11
6
40
70
37
5
4
9
1
4
13
13
7
11
14
11
16
18
10
4
10
16
19
24
17
10
28
10
9
7
44
39
15
7
9
4
2
8
0
7
8
11
24
14
31
16
31
11
4
9
10
5
1
0
0
1
5
7
6
6
7
8
8
7
8
8
8
7
7
5
4
9
66
116
75
4
14
12
30
47
11
4
0
2
1
0
2
3
4
5
6
6
8
6
11
8
23
61
38
5
0
9
38
78
57
8
21
6
12
15
5
8
2
15
53
60
31
10
32
61
27
40
45
23
6
1
1
8
13
13
42
62
25
4
8
5
5
8
5
25
13
27
5
9
6
13
4
9
12
9
16
22
20
12
16
30
23
29
45
53
18
12
9
7
3
10
1
9
7
17
29
8
35
11
35
14
11
8
4
3
1
0
0
2
4
5
6
7
6
7
7
6
7
7
6
6
7
5
4
5
12
83
122
48
8
12
41
46
7
4
1
2
0
1
2
2
2
3
4
4
4
2
9
11
34
53
24
2
1
16
58
76
26
13
10
9
12
0
11
5
6
6
38
66
48
12
23
59
33
42
50
22
6
0
0
8
16
18
38
48
18
5
11
0
9
4
2
33
2
26
6
11
12
9
8
0
14
12
4
17
23
21
8
55
13
54
41
68
13
14
11
10
0
9
2
9
3
22
30
4
33
4
34
20
8
3
2
3
2
0
1
3
5
3
5
6
5
6
6
5
6
7
6
6
7
5
4
4
5
28
111
97
14
9
47
49
4
5
2
1
0
1
2
3
2
2
3
4
4
2
20
31
45
43
14
1
5
30
72
55
4
10
9
11
2
12
8
4
5
32
19
58
58
17
17
56
41
42
52
22
7
0
1
7
19
17
35
44
18
8
6
8
7
2
11
38
11
25
6
4
18
13
8
14
20
9
9
5
28
26
17
49
3
62
33
66
15
21
13
14
2
7
3
9
6
27
27
4
33
5
38
19
4
2
3
3
2
2
1
3
4
3
5
6
5
6
6
5
6
7
6
7
7
5
3
2
5
2
68
121
55
3
55
48
2
5
2
2
1
2
2
3
3
3
5
6
3
20
45
44
36
25
7
1
13
51
73
32
5
10
13
6
9
11
3
7
1
33
13
52
62
24
14
58
40
40
53
23
7
0
1
6
18
19
37
45
10
5
2
8
3
2
27
43
27
26
5
10
6
15
15
18
26
17
11
10
38
27
17
48
20
49
28
65
16
16
9
11
3
4
2
5
15
34
29
10
36
4
37
18
6
5
4
1
1
1
2
4
4
3
5
5
5
5
6
6
7
7
5
6
7
6
4
2
4
5
26
111
96
7
60
44
1
3
2
1
1
3
3
4
3
3
5
5
8
44
56
30
15
11
3
5
27
66
59
15
5
11
11
3
14
3
7
3
0
34
10
49
64
27
13
61
44
38
55
24
7
0
1
6
18
22
51
44
3
3
6
4
1
12
41
21
38
25
10
4
5
4
4
14
25
27
5
14
37
25
12
33
33
30
33
40
8
14
11
6
4
0
1
4
27
42
28
12
33
4
35
16
5
4
2
0
0
0
1
3
3
3
4
5
5
5
5
6
7
7
6
6
7
6
5
3
3
5
1
80
118
26
60
39
1
0
2
2
2
4
2
3
2
3
5
4
19
54
42
9
4
7
0
13
46
66
37
4
7
12
4
11
11
3
8
2
5
38
5
43
64
30
10
59
49
35
55
25
7
2
3
8
18
24
46
32
3
7
2
2
8
21
22
17
33
17
12
1
13
4
4
10
11
29
22
13
42
12
23
9
21
16
34
24
15
1
1
5
5
3
0
11
34
38
16
13
32
4
33
16
5
3
2
1
1
0
1
3
4
3
4
5
5
5
5
6
7
7
7
6
7
7
5
3
3
4
4
47
121
48
59
33
3
1
2
2
3
3
1
3
3
3
4
2
28
52
23
3
1
5
3
27
57
51
18
7
8
11
3
14
7
8
3
6
11
37
4
40
65
34
8
55
51
29
56
26
6
2
2
6
15
24
48
35
7
4
1
4
8
9
22
19
17
16
8
5
9
6
4
14
7
13
41
31
19
6
29
28
51
42
38
14
23
26
22
19
8
4
3
21
36
29
7
18
28
11
33
16
5
3
3
1
2
1
1
4
4
4
4
5
5
5
5
6
7
8
9
7
6
7
6
4
3
4
4
19
109
68
59
29
3
1
2
2
2
2
0
3
4
3
4
2
34
48
12
6
5
4
11
42
57
33
12
6
6
7
9
12
2
6
3
9
9
29
4
35
66
41
4
51
51
26
55
27
6
2
3
7
17
22
45
38
6
2
2
3
6
2
8
18
14
11
3
2
7
2
4
15
3
18
26
35
24
11
16
20
27
36
39
26
15
1
4
16
13
4
10
29
35
22
4
24
24
21
32
14
5
4
3
0
2
3
0
2
3
3
4
5
5
4
4
6
6
7
10
9
7
6
6
4
4
4
4
2
85
79
50
24
3
1
3
1
2
1
0
2
4
4
3
4
30
42
14
5
7
3
22
52
47
19
9
4
5
6
13
5
7
2
6
6
4
31
4
28
65
48
2
47
53
24
52
28
8
0
0
5
15
22
49
41
6
4
4
12
10
6
5
12
9
8
1
3
7
3
8
13
4
13
28
31
11
13
12
24
41
22
11
14
27
26
24
20
17
1
20
32
28
15
1
33
20
28
27
12
5
4
2
0
1
3
1
2
2
3
4
4
4
4
4
5
5
6
9
10
8
6
6
5
4
4
3
2
59
79
28
16
5
3
2
1
3
3
2
2
4
4
3
6
23
48
33
15
12
1
30
53
37
13
12
6
4
12
9
8
6
5
6
2
2
2
1
22
62
51
5
41
53
18
50
29
9
1
1
6
16
17
48
50
14
3
13
12
3
12
6
7
3
5
5
5
5
4
14
5
10
2
12
33
23
19
25
23
18
52
39
5
6
5
7
11
12
6
28
32
23
9
10
38
8
35
22
9
4
3
2
1
1
2
2
0
1
2
4
4
3
4
5
6
6
7
8
10
9
7
6
5
4
3
2
2
33
72
30
11
16
18
12
8
1
2
2
4
5
5
6
9
7
31
42
35
18
4
38
53
30
14
12
4
6
11
6
13
3
9
3
1
2
32
1
17
57
52
7
36
50
11
48
30
9
1
1
5
16
17
37
44
19
2
8
6
14
4
10
5
2
4
5
3
6
1
10
6
14
19
14
17
46
22
21
28
30
28
40
11
3
6
8
5
2
16
33
29
16
5
23
36
11
40
18
5
2
2
1
2
2
2
3
0
1
2
3
4
3
3
4
5
6
6
8
9
10
8
6
5
4
3
1
1
11
53
48
30
30
34
31
26
19
12
6
4
1
3
10
9
5
5
26
35
20
13
49
53
29
17
7
4
12
1
14
5
8
4
3
2
15
37
2
16
56
54
13
37
53
5
48
31
10
2
1
5
18
22
37
36
20
2
7
8
1
7
8
1
4
2
9
7
6
6
10
1
25
36
34
37
9
23
5
12
34
51
46
6
1
3
7
3
13
27
36
24
8
5
38
23
32
34
9
2
2
2
1
1
1
1
3
1
1
3
4
4
4
3
4
4
5
6
7
9
10
9
7
6
5
4
2
1
2
36
63
43
19
24
32
34
34
32
28
23
18
13
9
4
9
3
32
48
15
29
61
55
32
14
6
9
6
13
9
4
5
3
8
9
24
32
1
12
57
59
16
34
60
5
47
31
11
2
2
4
17
28
35
29
20
4
2
2
8
4
4
2
3
5
10
10
2
4
7
8
24
34
7
50
38
22
16
10
26
30
21
1
1
4
3
7
23
32
32
16
1
25
45
7
45
23
3
2
3
2
0
1
0
1
2
2
0
3
4
5
4
4
4
5
6
7
6
7
10
9
8
7
6
5
3
2
2
26
78
49
3
3
5
14
22
30
37
40
45
46
35
13
13
15
42
42
2
49
72
57
28
11
8
6
9
14
2
6
1
4
1
18
25
17
11
17
54
60
18
26
61
15
45
30
11
2
2
3
19
34
34
31
20
5
1
4
8
3
4
3
1
5
4
10
6
2
5
7
24
49
37
17
43
25
15
22
24
10
9
2
2
3
1
15
30
32
22
6
15
46
21
39
41
13
2
2
2
3
1
0
0
2
2
3
1
1
2
4
4
4
4
4
5
7
7
8
9
9
9
8
7
5
4
3
3
14
79
67
12
13
15
11
6
11
17
25
39
58
62
34
22
22
38
28
23
69
77
45
8
10
6
7
15
1
9
3
1
5
9
24
22
6
25
28
52
56
22
21
59
21
43
30
11
2
3
2
23
32
29
32
17
1
5
4
5
5
3
4
3
3
2
6
6
2
5
5
4
24
59
37
12
23
15
38
28
3
5
4
3
0
10
25
34
29
14
8
41
37
24
52
24
5
1
1
1
1
1
1
0
2
2
3
2
1
1
2
4
5
5
5
4
5
7
8
9
9
10
8
7
6
4
4
3
2
63
77
14
7
12
16
19
19
16
10
10
31
66
67
14
13
27
12
54
92
67
18
6
4
8
18
3
13
10
4
12
4
13
20
13
15
17
21
40
48
24
15
56
25
37
31
12
3
4
3
27
31
26
35
13
3
1
4
3
1
0
5
6
4
0
7
9
3
7
8
4
3
32
54
32
8
14
32
28
1
2
3
2
6
20
31
33
21
6
40
43
9
51
35
9
2
2
1
0
1
1
2
0
1
2
3
2
1
1
1
2
4
5
5
6
5
6
8
9
10
11
9
8
6
4
3
3
3
42
80
27
9
2
10
14
18
22
24
20
15
68
68
4
13
13
34
94
91
34
5
6
8
19
9
14
16
7
13
15
4
16
16
11
13
2
11
28
39
23
11
49
25
32
31
12
3
3
2
29
30
25
34
14
3
4
4
3
4
3
3
8
6
1
3
10
4
7
6
1
3
10
25
39
23
21
44
21
1
1
4
0
11
20
25
25
11
24
47
11
39
37
13
4
2
2
0
0
0
1
3
0
0
0
2
2
1
1
1
0
2
3
3
4
5
5
5
7
9
9
8
8
6
4
3
2
2
22
73
39
12
2
5
8
10
14
17
18
12
62
68
9
13
6
54
85
51
6
7
5
15
16
4
17
8
7
17
9
8
15
15
6
3
14
20
21
29
21
10
41
23
28
31
13
3
3
2
30
29
28
36
11
2
2
3
4
2
5
0
17
8
6
10
16
11
17
9
8
5
3
18
22
8
30
23
13
0
3
5
4
20
27
19
3
34
36
12
37
34
16
6
3
2
1
1
1
1
1
2
0
0
0
1
1
2
1
0
1
2
4
3
4
5
5
4
4
6
10
9
8
8
6
4
3
2
7
68
58
6
6
2
4
6
10
13
12
16
54
63
15
31
62
70
45
5
10
6
15
19
2
16
12
5
17
16
3
12
16
13
3
2
23
27
22
37
29
6
39
24
25
32
14
4
3
3
28
36
39
32
5
3
2
2
1
6
5
5
18
2
4
19
15
28
12
3
2
13
9
12
31
16
33
18
12
2
2
2
8
12
12
18
20
12
26
35
26
12
6
4
2
2
0
1
1
0
2
2
1
2
1
2
2
1
1
1
1
1
2
2
3
5
5
6
5
4
6
8
8
7
6
5
3
2
0
53
68
10
8
3
1
4
7
7
9
8
32
53
15
68
60
26
6
9
6
14
23
5
15
19
5
14
22
9
7
16
20
10
3
9
17
28
26
39
33
3
34
27
20
31
15
4
3
4
23
48
51
21
2
2
4
3
5
10
5
7
17
3
6
27
10
38
4
9
13
17
4
7
26
3
32
33
9
1
2
2
5
11
11
19
27
31
26
15
9
5
2
1
3
2
2
2
1
2
2
1
2
2
1
1
1
1
1
1
1
1
1
2
3
4
4
4
5
7
6
5
6
7
7
6
5
2
1
35
73
31
11
8
4
3
5
7
9
7
9
31
38
47
17
5
7
6
5
18
7
16
21
11
10
26
18
3
11
21
14
6
6
6
5
16
25
44
40
7
36
32
15
30
16
5
3
4
27
57
41
12
3
0
5
4
2
10
6
11
19
4
12
31
23
30
16
27
24
7
22
1
19
12
27
28
10
1
1
7
20
28
30
25
17
14
9
4
2
2
0
0
3
3
1
0
1
3
1
0
1
2
2
1
0
1
1
2
2
0
1
2
2
4
4
5
5
6
7
8
8
8
7
7
7
3
2
16
74
50
10
9
6
3
4
7
4
3
2
7
13
6
8
10
12
5
12
7
12
15
7
2
22
26
9
6
20
17
15
6
6
2
3
10
24
54
57
19
40
47
7
29
15
5
3
5
40
62
34
6
2
1
5
3
1
4
3
7
24
7
20
22
23
13
34
14
4
22
22
3
10
27
14
27
10
2
6
18
28
25
17
10
4
4
4
2
1
1
2
1
1
3
2
1
1
1
2
2
0
1
1
0
1
0
0
0
2
1
1
1
2
2
3
4
5
4
5
5
5
6
7
6
5
4
2
3
66
65
4
10
7
6
7
4
2
2
4
6
6
8
7
13
12
4
6
8
15
7
3
15
27
18
5
18
15
21
8
3
2
4
2
5
20
62
57
7
22
46
9
28
15
5
3
5
34
58
36
7
1
5
6
3
7
3
3
4
17
6
12
19
13
15
27
9
12
21
8
7
8
16
16
31
38
5
17
24
22
15
8
5
3
2
4
1
0
2
1
1
0
1
3
1
1
2
2
0
1
1
2
0
0
1
0
1
1
2
1
1
3
3
2
4
5
2
6
6
6
7
6
7
5
3
3
1
50
73
15
11
7
8
8
3
2
4
5
2
8
9
10
14
5
2
7
6
5
7
12
27
23
3
17
15
27
16
4
7
17
15
1
4
17
68
62
7
18
41
8
27
15
5
2
4
42
61
32
8
3
5
8
5
3
1
2
21
11
20
1
12
3
16
3
9
9
24
5
15
10
10
23
13
17
26
22
17
14
11
6
5
4
2
3
1
0
1
1
2
0
0
3
1
1
1
4
3
1
1
2
0
0
1
1
1
1
0
0
1
1
3
2
3
5
2
3
5
7
8
6
5
6
5
3
3
31
71
40
1
7
10
11
10
6
6
6
9
12
9
17
18
11
12
5
5
3
4
17
25
11
11
14
31
21
6
9
21
24
37
